<svg id="Layer_1" data-name="Layer 1" xmlns="http://www.w3.org/2000/svg" viewBox="0 0 360 240"><defs><style>.cls-1,.cls-2,.cls-4,.cls-5,.cls-6,.cls-8{fill:none;stroke-miterlimit:10;}.cls-1,.cls-2,.cls-4,.cls-5{stroke:#a6abb0;}.cls-1,.cls-2,.cls-6,.cls-8{stroke-linecap:round;}.cls-1,.cls-2,.cls-8{stroke-width:4px;}.cls-1,.cls-2,.cls-3,.cls-4{opacity:0.3;}.cls-2{stroke-dasharray:2 8;}.cls-10,.cls-3{fill:#a6abb0;}.cls-4,.cls-5{stroke-width:2px;}.cls-5{opacity:0.7;}.cls-6{stroke:#e5e6e8;stroke-width:3px;}.cls-7{fill:#81b441;opacity:0.22;}.cls-8{stroke:#81b441;}.cls-9{fill:#fff;}</style></defs><title>Forums</title><line class="cls-1" x1="343.57" y1="213.02" x2="249.14" y2="213.02"/><line class="cls-1" x1="216.89" y1="213.02" x2="204.89" y2="213.02"/><line class="cls-1" x1="192.48" y1="213.02" x2="123.94" y2="213.02"/><line class="cls-1" x1="146.57" y1="224.29" x2="75.57" y2="224.29"/><path class="cls-1" d="M226.24,64.75a19.61,19.61,0,0,0,19.61,19.61h67.7a19.6,19.6,0,0,0,4.92-38.58,25,25,0,0,0-44.05-20.25,23.36,23.36,0,0,0-34.75,20.41c0,.07,0,.13,0,.2a19.56,19.56,0,0,0-3.93,1.81"/><path class="cls-1" d="M86.45,162.16a14.07,14.07,0,0,1-14.07,14.07H23.81a14.06,14.06,0,0,1-3.53-27.67A17.91,17.91,0,0,1,51.88,134a16.75,16.75,0,0,1,19.37,2.17"/><path class="cls-2" d="M265.78,91.94a96.88,96.88,0,0,1,9.94,69.51q-.29,1.22-.6,2.43a96.12,96.12,0,0,1-14.77,31.55"/><path class="cls-2" d="M92.28,103q1.42-3.49,3.11-6.84A96.86,96.86,0,0,1,115.67,69q3.46-3.24,7.22-6.14,2.46-1.89,5-3.63,3-2,6.25-3.86A96.59,96.59,0,0,1,256.2,78"/><path class="cls-3" d="M48.6,62.15h-3v-3a1.5,1.5,0,0,0-3,0v3h-3a1.5,1.5,0,0,0,0,3h3v3a1.5,1.5,0,0,0,3,0v-3h3a1.5,1.5,0,0,0,0-3Z"/><path class="cls-3" d="M307.6,186.17h-3v-3a1.5,1.5,0,0,0-3,0v3h-3a1.5,1.5,0,0,0,0,3h3v3a1.5,1.5,0,1,0,3,0v-3h3a1.5,1.5,0,0,0,0-3Z"/><circle class="cls-4" cx="226.23" cy="34.12" r="4"/><circle class="cls-5" cx="111.9" cy="212.18" r="3.17"/><line class="cls-6" x1="233.08" y1="137.73" x2="260.35" y2="137.73"/><line class="cls-6" x1="108.73" y1="137.73" x2="136" y2="137.73"/><line class="cls-6" x1="183.06" y1="69.24" x2="183.06" y2="87.03"/><path class="cls-7" d="M206.7,90.69c-2.43-1.21-9.4-.61-17.89,2.12-14.56,10-27,24.87-27.9,48.52-.3.61-1.52,0-1.82-.3-3.94-7.58-5.46-15.47-2.12-27.29.61-.91-1.52-2.43-1.82-1.82a45,45,0,0,0-5.76,7.58c-10,17.29-3.34,39.42,13.95,49.13a36.19,36.19,0,0,0,49.13-13.95C223.69,134.36,213.07,94.33,206.7,90.69Z"/><path class="cls-8" d="M209.76,94.75c-2.43-1.21-9.4-.61-17.89,2.12-14.56,10-27,24.87-27.9,48.52-.3.61-1.52,0-1.82-.3-3.94-7.58-5.46-15.47-2.12-27.29.61-.91-1.52-2.43-1.82-1.82a45,45,0,0,0-5.76,7.58c-10,17.29-3.34,39.42,13.95,49.13a36.19,36.19,0,0,0,49.13-13.95C226.74,138.41,216.13,98.38,209.76,94.75Z"/><path class="cls-9" d="M257.37,164.41a2.18,2.18,0,0,1-2.1-2.72,82.23,82.23,0,0,0,2-9.75c.1-2.53,2.85-4.16,3-4.23a105,105,0,0,1,11.83-6.15,13.52,13.52,0,0,1-1.63-3.63c-1.08-.12-2.24-1-2.61-4.08a2.89,2.89,0,0,1,.34-2.35,1.86,1.86,0,0,1,.88-.63,5.44,5.44,0,0,1-.18-.69,15.8,15.8,0,0,1,.1-6.51,10,10,0,0,1,2.71-4.63l0,0a1.34,1.34,0,0,1,1.13-2.06c.54,0,1,.09,1.51.16a12.73,12.73,0,0,1,1.34-.65,1.35,1.35,0,0,1,1.55.39l.11.15a9.9,9.9,0,0,1,2.73-.37,14.69,14.69,0,0,1,5.42,1.16,1.22,1.22,0,0,1,.77,1.22s0,.08,0,.12a6.87,6.87,0,0,1,1.41,1.32,4.42,4.42,0,0,1,.49.8l.23.45a11.82,11.82,0,0,1,1.28,5.23,10.69,10.69,0,0,1-.7,4,1.86,1.86,0,0,1,.77.58,2.9,2.9,0,0,1,.34,2.35c-.38,3.19-1.59,4-2.61,4.09a12.83,12.83,0,0,1-1.45,3.34c3.76,1.39,10.92,5.5,12.69,6.56.1.06,2.86,1.69,3,4.22a92,92,0,0,0,2,9.38,2.36,2.36,0,0,1-2.29,2.92l-43.95.05Z"/><path class="cls-10" d="M276.2,117.35a.35.35,0,0,1,.34.42.34.34,0,0,0,.34.4l.12,0a8.92,8.92,0,0,1,3.07-.53,13.72,13.72,0,0,1,5.05,1.09.22.22,0,0,1,0,.42.22.22,0,0,0-.05.41,6.3,6.3,0,0,1,1.83,1.52,3.45,3.45,0,0,1,.37.63l.23.45a10.77,10.77,0,0,1,1.17,4.79,8.87,8.87,0,0,1-.95,4.29,1.75,1.75,0,0,1-.49.56l0,0h.35a2.6,2.6,0,0,1,.53-.06c1.48,0,1.06,1.74,1,1.9v0c-.31,2.75-1.19,3.27-1.81,3.27h-.2a.54.54,0,0,0-.52.46,13.26,13.26,0,0,1-2,4.3.13.13,0,0,0,.08.2c2.82.69,10.6,5,13.53,6.8,0,0,2.39,1.39,2.47,3.4a85,85,0,0,0,2,9.58,1.36,1.36,0,0,1-1.32,1.68l-43.95.05a1.18,1.18,0,0,1-1.14-1.47,82.45,82.45,0,0,0,2.08-10c.08-2,2.47-3.4,2.47-3.4,3-1.81,10-5.69,12.7-6.43a.12.12,0,0,0,.07-.19,14.25,14.25,0,0,1-2.14-4.47.67.67,0,0,0-.65-.54h-.09c-.62,0-1.5-.52-1.81-3.26v0c0-.17-.46-1.9,1-1.9a2.6,2.6,0,0,1,.53.06h.29a4.32,4.32,0,0,1-.79-1.81,14.83,14.83,0,0,1,.08-6.09,9.15,9.15,0,0,1,3.07-4.73.13.13,0,0,0,0-.2,5.52,5.52,0,0,1-.52-.52.34.34,0,0,1,.28-.52h0c.55,0,1.09.11,1.63.2h0l.07,0a12,12,0,0,1,1.49-.74l.13,0m0-2h0a2.34,2.34,0,0,0-.9.18c-.38.16-.77.34-1.14.54-.4-.05-.78-.09-1.16-.12h-.16a2.34,2.34,0,0,0-2.27,2.88,10.86,10.86,0,0,0-2.5,4.58,16.84,16.84,0,0,0-.12,7h0a2.85,2.85,0,0,0-.52.52,3.79,3.79,0,0,0-.53,3.13c.4,3.25,1.68,4.4,2.8,4.77a14,14,0,0,0,1,2.28,119.41,119.41,0,0,0-10.93,5.79c-.32.18-3.32,2-3.44,5a81.11,81.11,0,0,1-2,9.54,3.18,3.18,0,0,0,3.07,4l44-.05a3.36,3.36,0,0,0,3.26-4.16,77.83,77.83,0,0,1-2-9.18c-.12-3-3.12-4.85-3.47-5.05a120.12,120.12,0,0,0-11.76-6.2,13.32,13.32,0,0,0,.83-2c1.12-.37,2.4-1.52,2.8-4.77a3.79,3.79,0,0,0-.53-3.13,2.86,2.86,0,0,0-.36-.39,12.23,12.23,0,0,0,.5-3.59,12.84,12.84,0,0,0-1.39-5.68l-.23-.45a5.31,5.31,0,0,0-.6-1,7.65,7.65,0,0,0-1.19-1.19,2.22,2.22,0,0,0-1.39-1.77,15.66,15.66,0,0,0-5.79-1.23,11,11,0,0,0-2.4.26,2.34,2.34,0,0,0-1.47-.52Z"/><path class="cls-9" d="M161,60.84a2.18,2.18,0,0,1-2.1-2.72,82.18,82.18,0,0,0,2-9.75c.1-2.53,2.85-4.16,3-4.23A104.82,104.82,0,0,1,175.73,38a13.5,13.5,0,0,1-1.63-3.63c-1.08-.12-2.24-1-2.61-4.08a2.89,2.89,0,0,1,.34-2.35,1.87,1.87,0,0,1,.88-.63,5.43,5.43,0,0,1-.17-.69,15.81,15.81,0,0,1,.1-6.51,10,10,0,0,1,2.71-4.63l0,0a1.34,1.34,0,0,1,1.12-2.06c.54,0,1,.09,1.51.16a12.75,12.75,0,0,1,1.34-.65,1.34,1.34,0,0,1,1.55.38l.11.15a9.91,9.91,0,0,1,2.73-.37,14.68,14.68,0,0,1,5.42,1.16,1.22,1.22,0,0,1,.77,1.22,1.18,1.18,0,0,1,0,.13,6.88,6.88,0,0,1,1.41,1.32,4.38,4.38,0,0,1,.49.8l.23.45a11.82,11.82,0,0,1,1.28,5.23,10.69,10.69,0,0,1-.7,4,1.86,1.86,0,0,1,.77.59,2.89,2.89,0,0,1,.34,2.34c-.38,3.19-1.59,4-2.61,4.1a13.12,13.12,0,0,1-1.45,3.34c3.77,1.39,10.93,5.5,12.69,6.56.1.06,2.86,1.69,3,4.22a92.12,92.12,0,0,0,2,9.38,2.36,2.36,0,0,1-2.29,2.92l-44,.05Z"/><path class="cls-10" d="M179.82,13.77a.35.35,0,0,1,.34.42.34.34,0,0,0,.34.4l.12,0a8.92,8.92,0,0,1,3.07-.53,13.72,13.72,0,0,1,5.05,1.09.22.22,0,0,1,0,.42.22.22,0,0,0-.05.41,6.3,6.3,0,0,1,1.83,1.52,3.45,3.45,0,0,1,.37.63l.23.45a10.77,10.77,0,0,1,1.17,4.79,8.87,8.87,0,0,1-.95,4.29,1.75,1.75,0,0,1-.49.56l0,0h.35a2.6,2.6,0,0,1,.53-.06c1.48,0,1.06,1.74,1,1.9v0c-.31,2.75-1.19,3.27-1.81,3.27h-.2a.54.54,0,0,0-.52.46,13.26,13.26,0,0,1-2,4.3.13.13,0,0,0,.08.2c2.82.69,10.6,5,13.53,6.8,0,0,2.39,1.39,2.47,3.4a85,85,0,0,0,2,9.58,1.36,1.36,0,0,1-1.32,1.68L161,59.84a1.18,1.18,0,0,1-1.14-1.47,82.45,82.45,0,0,0,2.08-10c.08-2,2.47-3.4,2.47-3.4,3-1.81,10-5.69,12.7-6.43a.12.12,0,0,0,.07-.19A14.25,14.25,0,0,1,175,33.91a.67.67,0,0,0-.65-.54h-.09c-.62,0-1.5-.52-1.81-3.26v0c0-.17-.46-1.9,1-1.9a2.6,2.6,0,0,1,.53.06h.29a4.32,4.32,0,0,1-.79-1.81,14.83,14.83,0,0,1,.08-6.09,9.15,9.15,0,0,1,3.07-4.73.13.13,0,0,0,0-.2,5.52,5.52,0,0,1-.52-.52.34.34,0,0,1,.28-.52h0c.55,0,1.09.11,1.63.2h0l.07,0a12,12,0,0,1,1.49-.74l.13,0m0-2h0a2.34,2.34,0,0,0-.9.18c-.38.16-.77.34-1.14.54-.4-.05-.78-.09-1.16-.12h-.16a2.34,2.34,0,0,0-2.27,2.88,10.85,10.85,0,0,0-2.5,4.58,16.84,16.84,0,0,0-.12,7h0a2.85,2.85,0,0,0-.52.52,3.79,3.79,0,0,0-.53,3.13c.4,3.25,1.68,4.4,2.8,4.77a14,14,0,0,0,1,2.28,119.4,119.4,0,0,0-10.93,5.79c-.32.18-3.32,2-3.44,5a81.11,81.11,0,0,1-2,9.54,3.18,3.18,0,0,0,3.07,4l44-.05a3.36,3.36,0,0,0,3.26-4.16,77.83,77.83,0,0,1-2-9.18c-.12-3-3.12-4.85-3.47-5.05A120.12,120.12,0,0,0,191,37.19a13.32,13.32,0,0,0,.83-2c1.12-.37,2.4-1.52,2.8-4.77a3.79,3.79,0,0,0-.53-3.13,2.86,2.86,0,0,0-.36-.39,12.23,12.23,0,0,0,.5-3.59,12.84,12.84,0,0,0-1.39-5.68l-.23-.45a5.31,5.31,0,0,0-.6-1A7.66,7.66,0,0,0,190.87,15a2.22,2.22,0,0,0-1.39-1.77A15.66,15.66,0,0,0,183.69,12a11,11,0,0,0-2.4.26,2.34,2.34,0,0,0-1.47-.52Z"/><path class="cls-9" d="M66.59,164.41a2.18,2.18,0,0,1-2.1-2.72,82.23,82.23,0,0,0,2-9.75c.1-2.53,2.85-4.16,3-4.22a104.9,104.9,0,0,1,11.83-6.15,13.51,13.51,0,0,1-1.63-3.63c-1.08-.12-2.24-1-2.61-4.08a2.9,2.9,0,0,1,.34-2.35,1.87,1.87,0,0,1,.88-.63,5.36,5.36,0,0,1-.18-.69,15.8,15.8,0,0,1,.1-6.51A10,10,0,0,1,80.95,119l0,0A1.34,1.34,0,0,1,82,116.94c.54,0,1,.09,1.51.16a12.73,12.73,0,0,1,1.34-.65,1.35,1.35,0,0,1,1.55.39l.11.15a9.9,9.9,0,0,1,2.73-.37,14.69,14.69,0,0,1,5.42,1.16,1.22,1.22,0,0,1,.77,1.22s0,.08,0,.12a6.88,6.88,0,0,1,1.41,1.32,4.4,4.4,0,0,1,.48.8l.23.45a11.82,11.82,0,0,1,1.28,5.23,10.67,10.67,0,0,1-.7,4,1.86,1.86,0,0,1,.77.59,2.88,2.88,0,0,1,.34,2.33c-.37,3.2-1.59,4-2.61,4.1a12.85,12.85,0,0,1-1.45,3.34c3.76,1.39,10.92,5.5,12.69,6.56.1.06,2.86,1.69,3,4.22a90.45,90.45,0,0,0,2,9.38,2.36,2.36,0,0,1-2.29,2.92l-43.95.05Z"/><path class="cls-10" d="M85.41,117.35a.35.35,0,0,1,.34.42.34.34,0,0,0,.34.4l.12,0a8.92,8.92,0,0,1,3.07-.53,13.72,13.72,0,0,1,5.05,1.09.22.22,0,0,1,0,.42.22.22,0,0,0-.05.41,6.3,6.3,0,0,1,1.83,1.52,3.45,3.45,0,0,1,.37.63l.23.45a10.77,10.77,0,0,1,1.17,4.79,8.87,8.87,0,0,1-.95,4.29,1.75,1.75,0,0,1-.49.56l0,0h.35a2.6,2.6,0,0,1,.53-.06c1.48,0,1.06,1.74,1,1.9v0c-.31,2.75-1.19,3.27-1.81,3.27h-.2a.54.54,0,0,0-.52.46,13.26,13.26,0,0,1-2,4.3.13.13,0,0,0,.08.2c2.82.69,10.6,5,13.53,6.8,0,0,2.39,1.39,2.47,3.4a85,85,0,0,0,2,9.58,1.36,1.36,0,0,1-1.32,1.68l-43.95.05a1.18,1.18,0,0,1-1.14-1.47,82.45,82.45,0,0,0,2.08-10c.08-2,2.47-3.4,2.47-3.4,3-1.81,10-5.69,12.7-6.43a.12.12,0,0,0,.07-.19,14.25,14.25,0,0,1-2.14-4.47.67.67,0,0,0-.65-.54h-.09c-.62,0-1.5-.52-1.81-3.26v0c0-.17-.46-1.9,1-1.9a2.6,2.6,0,0,1,.53.06h.29a4.32,4.32,0,0,1-.79-1.81,14.83,14.83,0,0,1,.08-6.09,9.15,9.15,0,0,1,3.07-4.73.13.13,0,0,0,0-.2,5.53,5.53,0,0,1-.52-.52.34.34,0,0,1,.28-.52h0c.55,0,1.09.11,1.63.2h0l.07,0a12,12,0,0,1,1.49-.74l.13,0m0-2h0a2.34,2.34,0,0,0-.9.18c-.38.16-.77.34-1.14.54-.4-.05-.78-.09-1.16-.12H82a2.34,2.34,0,0,0-2.27,2.88,10.86,10.86,0,0,0-2.5,4.58,16.84,16.84,0,0,0-.12,7h0a2.85,2.85,0,0,0-.52.52,3.79,3.79,0,0,0-.53,3.13c.4,3.25,1.68,4.4,2.8,4.77a14,14,0,0,0,1,2.28A119.4,119.4,0,0,0,69,146.86c-.32.18-3.32,2-3.44,5a81.11,81.11,0,0,1-2,9.54,3.18,3.18,0,0,0,3.07,4l44-.05a3.36,3.36,0,0,0,3.26-4.16,77.83,77.83,0,0,1-2-9.18c-.12-3-3.12-4.85-3.47-5.05a120.12,120.12,0,0,0-11.76-6.2,13.32,13.32,0,0,0,.83-2c1.12-.37,2.4-1.52,2.8-4.77a3.79,3.79,0,0,0-.53-3.13,2.86,2.86,0,0,0-.36-.39,12.23,12.23,0,0,0,.5-3.59,12.84,12.84,0,0,0-1.39-5.68l-.23-.45a5.31,5.31,0,0,0-.6-1,7.65,7.65,0,0,0-1.19-1.19,2.22,2.22,0,0,0-1.39-1.77,15.66,15.66,0,0,0-5.79-1.23,11,11,0,0,0-2.4.26,2.34,2.34,0,0,0-1.47-.52Z"/></svg>