<svg width="30" height="31" viewBox="0 0 30 31" fill="none" xmlns="http://www.w3.org/2000/svg"><path fill-rule="evenodd" clip-rule="evenodd" d="M19.148.25l10.57 10.597a.834.834 0 010 1.25l-4.487 4.498a.83.83 0 01-1.18 0l-.997-.983-3.607 9.048a3.327 3.327 0 01-2.277 2L3.774 29.99a1.664 1.664 0 01-.4 0 1.66 1.66 0 01-1.229-.483L.483 27.842A1.669 1.669 0 01.05 26.26l3.324-13.43a3.33 3.33 0 012.06-2.282l9.026-3.616-.98-1a.834.834 0 010-1.182l4.487-4.5a.83.83 0 011.18 0zM6.184 25.91l10.238-2.55 4.122-10.38-3.49-3.5-10.355 4.15-2.576 10.213 4.753-4.765c.2-.198.314-.468.316-.75 0-1.38 1.116-2.5 2.493-2.5a2.496 2.496 0 012.493 2.5c0 1.38-1.116 2.5-2.493 2.5-.281.002-.55.116-.748.316l-4.753 4.765z" fill="#00A5A7"/></svg>
