<svg width="49" height="48" viewBox="0 0 49 48" fill="none" xmlns="http://www.w3.org/2000/svg"><g clip-path="url(#clip0-commission)"><path d="M39.73 10.526L36.495 2.32A3.671 3.671 0 0031.738.253L6.613 10.175a3.996 3.996 0 00-.673.35h33.79z" fill="#73CDCF"/><path d="M47.04 20.681v-7.28a4.347 4.347 0 00-4.337-4.337H5.307A4.347 4.347 0 00.97 13.401v29.512a4.347 4.347 0 004.337 4.337h37.386a4.347 4.347 0 004.337-4.337v-7.28c1.15-.673 1.93-1.901 1.93-3.324v-8.314c.01-1.413-.78-2.65-1.92-3.314zM45.1 23.07c.517 0 .936.42.936.936v8.313c0 .517-.419.936-.936.936H27.772a.936.936 0 01-.936-.936v-8.313c0-.517.42-.936.936-.936H45.1zm-2.407 21.257H5.307c-.78 0-1.413-.634-1.413-1.413V13.4c0-.78.633-1.413 1.413-1.413h37.386c.78 0 1.413.633 1.413 1.413v6.744H27.772a3.868 3.868 0 00-3.86 3.86v8.313a3.868 3.868 0 003.86 3.86h16.334v6.744c.01.77-.633 1.404-1.413 1.404z" fill="#005B5C"/><path d="M32.284 31.334a3.177 3.177 0 100-6.355 3.177 3.177 0 000 6.355z" fill="#035B5C"/></g><defs><clipPath id="clip0-commission"><path fill="#fff" transform="translate(.97)" d="M0 0h48v47.249H0z"/></clipPath></defs></svg>
