<svg width="28" height="34" viewBox="0 0 28 34" fill="none" xmlns="http://www.w3.org/2000/svg"><path fill-rule="evenodd" clip-rule="evenodd" d="M25.667.333H2.333C1.413.333.667 1.08.667 2v10c0 .92.746 1.667 1.666 1.667h23.334c.92 0 1.666-.746 1.666-1.667V2c0-.92-.746-1.667-1.666-1.667zm-3.334 17.5v2.5h3.334c.92 0 1.666.747 1.666 1.667v10c0 .92-.746 1.667-1.666 1.667H2.333c-.92 0-1.666-.747-1.666-1.667V22c0-.92.746-1.667 1.666-1.667h3.334v-2.5c0-.46.373-.833.833-.833h3.333c.46 0 .834.373.834.833v2.5h6.666v-2.5c0-.46.373-.833.834-.833H21.5c.46 0 .833.373.833.833zM4 30.333h20v-6.666H4v6.666zm0-20h20V3.667H4v6.666z" fill="#00A5A7"/></svg>
