<svg width="34" height="30" viewBox="0 0 34 30" fill="none" xmlns="http://www.w3.org/2000/svg"><path fill-rule="evenodd" clip-rule="evenodd" d="M23.67 0h-.003a3.335 3.335 0 00-3.334 3.333v2.644c0 1.003-.821 1.67-1.678 1.67-.41 0-.827-.154-1.167-.492l-.201-.202A6.67 6.67 0 0012.572 5h-2.239a9.998 9.998 0 00-10 10v1.667C.333 24.03 6.303 30 13.667 30h6.666c7.364 0 13.334-5.97 13.334-13.333v-2.12A15 15 0 0029.273 3.94L26.51 1.177A4.017 4.017 0 0023.67 0zM7 14.167a2.5 2.5 0 005 0 2.5 2.5 0 00-5 0zm15 0a2.5 2.5 0 005 0 2.5 2.5 0 00-5 0zm-3.333 6.666a2.5 2.5 0 005 0 2.5 2.5 0 00-5 0zm-5.834 2.5a2.5 2.5 0 010-5 2.5 2.5 0 010 5zm11.32-19.8a.685.685 0 00-.483-.2h-.003v2.644a5.014 5.014 0 01-5.012 5.003 4.95 4.95 0 01-3.523-1.468l-.202-.202a3.314 3.314 0 00-2.358-.977h-2.239a6.71 6.71 0 00-4 1.334A6.7 6.7 0 003.667 15v1.667c0 5.515 4.485 10 10 10h6.666c5.515 0 10-4.485 10-10v-2.12a11.6 11.6 0 00-3.416-8.25l-2.764-2.764z" fill="#00A5A7"/></svg>
