<svg width="34" height="24" viewBox="0 0 34 24" fill="none" xmlns="http://www.w3.org/2000/svg"><path fill-rule="evenodd" clip-rule="evenodd" d="M23.667.333h-20A3.333 3.333 0 00.333 3.667v16.666a3.333 3.333 0 003.334 3.334h20A3.333 3.333 0 0027 20.333v-5l4.517 4.517c.31.308.729.481 1.166.483h.15c.46 0 .834-.373.834-.833v-15a.833.833 0 00-.834-.833h-.15a1.667 1.667 0 00-1.166.483L27 8.667v-5A3.333 3.333 0 0023.667.333zm0 3.334v16.666h-20V3.667h20zM7 9.3c0 .46.373.833.833.833H14.5c.46 0 .833-.373.833-.833V8.033A.833.833 0 0014.5 7.2H7.833A.833.833 0 007 8.033V9.3z" fill="#00A5A7"/></svg>
