<svg width="49" height="51" viewBox="0 0 49 51" fill="none" xmlns="http://www.w3.org/2000/svg"><path d="M20.805 36.172l6.73-.125c1.898 0 3.694-1.122 3.694-3.02s-1.796-3.011-3.694-3.011h-4.032s-5.93.125-7.349 1.176c0 0-7.976 4.863-8.831 5.757v10.533l16.706-.274a8.217 8.217 0 002.878-.573l18.831-7.537c2.251-.98 2.353-3.169 1.663-4.596-.784-1.624-2.541-2.157-4.384-1.412l-7.341 2.76-14.87.322z" stroke="#005B5C" stroke-width="3" stroke-miterlimit="10"/><path d="M22.985 24.094c6.654 0 12.048-5.393 12.048-12.047C35.033 5.394 29.639 0 22.985 0 16.332 0 10.94 5.394 10.94 12.047c0 6.654 5.393 12.047 12.046 12.047z" fill="#73CDCF"/><path d="M22.311 19.035v-1.694c-2.227-.36-3.247-2.008-3.357-3.31l2.18-.494c.079.918.714 1.741 2.071 1.741.792 0 1.357-.376 1.357-.996 0-.455-.345-.76-.98-.902l-1.412-.329c-1.773-.424-2.863-1.506-2.863-3.004 0-1.773 1.326-2.988 2.988-3.278V5.067h1.82v1.757c1.741.376 2.533 1.63 2.753 2.705l-2.196.589c-.094-.494-.361-1.31-1.616-1.31-.886 0-1.325.525-1.325 1.027 0 .424.313.761.933.902l1.372.298c2.118.47 2.957 1.71 2.957 3.13 0 1.459-1.043 2.815-2.878 3.145v1.725H22.31z" fill="#005B5C"/><path d="M5.99 48.949H3.48a1.332 1.332 0 01-1.334-1.333V36.533c0-.737.596-1.333 1.334-1.333h2.51c.737 0 1.333.596 1.333 1.333v11.075a1.334 1.334 0 01-1.334 1.341z" stroke="#005B5C" stroke-width="3" stroke-miterlimit="10"/></svg>
