<svg xmlns="http://www.w3.org/2000/svg" viewBox="0 0 494 684"><defs><style>.cls-1{fill:#e1ecd3;}.cls-12,.cls-2{fill:#80b341;}.cls-2{opacity:0.22;}.cls-10,.cls-11,.cls-14,.cls-16,.cls-3,.cls-4,.cls-7,.cls-8,.cls-9{fill:none;}.cls-16,.cls-3,.cls-4{stroke:#e1ecd3;}.cls-10,.cls-13,.cls-14,.cls-15,.cls-16,.cls-3,.cls-4,.cls-5,.cls-6,.cls-7,.cls-8,.cls-9{stroke-linecap:round;}.cls-10,.cls-11,.cls-14,.cls-15,.cls-16,.cls-3,.cls-4,.cls-7,.cls-8{stroke-miterlimit:10;}.cls-10,.cls-11,.cls-13,.cls-3,.cls-9{stroke-width:3.32px;}.cls-4{stroke-width:5px;}.cls-13,.cls-15,.cls-5,.cls-6{fill:#fff;}.cls-10,.cls-11,.cls-13,.cls-14,.cls-15,.cls-5,.cls-6,.cls-7,.cls-8,.cls-9{stroke:#80b341;}.cls-13,.cls-5,.cls-6,.cls-9{stroke-linejoin:round;}.cls-15,.cls-5{stroke-width:4.15px;}.cls-6{stroke-width:4.98px;}.cls-7{stroke-width:5.81px;}.cls-8{stroke-width:2.49px;}.cls-14{stroke-width:4.16px;}.cls-16{stroke-width:9.12px;} #stars{opacity:0;animation:stars__fadeIn 1s forwards;animation-delay:2.5s}@keyframes stars__fadeIn{to{opacity:1}}.moon__moon{stroke-dasharray:650;stroke-dashoffset:625;animation:moon__drawIn 2s forwards;animation-delay:1s}@keyframes moon__drawIn{to{stroke-dasharray:800;stroke-dashoffset:0}}#spaceMan{animation:spaceMan__floatDown 2s forwards;animation-delay:.75s;opacity:0}#flag{animation:spaceMan__floatDown 2s forwards;opacity:0;animation-delay:.75s}@keyframes spaceMan__floatDown{0%{transform:translateY(-50px);opacity:0}33%{transform:translateY(-37.5px) rotate(2deg);opacity:0}66%{transform:translateY(0px) rotate(-2deg);opacity:1}100%{transform:translateY(0) rotate(0);opacity:1}}.spaceMan__helmet{animation:spaceMan__helmetBob .5s forwards;animation-delay:2.4s}.spaceMan__backpack{animation:spaceMan__helmetBob .5s forwards;animation-delay:2.5s}@keyframes spaceMan__helmetBob{0%{transform:translateY(0px)}50%{transform:translateY(1px)}100%{transform:translateY(0px)}}#nonExclusiveTower{animation:nonExclusiveTower__fadeInUp 1.5s forwards;stroke-dasharray:500;stroke-dashoffset:300}@keyframes nonExclusiveTower__fadeInUp{to{stroke-dasharray:1100;stroke-dashoffset:0}}#exclusiveTower{animation:exclusiveTower__fadeInUp 1.5s forwards;stroke-dasharray:400;stroke-dashoffset:135}@keyframes exclusiveTower__fadeInUp{to{stroke-dasharray:710;stroke-dashoffset:0}}#nonExclusive-Text{opacity:0;animation:textFadeIn 1s forwards;animation-delay:1s}#exclusiveText{opacity:0;animation:textFadeIn 1s forwards;animation-delay:1s}@keyframes textFadeIn{to{opacity:1}}.flag__face{animation:flagFace__wave 2s infinite}@keyframes flagFace__wave{0%{transform:translateX(0px)}35%{transform:translateX(2px)}100%{transform:translateX(0px)}}.flag__back{animation:flagBack__wave 2s infinite}@keyframes flagBack__wave{0%{transform:translateX(0px)}35%{transform:translateX(-1px)}100%{transform:translateX(0px)}}.moonCheese__top{animation:moonCheese__fadeIn .75s forwards;animation-delay:1s;opacity:0!important}.moonCheese__middle{animation:moonCheese__fadeIn .75s forwards;animation-delay:.75s;opacity:0!important}.moonCheese__bottom{animation:moonCheese__fadeIn .75s forwards;animation-delay:.5s;opacity:0!important}@keyframes moonCheese__fadeIn{to{opacity:.22}}</style></defs><title>astronaut</title><g id="stars"><path class="cls-1" d="M449.72 97.69h-2.45v-2.44a1.69 1.69 0 0 0-3.39 0v2.45h-2.45a1.69 1.69 0 1 0 0 3.39h2.45v2.45a1.69 1.69 0 0 0 1.69 1.69 1.71 1.71 0 0 0 1.69-1.69v-2.45h2.45a1.71 1.71 0 0 0 1.69-1.69 1.69 1.69 0 0 0-1.68-1.71zM113.11 112.21h-2.45v-2.45a1.69 1.69 0 0 0-3.39 0v2.45h-2.45a1.69 1.69 0 1 0 0 3.39h2.45v2.4a1.69 1.69 0 0 0 1.69 1.69 1.71 1.71 0 0 0 1.69-1.69v-2.4h2.45a1.71 1.71 0 0 0 1.69-1.69 1.69 1.69 0 0 0-1.68-1.7zM429.45 262h-2.45v-2.45a1.69 1.69 0 0 0-3.39 0v2.45h-2.45a1.69 1.69 0 1 0 0 3.39h2.45v2.45a1.69 1.69 0 0 0 1.69 1.69 1.71 1.71 0 0 0 1.7-1.73v-2.45h2.45a1.71 1.71 0 0 0 1.69-1.69 1.69 1.69 0 0 0-1.69-1.66zM163.25 399.57h-2.45v-2.45a1.69 1.69 0 0 0-3.39 0v2.45h-2.41a1.69 1.69 0 1 0 0 3.39h2.45v2.45a1.69 1.69 0 0 0 1.69 1.69 1.71 1.71 0 0 0 1.69-1.69v-2.41h2.45a1.71 1.71 0 0 0 1.69-1.69 1.69 1.69 0 0 0-1.72-1.74zM47.65 485h-3.82v-3.82a2.65 2.65 0 0 0-5.29 0v3.82h-3.82a2.65 2.65 0 1 0 0 5.29h3.82v3.82a2.64 2.64 0 0 0 2.65 2.65 2.68 2.68 0 0 0 2.65-2.65v-3.82h3.82a2.68 2.68 0 0 0 2.65-2.65 2.64 2.64 0 0 0-2.66-2.64z"/></g><g id="moonCheese"><circle class="cls-2 moonCheese__top" cx="283.86" cy="444.33" r="16.96"/><circle class="cls-2 moonCheese__middle" cx="322.13" cy="526.77" r="13.49"/><circle class="cls-2 moonCheese__bottom" cx="304.52" cy="569.86" r="5.95"/></g><g id="moon"><circle class="cls-3" cx="380.52" cy="129.97" r="10.23"/><circle class="cls-3" cx="407.71" cy="169.07" r="16.96"/><path class="cls-4 moon__moon" d="M168.58 356.86a179 179 0 1 1 277.42-82.86"/></g><g id="flag"><g id="flag-flag"><path class="cls-5 flag__back" d="M238.99 199.03h-58.67v-66.59h58.67v66.59z"/><path class="cls-6" d="M181.11 133.73l24.68 9.23"/><path class="cls-2" d="M238.99 200.37h-58.67v-66.59h58.67v66.59z"/><path class="cls-5 flag__face" d="M204.84 209h-75.18a2.78 2.78 0 0 1-2.33-4.29l17.86-27.49a2.78 2.78 0 0 0 0-3l-17.86-27.49a2.78 2.78 0 0 1 2.33-4.29h75.17a2.78 2.78 0 0 1 2.78 2.78v61a2.78 2.78 0 0 1-2.77 2.78z"/></g><path class="cls-7" d="M238.59 130.91v162.97" id="flagPole"/></g><g id="spaceMan"><rect class="cls-8" x="295.07" y="189.17" width="28.77" height="34.79" rx="2.73" ry="2.73"/><path class="cls-9" d="M358.84 244.23h-3.92a15.31 15.31 0 0 1-13.6 13.6v36.89h-64.09v-79.27l-7.85 7.32h-28.73"/><path class="cls-10" d="M237.77 202.11l18.8-3.14 8.63-17.26"/><g class="spaceMan__helmet"><path class="cls-11" d="M310.29 99.39c-21.44 0-38.82 17.09-38.82 37.95s17.38 37.95 38.82 37.95 38.82-17.09 38.82-37.95-17.38-37.95-38.82-37.95z"/><path class="cls-12" d="M337.9 123.56l-.54-.54-.27-.27c-1.88-1.61-9.14-7.26-26.88-7.26h-.81c-3.49 0-21.77.27-26.61 7.79-1.34 1.61-3.49 5.64-3.49 13.17 0 17.2 14 31.45 30.91 31.45 17.2 0 30.91-14 30.91-31.45.54-7.52-1.61-11.28-3.22-12.89z"/></g><path class="cls-10" d="M341.32 257.83v-44.86M309.46 293.86v-44.86"/><path class="cls-11" d="M354.92 244.23h-13.03"/><path class="cls-10" d="M265.24 182s4.91-16.32 18.62-16.82"/><path class="cls-11" d="M277.23 286.79h64.09M309.27 286.26a16 16 0 1 0-32 0M341.32 286.26a16 16 0 1 0-32 0"/><path class="cls-8" d="M302.67 195.98h13.57M302.67 201.76h13.57M302.67 207.53h13.57"/><circle class="cls-12" cx="309.49" cy="215.45" r="2.68"/><rect class="cls-2" x="298.92" y="193.22" width="28.77" height="34.79" rx="2.73" ry="2.73"/><path class="cls-10" d="M337.53 165c21.76 0 21.76 26.23 21.76 31.47v47.53"/><g class="spaceMan__backpack"><path class="cls-10" d="M348.74 143c4 0 6.48 3.29 6.48 7.31v25.39M264.75 182v-31.7c0-4 2-7.31 6.06-7.31"/></g><path class="cls-2" d="M310.82 100a39.71 39.71 0 0 0-6.3.51c18.48 2.96 32.48 18.68 32.48 37.49s-14 34.44-32.48 37.39a39.73 39.73 0 0 0 6.3.51c21.44 0 38.82-17.09 38.82-37.95s-17.39-37.95-38.82-37.95z"/><circle class="cls-13" cx="238.04" cy="212.12" r="10.46"/><path class="cls-2" d="M331.53 169.07s20.47 6.35 20.47 26.93v48.24h6.86v-52.33s-1.67-28.94-22.19-26.76z"/></g><rect class="cls-14" x="192.15" y="294.71" width="166.52" height="354.29" rx="8.83" ry="8.83" id="nonExclusiveTower"/><path class="cls-15" d="M83.61 451.34h139.32a13.6 13.6 0 0 1 13.6 13.6v181.82a.16.16 0 0 1-.16.16h-166.2a.16.16 0 0 1-.16-.16v-181.82a13.6 13.6 0 0 1 13.6-13.6z" id="exclusiveTower"/><g id="nonExclusive-Text"><path class="cls-12" d="M110.72 506.47a3.07 3.07 0 0 0-.65-2.08 6.52 6.52 0 0 0-2.3-1.46 20 20 0 0 1-5.84-3.24 6.15 6.15 0 0 1-1.83-4.82 6.28 6.28 0 0 1 1.94-4.74 8.35 8.35 0 0 1 5.17-2.17v-3.59h2.7v3.63a7.3 7.3 0 0 1 6.58 7.81v.08h-5.63a4.44 4.44 0 0 0-.71-2.76 2.3 2.3 0 0 0-1.91-.91 2.12 2.12 0 0 0-1.79.75 3 3 0 0 0-.58 1.91 2.84 2.84 0 0 0 .62 1.9 6.59 6.59 0 0 0 2.32 1.48 21.27 21.27 0 0 1 5.8 3.36 6.12 6.12 0 0 1 1.85 4.79 6.33 6.33 0 0 1-1.86 4.76 8.15 8.15 0 0 1-5 2.12v3.42h-2.7v-3.44a9.24 9.24 0 0 1-5.48-2.3 7.27 7.27 0 0 1-2.11-5.81l.05-.1h5.6a4.2 4.2 0 0 0 .92 3 3.21 3.21 0 0 0 2.38.93 2.34 2.34 0 0 0 1.85-.71 2.73 2.73 0 0 0 .61-1.81zM124.72 498.26h2.7a3.23 3.23 0 0 0 2.38-.83 3.13 3.13 0 0 0 .83-2.31 2.78 2.78 0 0 0-.75-2 2.84 2.84 0 0 0-2.18-.8 3.17 3.17 0 0 0-2 .65 2 2 0 0 0-.85 1.67h-5.58v-.1a5.48 5.48 0 0 1 2.33-4.8 9.51 9.51 0 0 1 5.9-1.84 10.35 10.35 0 0 1 6.45 1.85 6.2 6.2 0 0 1 2.42 5.23 5.13 5.13 0 0 1-1 3.11 7 7 0 0 1-2.8 2.22 6.67 6.67 0 0 1 3.11 2.22 5.75 5.75 0 0 1 1.12 3.56 6.32 6.32 0 0 1-2.6 5.35 10.8 10.8 0 0 1-6.65 1.95 10.36 10.36 0 0 1-6.1-1.83 5.87 5.87 0 0 1-2.53-5.3v-.1h5.61a2.55 2.55 0 0 0 .93 2 3.31 3.31 0 0 0 2.25.81 3.37 3.37 0 0 0 2.42-.85 2.82 2.82 0 0 0 .87-2.12 3.31 3.31 0 0 0-.94-2.63 3.91 3.91 0 0 0-2.66-.83h-2.7zM145.25 513.17l-2.77 5.41h-3.38l1.19-5.56v-4.3h5zM159 487.91a12.27 12.27 0 0 1 2.6.25 16.27 16.27 0 0 1 2.52.79l-1 4.18q-1.19-.36-2.08-.54a10.52 10.52 0 0 0-2-.18 4.1 4.1 0 0 0-3.27 1.44 6.09 6.09 0 0 0-1.18 4.19l.05.08a5 5 0 0 1 2-1.33 7.86 7.86 0 0 1 2.82-.48 6.15 6.15 0 0 1 5.16 2.39 9.71 9.71 0 0 1 1.85 6.12 8.29 8.29 0 0 1-2.44 6.11 8.44 8.44 0 0 1-6.23 2.44 8.58 8.58 0 0 1-6.57-2.67 10.28 10.28 0 0 1-2.5-7.31v-5a9.79 9.79 0 0 1 10.27-10.48zm-1.14 12.84a5.84 5.84 0 0 0-2 .32 3.22 3.22 0 0 0-1.35.9v1.46a7.92 7.92 0 0 0 .88 4.11 2.72 2.72 0 0 0 2.44 1.43 2.45 2.45 0 0 0 2.11-1.22 5.79 5.79 0 0 0 0-5.88 2.41 2.41 0 0 0-2.03-1.11zM186.23 503.26q0 5-2.33 7.58a9 9 0 0 1-12.59 0q-2.33-2.56-2.33-7.58v-5.21q0-5 2.31-7.58a9 9 0 0 1 12.6 0q2.34 2.57 2.34 7.57zm-5.73-5.6a8.3 8.3 0 0 0-.75-4.08 2.38 2.38 0 0 0-2.16-1.24 2.34 2.34 0 0 0-2.15 1.24 8.54 8.54 0 0 0-.72 4.08v6a8.53 8.53 0 0 0 .73 4.12 2.38 2.38 0 0 0 2.18 1.23 2.35 2.35 0 0 0 2.14-1.23 8.53 8.53 0 0 0 .73-4.12zM206.4 503.26q0 5-2.33 7.58a9 9 0 0 1-12.59 0q-2.33-2.56-2.33-7.58v-5.21q0-5 2.31-7.58a9 9 0 0 1 12.6 0q2.34 2.57 2.34 7.57zm-5.73-5.6a8.3 8.3 0 0 0-.75-4.08 2.38 2.38 0 0 0-2.16-1.24 2.34 2.34 0 0 0-2.15 1.24 8.54 8.54 0 0 0-.72 4.08v6a8.53 8.53 0 0 0 .73 4.12 2.38 2.38 0 0 0 2.18 1.22 2.35 2.35 0 0 0 2.14-1.23 8.53 8.53 0 0 0 .73-4.12zM96 530.42l.13 1.45a3.61 3.61 0 0 1 1.24-1.21 3.33 3.33 0 0 1 1.69-.43 3.18 3.18 0 0 1 2.45 1 4.28 4.28 0 0 1 .88 3v6.33h-2.26v-6.31a2.27 2.27 0 0 0-.47-1.62 1.93 1.93 0 0 0-1.43-.48 2.37 2.37 0 0 0-1.18.29 2.46 2.46 0 0 0-.86.8v7.31h-2.19v-10.13zM104.38 535.37a5.49 5.49 0 0 1 1.23-3.69 4.7 4.7 0 0 1 6.78 0 5.44 5.44 0 0 1 1.24 3.69v.2a5.47 5.47 0 0 1-1.24 3.71 4.74 4.74 0 0 1-6.78 0 5.49 5.49 0 0 1-1.23-3.7zm2.26.19a4.49 4.49 0 0 0 .58 2.4 2.18 2.18 0 0 0 3.56 0 4.38 4.38 0 0 0 .6-2.4v-.2a4.32 4.32 0 0 0-.6-2.37 2.15 2.15 0 0 0-3.56 0 4.45 4.45 0 0 0-.58 2.37zM117.65 530.42l.13 1.45a3.61 3.61 0 0 1 1.24-1.21 3.33 3.33 0 0 1 1.69-.43 3.18 3.18 0 0 1 2.45 1 4.28 4.28 0 0 1 .88 3v6.33h-2.26v-6.31a2.27 2.27 0 0 0-.47-1.62 1.93 1.93 0 0 0-1.43-.48 2.37 2.37 0 0 0-1.18.29 2.46 2.46 0 0 0-.86.8v7.31h-2.26v-10.13zM130.77 535.64h-4.89v-1.82h4.89zM137 540.7a4.38 4.38 0 0 1-3.41-1.4 5.16 5.16 0 0 1-1.27-3.6v-.37a5.35 5.35 0 0 1 1.26-3.65 4 4 0 0 1 3.16-1.44 3.93 3.93 0 0 1 3.13 1.23 4.83 4.83 0 0 1 1.09 3.31v1.33h-6.29a3.16 3.16 0 0 0 .7 2 2.23 2.23 0 0 0 1.79.76 4.86 4.86 0 0 0 1.56-.22 5.12 5.12 0 0 0 1.28-.65l.73 1.48a4.69 4.69 0 0 1-1.51.85 6.3 6.3 0 0 1-2.22.37zm-.26-8.64a1.69 1.69 0 0 0-1.38.67 3.28 3.28 0 0 0-.67 1.69h4v-.23a2.41 2.41 0 0 0-.49-1.56 1.78 1.78 0 0 0-1.47-.58zM146.38 533.88l1.86-3.46h2.6l-3.17 5 3.26 5.09h-2.57l-1.95-3.51-1.95 3.54h-2.59l3.26-5.09-3.17-5h2.57zM156.4 538.88a2.07 2.07 0 0 0 1.4-.49 1.53 1.53 0 0 0 .57-1.22h2v.05a3 3 0 0 1-1.15 2.44 4.28 4.28 0 0 1-2.88 1 4.18 4.18 0 0 1-3.41-1.43 5.51 5.51 0 0 1-1.19-3.63v-.33a5.52 5.52 0 0 1 1.19-3.63 4.71 4.71 0 0 1 6.36-.38 3.4 3.4 0 0 1 1.09 2.69v.05h-2.06a2 2 0 0 0-.54-1.41 1.86 1.86 0 0 0-1.42-.58 1.91 1.91 0 0 0-1.81.93 4.61 4.61 0 0 0-.53 2.32v.33a4.61 4.61 0 0 0 .53 2.34 1.92 1.92 0 0 0 1.85.95zM164.66 540.5h-2.26v-14.5h2.26zM173.47 539a3.46 3.46 0 0 1-1.2 1.23 3.57 3.57 0 0 1-4.21-.6 4.76 4.76 0 0 1-.91-3.21v-6h2.25v6a3 3 0 0 0 .43 1.85 1.57 1.57 0 0 0 1.29.53 2.92 2.92 0 0 0 1.37-.29 2.14 2.14 0 0 0 .87-.85v-7.29h2.26v10.13h-2zM183.66 537.76a1 1 0 0 0-.45-.87 4.45 4.45 0 0 0-1.67-.61 6.94 6.94 0 0 1-2.73-1.09 2.27 2.27 0 0 1-.93-1.91 2.73 2.73 0 0 1 1.07-2.16 4.26 4.26 0 0 1 2.82-.89 4.42 4.42 0 0 1 2.93.91 2.69 2.69 0 0 1 1 2.25v.06h-2.17a1.42 1.42 0 0 0-.47-1.07 1.82 1.82 0 0 0-1.3-.45 1.86 1.86 0 0 0-1.25.37 1.14 1.14 0 0 0-.43.9 1 1 0 0 0 .41.84 4.38 4.38 0 0 0 1.64.55 6.92 6.92 0 0 1 2.82 1.1 2.33 2.33 0 0 1 .92 1.94 2.64 2.64 0 0 1-1.12 2.21 4.78 4.78 0 0 1-3 .85 4.51 4.51 0 0 1-3.1-1 2.84 2.84 0 0 1-1.08-2.31v-.06h2.1a1.51 1.51 0 0 0 .63 1.28 2.54 2.54 0 0 0 1.45.4 2.33 2.33 0 0 0 1.35-.33 1.05 1.05 0 0 0 .56-.91zM190.33 528h-2.26v-2h2.26zm0 12.55h-2.26v-10.13h2.26zM196.37 537.09l.17.82h.06l.18-.82 2-6.67h2.34l-3.58 10.08h-2l-3.54-10.08h2.34zM206.73 540.7a4.38 4.38 0 0 1-3.41-1.4 5.16 5.16 0 0 1-1.27-3.6v-.37a5.35 5.35 0 0 1 1.26-3.65 4 4 0 0 1 3.16-1.44 3.93 3.93 0 0 1 3.13 1.23 4.83 4.83 0 0 1 1.09 3.31v1.33h-6.29a3.16 3.16 0 0 0 .7 2 2.23 2.23 0 0 0 1.79.76 4.86 4.86 0 0 0 1.56-.22 5.12 5.12 0 0 0 1.26-.64l.73 1.48a4.69 4.69 0 0 1-1.51.85 6.3 6.3 0 0 1-2.2.36zm-.26-8.64a1.69 1.69 0 0 0-1.38.67 3.28 3.28 0 0 0-.67 1.69h4v-.23a2.41 2.41 0 0 0-.49-1.56 1.78 1.78 0 0 0-1.46-.58zM120.39 563.59a4.38 4.38 0 0 1-3.41-1.4 5.15 5.15 0 0 1-1.27-3.6v-.37a5.35 5.35 0 0 1 1.26-3.65 4 4 0 0 1 3.16-1.44 3.94 3.94 0 0 1 3.13 1.23 4.84 4.84 0 0 1 1.09 3.31v1.33h-6.29a3.16 3.16 0 0 0 .7 2 2.23 2.23 0 0 0 1.79.76 4.81 4.81 0 0 0 1.56-.22 5.12 5.12 0 0 0 1.26-.64l.73 1.48a4.7 4.7 0 0 1-1.51.85 6.3 6.3 0 0 1-2.2.36zm-.26-8.64a1.7 1.7 0 0 0-1.38.67 3.28 3.28 0 0 0-.67 1.69h4v-.23a2.42 2.42 0 0 0-.49-1.56 1.79 1.79 0 0 0-1.46-.57zM132.23 563.39c-.08-.26-.15-.5-.2-.75a5.32 5.32 0 0 1-.11-.73 4 4 0 0 1-1.22 1.19 3.11 3.11 0 0 1-1.7.48 3.35 3.35 0 0 1-2.42-.81 3 3 0 0 1-.84-2.23 2.63 2.63 0 0 1 1.16-2.28 5.58 5.58 0 0 1 3.25-.81h1.76v-.88a1.64 1.64 0 0 0-.47-1.24 1.85 1.85 0 0 0-1.33-.45 1.89 1.89 0 0 0-1.23.37 1.18 1.18 0 0 0-.46 1h-2.18v-.06a2.5 2.5 0 0 1 1.07-2.12 4.53 4.53 0 0 1 2.95-.92 4.32 4.32 0 0 1 2.84.89 3.15 3.15 0 0 1 1.08 2.57v4.48a8.29 8.29 0 0 0 .08 1.2 6.4 6.4 0 0 0 .27 1.12zm-2.78-1.62a2.85 2.85 0 0 0 1.54-.43 2.17 2.17 0 0 0 .91-1v-1.49h-1.8a2.27 2.27 0 0 0-1.55.49 1.48 1.48 0 0 0-.56 1.15 1.17 1.17 0 0 0 .38.92 1.55 1.55 0 0 0 1.08.36zM141.56 555.36h-1a2 2 0 0 0-1.1.28 1.84 1.84 0 0 0-.69.79v7h-2.26v-10.11h2.07l.15 1.46a3.23 3.23 0 0 1 1-1.21 2.29 2.29 0 0 1 1.38-.44 2.14 2.14 0 0 1 .38 0l.33.08zM145.19 553.32l.13 1.45a3.61 3.61 0 0 1 1.24-1.21 3.32 3.32 0 0 1 1.69-.43 3.17 3.17 0 0 1 2.45 1 4.28 4.28 0 0 1 .88 3v6.33h-2.26v-6.32a2.26 2.26 0 0 0-.47-1.62 1.92 1.92 0 0 0-1.43-.48 2.37 2.37 0 0 0-1.18.29 2.46 2.46 0 0 0-.86.81v7.31h-2.26v-10.13zM156.36 550.85h-2.26v-2h2.26zm0 12.55h-2.26v-10.08h2.26zM160.95 553.32l.13 1.45a3.61 3.61 0 0 1 1.24-1.21 3.32 3.32 0 0 1 1.69-.43 3.17 3.17 0 0 1 2.45 1 4.28 4.28 0 0 1 .88 3v6.33h-2.26v-6.32a2.26 2.26 0 0 0-.47-1.62 1.92 1.92 0 0 0-1.43-.48 2.37 2.37 0 0 0-1.18.29 2.46 2.46 0 0 0-.86.81v7.31h-2.26v-10.13zM169.29 558.49a6.57 6.57 0 0 1 1.05-3.88 3.39 3.39 0 0 1 2.92-1.48 3.17 3.17 0 0 1 1.59.39 3.36 3.36 0 0 1 1.16 1.11l.22-1.31h1.88v10.08a3.8 3.8 0 0 1-1.2 3 5 5 0 0 1-3.41 1.06 6.72 6.72 0 0 1-1.59-.21 7.5 7.5 0 0 1-1.54-.55l.48-1.78a5.47 5.47 0 0 0 1.23.45 5.88 5.88 0 0 0 1.39.16 2.58 2.58 0 0 0 1.8-.53 2.1 2.1 0 0 0 .57-1.62v-1a3.15 3.15 0 0 1-1.12.92 3.37 3.37 0 0 1-1.49.31 3.48 3.48 0 0 1-2.91-1.35 5.61 5.61 0 0 1-1.05-3.55zm2.26.2a4 4 0 0 0 .55 2.22 1.92 1.92 0 0 0 1.72.83 2.32 2.32 0 0 0 1.22-.3 2.24 2.24 0 0 0 .81-.87v-4.42a2.43 2.43 0 0 0-.81-.86 2.22 2.22 0 0 0-1.2-.31 1.86 1.86 0 0 0-1.73 1 5 5 0 0 0-.56 2.53zM186.17 560.66a1.06 1.06 0 0 0-.45-.87 4.48 4.48 0 0 0-1.67-.61 6.88 6.88 0 0 1-2.73-1.09 2.27 2.27 0 0 1-.93-1.91 2.72 2.72 0 0 1 1.07-2.16 4.26 4.26 0 0 1 2.82-.89 4.42 4.42 0 0 1 2.93.91 2.69 2.69 0 0 1 1 2.25v.06h-2.17a1.42 1.42 0 0 0-.47-1.07 1.82 1.82 0 0 0-1.3-.45 1.86 1.86 0 0 0-1.25.37 1.14 1.14 0 0 0-.43.9 1 1 0 0 0 .41.84 4.34 4.34 0 0 0 1.64.55 7 7 0 0 1 2.82 1.1 2.33 2.33 0 0 1 .92 1.94 2.64 2.64 0 0 1-1.12 2.21 4.79 4.79 0 0 1-3 .85 4.52 4.52 0 0 1-3.1-1 2.84 2.84 0 0 1-1.08-2.31v-.06h2.1a1.51 1.51 0 0 0 .63 1.28 2.54 2.54 0 0 0 1.45.4 2.31 2.31 0 0 0 1.35-.34 1 1 0 0 0 .56-.9z"/></g><g id="exclusiveText"><path class="cls-12" d="M232.78 350.8a3.07 3.07 0 0 0-.65-2.08 6.55 6.55 0 0 0-2.3-1.45 20.1 20.1 0 0 1-5.83-3.27 6.15 6.15 0 0 1-1.83-4.82 6.29 6.29 0 0 1 1.94-4.74 8.35 8.35 0 0 1 5.17-2.17v-3.59h2.72v3.66a7.3 7.3 0 0 1 6.58 7.81v.09h-5.68a4.45 4.45 0 0 0-.71-2.77 2.3 2.3 0 0 0-1.91-.91 2.11 2.11 0 0 0-1.79.75 3 3 0 0 0-.58 1.9 2.84 2.84 0 0 0 .62 1.91 6.59 6.59 0 0 0 2.32 1.48 21.32 21.32 0 0 1 5.8 3.36 6.12 6.12 0 0 1 1.85 4.79 6.32 6.32 0 0 1-1.86 4.76 8.16 8.16 0 0 1-5 2.13v3.42h-2.7v-3.44a9.23 9.23 0 0 1-5.48-2.3 7.27 7.27 0 0 1-2.11-5.81l.05-.1h5.6a4.2 4.2 0 0 0 .92 3 3.2 3.2 0 0 0 2.38.93 2.34 2.34 0 0 0 1.85-.71 2.73 2.73 0 0 0 .63-1.83zM258.77 337a25.74 25.74 0 0 0-5.12 8.27 42.62 42.62 0 0 0-2 9.68l-.24 2.4h-5.75l.22-2.4a35.43 35.43 0 0 1 2.33-9.85 26.84 26.84 0 0 1 5-8.1h-12.3v-4.4h17.86zM267.31 357.5l-2.77 5.41h-3.38l1.19-5.56v-4.35h5zM288.11 347.59q0 5-2.33 7.58a9 9 0 0 1-12.59 0q-2.33-2.56-2.33-7.58v-5.21q0-5 2.31-7.58a9 9 0 0 1 12.6 0q2.34 2.57 2.34 7.57zm-5.73-5.6a8.3 8.3 0 0 0-.75-4.08 2.38 2.38 0 0 0-2.16-1.24 2.34 2.34 0 0 0-2.15 1.24 8.55 8.55 0 0 0-.72 4.08v6a8.55 8.55 0 0 0 .73 4.13 2.37 2.37 0 0 0 2.18 1.23 2.35 2.35 0 0 0 2.14-1.23 8.55 8.55 0 0 0 .73-4.12zM308.28 347.59q0 5-2.33 7.58a9 9 0 0 1-12.59 0q-2.33-2.56-2.33-7.58v-5.21q0-5 2.31-7.58a9 9 0 0 1 12.6 0q2.34 2.57 2.34 7.57zm-5.73-5.6a8.29 8.29 0 0 0-.75-4.08 2.38 2.38 0 0 0-2.16-1.24 2.34 2.34 0 0 0-2.15 1.24 8.53 8.53 0 0 0-.72 4.08v6a8.55 8.55 0 0 0 .73 4.13 2.37 2.37 0 0 0 2.18 1.23 2.34 2.34 0 0 0 2.14-1.23 8.54 8.54 0 0 0 .73-4.12zM328.46 347.59q0 5-2.33 7.58a9 9 0 0 1-12.59 0q-2.33-2.56-2.33-7.58v-5.21q0-5 2.31-7.58a9 9 0 0 1 12.6 0q2.34 2.57 2.34 7.57zm-5.73-5.6a8.29 8.29 0 0 0-.75-4.08 2.38 2.38 0 0 0-2.16-1.24 2.34 2.34 0 0 0-2.15 1.24 8.54 8.54 0 0 0-.72 4.08v6a8.54 8.54 0 0 0 .73 4.13 2.37 2.37 0 0 0 2.18 1.23 2.35 2.35 0 0 0 2.14-1.23 8.55 8.55 0 0 0 .73-4.12zM241.53 385a4.6 4.6 0 0 1-3.58-1.47 5.4 5.4 0 0 1-1.33-3.78v-.39a5.61 5.61 0 0 1 1.32-3.82 4.18 4.18 0 0 1 3.32-1.51 4.13 4.13 0 0 1 3.28 1.29 5.07 5.07 0 0 1 1.14 3.47v1.4h-6.59a3.31 3.31 0 0 0 .74 2.05 2.34 2.34 0 0 0 1.88.8 5.08 5.08 0 0 0 1.64-.23 5.38 5.38 0 0 0 1.32-.67l.76 1.56a4.9 4.9 0 0 1-1.58.89 6.6 6.6 0 0 1-2.32.41zm-.27-9.06a1.78 1.78 0 0 0-1.45.7 3.44 3.44 0 0 0-.7 1.77h4.19v-.24a2.53 2.53 0 0 0-.51-1.64 1.88 1.88 0 0 0-1.54-.53zM251.37 377.89l2-3.62h2.63l-3.32 5.22 3.42 5.34h-2.7l-2-3.71-2 3.71h-2.71l3.42-5.34-3.32-5.22h2.7zM261.88 383.13a2.17 2.17 0 0 0 1.46-.51 1.61 1.61 0 0 0 .6-1.28h2.15v.06a3.12 3.12 0 0 1-1.19 2.6 4.49 4.49 0 0 1-3 1.07 4.38 4.38 0 0 1-3.58-1.5 5.77 5.77 0 0 1-1.25-3.81v-.34a5.78 5.78 0 0 1 1.25-3.8 4.93 4.93 0 0 1 6.67-.4 3.57 3.57 0 0 1 1.15 2.82v.06h-2.16a2.07 2.07 0 0 0-.57-1.47 2 2 0 0 0-1.49-.61 2 2 0 0 0-1.89 1 4.83 4.83 0 0 0-.56 2.43v.34a4.83 4.83 0 0 0 .56 2.45 2 2 0 0 0 1.85.89zM270.54 384.83h-2.37v-15.23h2.37zM279.78 383.29a3.61 3.61 0 0 1-1.26 1.29 3.73 3.73 0 0 1-4.41-.63 5 5 0 0 1-1-3.37v-6.32h2.36v6.34a3.17 3.17 0 0 0 .45 1.94 1.64 1.64 0 0 0 1.36.56 3.06 3.06 0 0 0 1.44-.31 2.23 2.23 0 0 0 .91-.89v-7.64h2.37v10.57h-2zM290.46 382a1.11 1.11 0 0 0-.47-.91 4.71 4.71 0 0 0-1.75-.63 7.25 7.25 0 0 1-2.87-1.14 2.39 2.39 0 0 1-1-2 2.86 2.86 0 0 1 1.12-2.27 4.46 4.46 0 0 1 3-.94 4.64 4.64 0 0 1 3.07 1 2.81 2.81 0 0 1 1.09 2.36v.06h-2.28a1.49 1.49 0 0 0-.5-1.12 1.91 1.91 0 0 0-1.37-.47 2 2 0 0 0-1.31.39 1.2 1.2 0 0 0-.45.94 1.06 1.06 0 0 0 .42.88 4.57 4.57 0 0 0 1.72.58 7.26 7.26 0 0 1 3 1.16 2.44 2.44 0 0 1 1 2 2.77 2.77 0 0 1-1.18 2.31 5 5 0 0 1-3.1.89 4.73 4.73 0 0 1-3.25-1.05 3 3 0 0 1-1.13-2.42v-.06h2.21a1.58 1.58 0 0 0 .66 1.34 2.66 2.66 0 0 0 1.52.42 2.43 2.43 0 0 0 1.42-.35 1.1 1.1 0 0 0 .43-.97zM297.45 371.68h-2.37v-2.08h2.37zm0 13.15h-2.37v-10.56h2.37zM303.78 381.26l.18.86h.04l.19-.86 2.1-7h2.45l-3.74 10.57h-2.06l-3.77-10.57h2.45zM314.64 385a4.6 4.6 0 0 1-3.58-1.47 5.4 5.4 0 0 1-1.33-3.78v-.39a5.61 5.61 0 0 1 1.32-3.82 4.18 4.18 0 0 1 3.32-1.51 4.13 4.13 0 0 1 3.28 1.29 5.06 5.06 0 0 1 1.14 3.47v1.4h-6.59a3.31 3.31 0 0 0 .74 2.05 2.34 2.34 0 0 0 1.88.8 5.08 5.08 0 0 0 1.64-.23 5.4 5.4 0 0 0 1.32-.67l.76 1.56a4.89 4.89 0 0 1-1.58.89 6.6 6.6 0 0 1-2.32.41zm-.27-9.06a1.78 1.78 0 0 0-1.45.7 3.45 3.45 0 0 0-.7 1.77h4.19v-.24a2.53 2.53 0 0 0-.51-1.64 1.88 1.88 0 0 0-1.53-.53zM244.4 406a4.6 4.6 0 0 1-3.58-1.47 5.4 5.4 0 0 1-1.33-3.78v-.39a5.61 5.61 0 0 1 1.32-3.82 4.18 4.18 0 0 1 3.32-1.51 4.13 4.13 0 0 1 3.28 1.29 5.06 5.06 0 0 1 1.14 3.47v1.4h-6.59a3.31 3.31 0 0 0 .74 2.05 2.34 2.34 0 0 0 1.88.8 5.08 5.08 0 0 0 1.64-.23 5.39 5.39 0 0 0 1.32-.67l.76 1.56a4.89 4.89 0 0 1-1.58.89 6.6 6.6 0 0 1-2.32.41zm-.27-9.06a1.78 1.78 0 0 0-1.45.7 3.44 3.44 0 0 0-.7 1.77h4.19v-.24a2.53 2.53 0 0 0-.51-1.64 1.88 1.88 0 0 0-1.54-.53zM256.81 405.83c-.08-.27-.15-.53-.21-.78a5.53 5.53 0 0 1-.11-.76 4.2 4.2 0 0 1-1.28 1.25 3.27 3.27 0 0 1-1.78.5 3.51 3.51 0 0 1-2.53-.85 3.09 3.09 0 0 1-.88-2.33 2.76 2.76 0 0 1 1.21-2.39 5.84 5.84 0 0 1 3.41-.86h1.85v-.93a1.71 1.71 0 0 0-.49-1.3 1.94 1.94 0 0 0-1.4-.47 2 2 0 0 0-1.29.39 1.24 1.24 0 0 0-.48 1h-2.29v-.06a2.62 2.62 0 0 1 1.12-2.22 4.74 4.74 0 0 1 3.09-1 4.52 4.52 0 0 1 3 .94 3.3 3.3 0 0 1 1.13 2.7v4.7a8.66 8.66 0 0 0 .09 1.26 6.57 6.57 0 0 0 .28 1.18zm-2.91-1.7a3 3 0 0 0 1.62-.45 2.26 2.26 0 0 0 1-1v-1.58h-1.88a2.38 2.38 0 0 0-1.62.51 1.56 1.56 0 0 0-.59 1.21 1.23 1.23 0 0 0 .4 1 1.63 1.63 0 0 0 1.07.31zM266.59 397.41h-1a2.13 2.13 0 0 0-1.16.29 1.94 1.94 0 0 0-.72.83v7.34h-2.37v-10.6h2.17l.16 1.53a3.41 3.41 0 0 1 1-1.27 2.41 2.41 0 0 1 1.45-.46 2.15 2.15 0 0 1 .4 0l.34.08zM270.4 395.27l.14 1.52a3.79 3.79 0 0 1 1.3-1.26 3.48 3.48 0 0 1 1.77-.46 3.32 3.32 0 0 1 2.57 1 4.49 4.49 0 0 1 .92 3.12v6.64h-2.37v-6.62a2.37 2.37 0 0 0-.49-1.69 2 2 0 0 0-1.5-.5 2.49 2.49 0 0 0-1.24.31 2.56 2.56 0 0 0-.9.84v7.67h-2.37v-10.57zM282.11 392.68h-2.37v-2.08h2.37zm0 13.15h-2.37v-10.56h2.37zM286.92 395.27l.14 1.52a3.79 3.79 0 0 1 1.3-1.26 3.48 3.48 0 0 1 1.77-.46 3.32 3.32 0 0 1 2.57 1 4.49 4.49 0 0 1 .92 3.12v6.64h-2.37v-6.62a2.37 2.37 0 0 0-.49-1.69 2 2 0 0 0-1.5-.5 2.49 2.49 0 0 0-1.24.31 2.56 2.56 0 0 0-.9.84v7.67h-2.37v-10.57zM295.67 400.7a6.88 6.88 0 0 1 1.1-4.07 3.55 3.55 0 0 1 3.07-1.55 3.32 3.32 0 0 1 1.67.41 3.51 3.51 0 0 1 1.22 1.17l.23-1.38h2v10.57a4 4 0 0 1-1.26 3.15 5.22 5.22 0 0 1-3.57 1.11 7 7 0 0 1-1.67-.22 7.68 7.68 0 0 1-1.62-.58l.51-1.87a5.75 5.75 0 0 0 1.29.47 6.23 6.23 0 0 0 1.46.17 2.71 2.71 0 0 0 1.88-.55 2.21 2.21 0 0 0 .6-1.7v-1.08a3.33 3.33 0 0 1-1.18 1 3.56 3.56 0 0 1-1.56.33 3.65 3.65 0 0 1-3-1.42 5.88 5.88 0 0 1-1.1-3.72zm2.37.21a4.15 4.15 0 0 0 .58 2.33 2 2 0 0 0 1.8.87 2.44 2.44 0 0 0 1.28-.32 2.34 2.34 0 0 0 .84-.91v-4.63a2.52 2.52 0 0 0-.85-.9 2.31 2.31 0 0 0-1.25-.33 2 2 0 0 0-1.81 1 5.29 5.29 0 0 0-.59 2.66zM313.36 403a1.11 1.11 0 0 0-.47-.91 4.71 4.71 0 0 0-1.75-.63 7.25 7.25 0 0 1-2.87-1.14 2.39 2.39 0 0 1-1-2 2.86 2.86 0 0 1 1.12-2.27 4.46 4.46 0 0 1 3-.94 4.64 4.64 0 0 1 3.07 1 2.81 2.81 0 0 1 1.09 2.36v.06h-2.28a1.49 1.49 0 0 0-.5-1.12 1.91 1.91 0 0 0-1.37-.47 2 2 0 0 0-1.31.39 1.2 1.2 0 0 0-.45.94 1.06 1.06 0 0 0 .42.88 4.57 4.57 0 0 0 1.72.58 7.26 7.26 0 0 1 3 1.16 2.44 2.44 0 0 1 1 2 2.77 2.77 0 0 1-1.18 2.31 5 5 0 0 1-3.1.89 4.73 4.73 0 0 1-3.25-1.05 3 3 0 0 1-1.13-2.42v-.06h2.21a1.58 1.58 0 0 0 .66 1.34 2.66 2.66 0 0 0 1.52.42 2.43 2.43 0 0 0 1.42-.35 1.1 1.1 0 0 0 .43-.97z"/></g><path class="cls-16" d="M40.22 646.91h355.17" id="footer"/></svg>