<svg xmlns="http://www.w3.org/2000/svg" viewBox="0 0 735 595.3"><style>.st0{opacity:0.3;fill:none;stroke:#A5AAAF;stroke-width:2.9556;stroke-linecap:round;stroke-miterlimit:10;stroke-dasharray:1.4778,5.9112;} .st1{fill:#E1ECD3;} .st2{fill:none;stroke:#E1ECD3;stroke-width:2.2167;stroke-miterlimit:10;} .st3{opacity:0.22;fill:#80B341;} .st4{fill:none;stroke:#80B341;stroke-width:4;stroke-linecap:round;stroke-miterlimit:10;} .st5{fill:none;stroke:#80B341;stroke-width:4;stroke-linecap:round;stroke-miterlimit:10;stroke-dasharray:1.4778,5.9112;} .st6{fill:none;stroke:#80B341;stroke-width:4;stroke-linecap:round;stroke-linejoin:round;stroke-miterlimit:10;} .st7{fill:#E0EDD2;} .st8{fill:#FFFFFF;} .st9{fill:none;stroke:#80B341;stroke-width:3;stroke-linecap:round;stroke-linejoin:round;stroke-miterlimit:10;} .st10{fill:none;stroke:#80B341;stroke-width:3;stroke-linecap:round;stroke-miterlimit:10;} .st11{fill:none;stroke:#E0EDD2;stroke-width:3;stroke-linecap:round;stroke-miterlimit:10;} .st12{fill:#FFFFFF;stroke:#80B341;stroke-width:3;stroke-linecap:round;stroke-linejoin:round;stroke-miterlimit:10;} .st13{fill:#FFFFFF;stroke:#80B341;stroke-width:2;stroke-linecap:round;stroke-linejoin:round;stroke-miterlimit:10;} .st14{fill:#FFFFFF;stroke:#80B341;stroke-width:2.9578;stroke-linecap:round;stroke-linejoin:round;stroke-miterlimit:10;} .st15{fill:none;stroke:#80B341;stroke-width:2.9578;stroke-linecap:round;stroke-linejoin:round;stroke-miterlimit:10;} .st16{fill:none;stroke:#E0EDD2;stroke-width:5.1762;stroke-linecap:round;stroke-miterlimit:10;} .st17{fill:none;stroke:#80B341;stroke-width:1.7927;stroke-linecap:round;stroke-linejoin:round;stroke-miterlimit:10;} .st18{fill:#FFFFFF;stroke:#80B341;stroke-width:4;stroke-linecap:round;stroke-linejoin:round;stroke-miterlimit:10;} .st19{fill:none;stroke:#E0EDD2;stroke-width:1.4789;stroke-linecap:round;stroke-linejoin:round;stroke-miterlimit:10;} .st20{fill:#80B341;} .st21{opacity:0.5;} .st22{fill:#FFFFFF;stroke:#80B341;stroke-width:0.7395;stroke-linecap:round;stroke-linejoin:round;stroke-miterlimit:10;} .st23{fill-rule:evenodd;clip-rule:evenodd;fill:#80B341;} .st24{fill:none;stroke:#E1ECD3;stroke-width:1.4287;stroke-linecap:round;stroke-miterlimit:10;} .st25{fill:none;stroke:#81B441;stroke-width:3;stroke-linecap:round;stroke-miterlimit:10;} .st26{fill:none;stroke:#FFFFFF;stroke-width:1.4287;stroke-linecap:round;stroke-miterlimit:10;} .st27{fill:none;stroke:#80B341;stroke-width:2.143;stroke-linecap:round;stroke-linejoin:round;stroke-miterlimit:10;} .st28{fill:none;stroke:#80B341;stroke-width:2.2178;stroke-linecap:round;stroke-linejoin:round;stroke-miterlimit:10;} .st29{fill:none;stroke:#80B341;stroke-width:3.3267;stroke-linecap:round;stroke-miterlimit:10;} .st30{opacity:0.22;fill:none;stroke:#80B341;stroke-width:3;stroke-linecap:round;stroke-miterlimit:10;} .st31{fill:none;stroke:#80B341;stroke-width:3.0002;stroke-linecap:round;stroke-linejoin:round;stroke-miterlimit:10;} .st32{opacity:0.22;fill:none;stroke:#80B341;stroke-width:2.2501;stroke-linecap:round;stroke-miterlimit:10;} .st33{fill:#FFFFFF;stroke:#E0EDD2;stroke-width:3.5974;stroke-linecap:round;stroke-miterlimit:10;} .st34{opacity:0.22;} .st35{opacity:0.36;fill:#80B341;} .st36{opacity:0.98;fill:#FFFFFF;} .st37{opacity:0.22;fill:none;stroke:#80B341;stroke-width:3;stroke-linecap:round;stroke-miterlimit:10;stroke-dasharray:1.7109,6.8434;} /* Start Guy animation */ #mainGuy { animation: girl-drawIn 2s forwards; transform: translateY(80px); animation-delay: 0s; opacity: 0; } @keyframes girl-drawIn { to { transform: translateY(0px); opacity: 1; } } /* Draw in Circles */ #circlePart1 { stroke-dasharray: 500; animation: mainCircle-drawIn 2s forwards; animation-delay: 0.3s; opacity: 0; stroke-dashoffset: 500; } #circlePart2 { stroke-dasharray: 500; animation: mainCircle-drawIn 1.5s forwards; animation-delay: .8s; opacity: 0; stroke-dashoffset: 500; } #circlePart3 { animation: piece3-fadeIn 1s forwards; opacity: 0; animation-delay: 1.2s; } #circlePart4 { stroke-dasharray: 500; animation: mainCircle-drawIn 1s forwards; animation-delay: 1.4s; stroke-dashoffset: 500; } #circlePart5 { stroke-dasharray: 500; animation: mainCircle-drawIn 1s forwards; animation-delay: 1.6s; opacity: 0; stroke-dashoffset: 500; } #circlePiece6 { stroke-dasharray: 500; animation: mainCircle-drawIn 1s forwards; animation-delay: 1.8s; opacity: 0; stroke-dashoffset: 500; } @keyframes mainCircle-drawIn { to { stroke-dasharray: 1000; stroke-dashoffset: 500; opacity:1; } } @keyframes piece3-fadeIn { to { opacity: 1; } } /* End Draw in Circles */ /* Start Diamond animation */ .diamondRing { stroke-dasharray: 500; animation: diamondRing-drawIn .8s forwards; animation-delay: .5s; stroke-dashoffset: 500; opacity: 0; } @keyframes diamondRing-drawIn { to { stroke-dasharray: 1000; stroke-dashoffset: 500; opacity:.3; } } .smallDiamondRing { stroke-dasharray: 500; animation: smalldiamondRing-drawIn .6s forwards; animation-delay: .8s; stroke-dashoffset: 500; opacity: 0; } @keyframes smalldiamondRing-drawIn { to { stroke-dasharray: 1000; stroke-dashoffset: 500; opacity:1; } } .diamondLines { animation: diamond-moveIn 1s forwards; transform: translateY(20px); animation-delay: 1.3s; opacity:0; } @keyframes diamond-moveIn { to { transform: translateY(0px); opacity: 1; } } .diamondShadow { animation: diamondShadow-moveIn 1s forwards; transform: translateY(20px); animation-delay: 1.5s; opacity:0; } @keyframes diamondShadow-moveIn { to { transform: translateY(0px); opacity: 1; } } .smallCircleLines { animation: smallCircleLine-moveIn 1s forwards; transform: translateY(20px); animation-delay: 1s; opacity:0; } @keyframes smallCircleLine-moveIn { to { transform: translateY(0px); opacity: 1; } } .smallCircleShadow { animation: smallCircleShadow-moveIn 1s forwards; transform: translateY(20px); animation-delay: 1.2s; opacity:0; } @keyframes smallCircleShadow-moveIn { to { transform: translateY(0px); opacity: 1; } } .tick { stroke-dasharray: 20; animation: tick-moveIn .5s forwards; animation-delay: 1.8s; stroke-dashoffset: 30; opacity: 0; } @keyframes tick-moveIn { to { stroke-dasharray: 30; stroke-dashoffset: 10; opacity:1; } } /* End Diamond animation */ /* Stack animation */ #stack { animation: stacker-moveIn 1s forwards; transform: translateY(20px); animation-delay: 1s; opacity:0; } @keyframes stacker-moveIn { to { transform: translateY(2px); opacity: 1; } } .playButtonCircle { animation: playMoveCircle 1s forwards; transform: translateY(-20px); animation-delay: 1s; opacity:0; } @keyframes playMoveCircle { to { transform: translateY(0px); opacity: 0.4; } } .playButton { animation: playMove 1s forwards; transform: translateY(-20px); animation-delay: 1s; opacity:0; } @keyframes playMove { to { transform: translateY(0px); opacity: 1; } } /* End Planet animation */ /* Stacker rings animation */ .stackerRings { stroke-dasharray: 400; animation: stackerRings-moveIn 1s forwards; animation-delay: 1s; stroke-dashoffset: 800; opacity: 0; } @keyframes stackerRings-moveIn { to { stroke-dasharray: 400; stroke-dashoffset: 200; opacity:1; } } #rings { stroke-dasharray: 500; animation: mainCircle-drawIn 3s forwards; animation-delay: .2s; stroke-dashoffset: -500; } @keyframes rings-drawIn { to { stroke-dasharray: 1000; stroke-dashoffset: 500; opacity:1; } } /* End Rocket/Rings animation */ /* Start Search animation */ #tablet { stroke-dasharray: 500; animation: tablet-drawIn 1.5s forwards; animation-delay: 1.3s; stroke-dashoffset: 500; opacity: 0; } @keyframes tablet-drawIn { to { stroke-dasharray: 1000; stroke-dashoffset: 500; opacity:1; } } .tabletBack { animation: tabletBack-moveIn 1s forwards; animation-delay: 1.7s; opacity: 0; } @keyframes tabletBack-moveIn { to { opacity: 1; } } .tabletText { stroke-dasharray: 200; animation: tabletText-drawIn .5s forwards; animation-delay: 1.6s; stroke-dashoffset: 200; } @keyframes tabletText-drawIn { to { stroke-dasharray: 200; stroke-dashoffset: 400; } } /* End tablet animation */ /* Start Connect animation */ .folderLines { stroke-dasharray: 500; animation: folderLines-drawIn 2s forwards; animation-delay: 1.4s; opacity: 0; stroke-dashoffset: 500; } @keyframes folderLines-drawIn { to { stroke-dasharray: 1000; stroke-dashoffset: 500; opacity:1; } } #folderBackground { animation: folderBackground-moveIn 1.4s forwards; transform: translate(-20px, 20px); animation-delay: 1s; opacity:0; } @keyframes folderBackground-moveIn { to { opacity: 1; transform: translateY(0px); } } .folderCheckLines { stroke-dasharray: 200; animation: folderCheckLines-drawIn .5s forwards; animation-delay: 2.2s; stroke-dashoffset: 200; opacity: 0; } @keyframes folderCheckLines-drawIn { to { stroke-dasharray: 200; stroke-dashoffset: 90; opacity:1; } } .smallFolderShadow { animation: smallFolderShadow-moveIn 1s forwards; transform: translateY(20px); animation-delay: 2.2s; opacity:0; } @keyframes smallFolderShadow-moveIn { to { transform: translateY(0px); opacity: 1; } } .folderTick { stroke-dasharray: 20; animation: folderTick-drawIn .5s forwards; animation-delay: 2.4s; stroke-dashoffset: 30; opacity: 0; } @keyframes folderTick-drawIn { to { stroke-dasharray: 30; stroke-dashoffset: 10; opacity:1; } } #heart { stroke-dasharray: 500; animation: heart-drawIn 1.4s forwards; transform: translate(20px, 20px); animation-delay: 2.2s; opacity: 0; stroke-dashoffset: 500; } @keyframes heart-drawIn { to { stroke-dasharray: 1000; transform: translateY(0px); stroke-dashoffset: 500; opacity:.7; } } .textLine { stroke-dasharray: 500; animation: speechText-drawIn 1s forwards; animation-delay: 2s; stroke-dashoffset: 500; } @keyframes speechText-drawIn { to { stroke-dasharray: 1100; stroke-dashoffset: 1000; } } /* Start Accents fade in animation */ #bits { animation: accents-drawIn 1.4s forwards; opacity: 0; animation-delay: 1s; } @keyframes accents-drawIn { to { opacity: 1; } } .bits { animation: accents-drawIn 1.4s forwards; opacity: 0; animation-delay: 2s; } @keyframes accents-drawIn { to { opacity: 1; } }</style><g id="bits"><circle class="st1" cx="545.8" cy="218.1" r="2.5"/><circle class="st2" cx="584" cy="207.8" r="2.5"/><path class="st3" d="M131.9 221.1H130v-1.9c0-.5-.4-.9-.9-.9s-.9.4-.9.9v1.9h-1.9c-.5 0-.9.4-.9.9s.4.9.9.9h1.9v1.9c0 .5.4.9.9.9s.9-.4.9-.9V223h1.9c.5 0 .9-.4.9-.9s-.4-1-.9-1zM240.2 271.4h-2.8v-2.8c0-.8-.6-1.4-1.4-1.4-.8 0-1.4.6-1.4 1.4v2.8H232c-.8 0-1.4.6-1.4 1.4 0 .8.6 1.4 1.4 1.4h2.8v2.8c0 .8.6 1.4 1.4 1.4.8 0 1.4-.6 1.4-1.4v-2.8h2.8c.8 0 1.4-.6 1.4-1.4-.2-.8-.8-1.4-1.6-1.4zM307.3 67.8h-3v-3c0-.8-.7-1.5-1.5-1.5s-1.5.7-1.5 1.5v3h-3c-.8 0-1.5.7-1.5 1.5s.7 1.5 1.5 1.5h3v3c0 .8.7 1.5 1.5 1.5s1.5-.7 1.5-1.5v-3h3c.8 0 1.5-.7 1.5-1.5s-.6-1.5-1.5-1.5z"/></g><g id="circlePart5"><path class="st4" d="M493.7 556.2c-13.4 6.4-27.3 11.9-41.7 16.2"/><path class="st5" d="M624.3 428.3c-23.1 45.6-58 83.8-100.3 110.9"/></g><path class="st6" d="M620.1 179.4c13.6 26.1 22.6 53.8 27.3 81.9" id="circlePart4"/><path class="st4" d="M289.1 31.9c24.5-7 50.3-10.7 77-10.8 52.6-.2 102 14 144.3 38.8" id="circlePart3"/><path class="st4" d="M87.7 339.3c-7.3-52.1 0-102.9 18.8-148.3" id="circlePart2"/><path class="st6" d="M269.4 561.4c-34-14.1-65.6-35.1-92.4-62.8" id="circlePart1"/><g id="Love"><path class="st1 bits" d="M653.5 285.3h-3v-3c0-.8-.7-1.5-1.5-1.5s-1.5.7-1.5 1.5v3h-3c-.8 0-1.5.7-1.5 1.5s.7 1.5 1.5 1.5h3v3c0 .8.7 1.5 1.5 1.5s1.5-.7 1.5-1.5v-3h3c.8 0 1.5-.7 1.5-1.5s-.7-1.5-1.5-1.5z"/><path class="st7" d="M685.6 392.2H583.2c-1.2 0-2.2-1-2.2-2.2v-81.6c0-1.2 1-2.2 2.2-2.2h34.7c.6 0 1.2.2 3.8.7l12.6 12.6h51.3c1.2 0 2.2 1 2.2 2.2V390c0 1.2-1 2.2-2.2 2.2z" id="folderBackground"/><path class="st8" d="M587.6 304v13.2h45.8L622.3 304zM588.2 317.4H690v67.2H588.2z"/><path class="st8" d="M588.2 315.2H690v70.3H588.2z"/><path class="st8" d="M587.6 317.2H690v68.4H587.6z"/><path class="st9 folderLines" d="M690 317.2v68.3H587.6V304h34.7l13.2 13.2zM588.2 317.4h100.6"/><circle class="st7 smallFolderShadow" cx="641" cy="353.1" r="20.5"/><circle class="st10 folderCheckLines" cx="636.6" cy="350.6" r="19.7"/><path class="st9 folderTick" d="M628.5 352.3l4.3 4.2 11.9-11.8"/><path id="Heart" class="st11" d="M611.3 291.4c1.8-3.6 2.7-7.6 2.7-11.8 0-10.9-6.5-20.7-16.6-24.8-10-4.2-21.6-1.9-29.3 5.8l-1.5 1.5-1.5-1.5c-4.9-5.5-11.9-8.7-19.2-8.8-7.4-.2-14.5 2.7-19.7 7.8-5.2 5.2-8 12.3-7.8 19.7.2 7.4 3.4 14.3 8.9 19.2l36.5 36.6c1.6 1.6 4.2 1.6 5.8 0l3.8-3.8"/></g><g id="mainGuy"><path class="st7" d="M475.9 424.3l.1 19.1s-25.2 23.3-47.5 6.2l.3-11.5s29.6 15.6 47.1-13.8zM399.3 344.2h-34.9s2 10.8 17.2 10.8 17.7-10.8 17.7-10.8zM428.5 451v54.8h5.6v-50.9zM330.5 452.5v53.3h-5.6v-50.9zM476 444.9v60.9h-6.4v-56z"/><path class="st9" d="M327 294.2l-2.1.6c-5 1.4-10.2-1.6-11.6-6.6l-11.2-21.3c-1.4-5 1.6-10.2 6.6-11.6l4.2-1.1c5-1.4 10.2 1.6 11.6 6.6l9.2 21.9c1.3 4.9-1.7 10.1-6.7 11.5zM433.7 295.5l2.1.2c5.2.5 9.8-3.4 10.2-8.6l7.2-23c.5-5.2-3.4-9.8-8.6-10.2l-4.3-.4c-5.2-.5-9.8 3.4-10.2 8.6l-5.1 23.2c-.3 5.2 3.5 9.8 8.7 10.2z"/><path class="st12" d="M400.1 344.2h-37c-23.9 0-47.5-65.7-47.5-89.6v-27.9c0-23.9 19.4-43.3 43.3-43.3h37c23.9 0 43.3 19.4 43.3 43.3V255c0 23.9-15.1 89.2-39.1 89.2z"/><path class="st12" d="M399.3 236.2c3.3-2.8 7.6-4.3 12.2-3.7 4.3.6 7.9 2.8 10.3 6M353 236.2c-3.3-2.8-7.6-4.3-12.2-3.7-4.3.6-7.9 2.8-10.3 6M388.7 284.3c-2.5 2.8-6.1 4.6-10.2 4.6-3.8 0-7.2-1.5-9.6-4"/><path class="st13" d="M381.9 253.8v24M315.1 264.3l-7.5 2.5M310.3 266.2l4.6 11.5M440.7 263.6l7.6 2.4M445.6 265.5l-4.7 11.5"/><path class="st12" d="M405.9 303.4c-7.2 2.3-15.4 3.7-24.3 3.9-11.1.3-21.4-1.3-29.9-4.2"/><path class="st9" d="M413.4 363.9c0 11.2-13.6 20.2-30.3 20.2s-30.3-9-30.3-20.2"/><path class="st9" d="M421.6 366.8c0 14.2-17.3 25.7-38.5 25.7s-38.5-11.5-38.5-25.7"/><path class="st6" d="M364.4 345.2v16.7h-3.2c-21.1 0-75.6 31.3-75.6 69.7v73.6c0 .3.3.6.6.6h189.7c.3 0 .6-.3.6-.6v-73.6c0-38.3-53.1-69.7-69.7-69.7h-7.5v-16.7M324.9 456.3v49.5M434.1 454.9v49.5"/><path class="st16" d="M245.1 505.8h253.6M511.6 505.8h16.2M365.8 526.3h75.1M322.3 526.3h14.3"/><path class="st7" d="M394.7 420.4c-1.1-.6-4.3-.3-8.2 1-6.6 4.6-12.3 11.4-12.7 22.2-.1.3-.7 0-.8-.1-1.8-3.5-2.5-7.1-1-12.5.3-.4-.7-1.1-.8-.8-.3.3-1.7 1.8-2.6 3.5-4.6 7.9-1.5 18 6.4 22.4 8 4.4 18 1.5 22.4-6.4 5.1-9.3.2-27.6-2.7-29.3z"/><path class="st17" d="M393.3 417.8c-1.1-.6-4.3-.3-8.2 1-6.6 4.6-12.3 11.4-12.7 22.2-.1.3-.7 0-.8-.1-1.8-3.5-2.5-7.1-1-12.5.3-.4-.7-1.1-.8-.8-.3.3-1.7 1.8-2.6 3.5-4.6 7.9-1.5 18 6.4 22.4 8 4.4 18 1.5 22.4-6.4 5.1-9.3.2-27.6-2.7-29.3z"/><path class="st9" d="M401.1 305.3c-5.7 5.7-13.6 9.2-22.3 9.2-8.7 0-16.6-3.5-22.4-9.3"/><path class="st18" d="M368.3 200.8c11.1 1.1 25.5 1.1 39.4-3.5 0 0 19.8 8.8 23.6 8.8 3.8 0 7.7 48.4 7.7 48.4h7.7V210s1.1-22.1-32.4-34.7l8.2-2.7s-8.2-3.8-21.4 0c0 0-2.2-4.9 4.4-8.2 0 0-28.6-.6-47.8 11l-.5-5.5s-44 6.6-46.2 39.6c-2.2 33 0 45.1 0 45.1h4.9s8.2-26.9 12.6-48.9c0 0 17.3-4.4 20.8-8.2 0 0 1.3.4 3.5.9M358.6 199.5c1.1.2 2.2.4 3.4.6"/><path class="st6" d="M475.9 442.3c-4.9 7.2-12.6 12.4-21.8 14.1-9.3 1.7-18.3-.5-25.5-5.4"/><path class="st9" d="M436.6 445.8c-2.7-.8-5.3-2-7.8-3.5M475.6 431c-4.5 7.4-11.9 13.1-21 15.3-3.8.9-7.5 1.2-11.2.8"/><path class="st6" d="M286.2 442.4c4.9 7.2 12.6 12.4 21.8 14.1 9.3 1.7 18.3-.5 25.5-5.4"/><path class="st9" d="M325.6 445.9c2.7-.8 5.3-2 7.8-3.5M286.5 431.1c4.5 7.4 11.9 13.1 21 15.3 3.8.9 7.5 1.2 11.2.8M407.4 304c-.6-.2-1.1-.6-1.4-1.2-.3-.6-.3-1.2-.1-1.7"/><path class="st3" d="M400.1 304.4c-2 9.9-10.8 17.3-21.3 17.3-10.4 0-19.1-7.3-21.2-17.1l8.7 6.3 12.1 2.9 12.3-2.4 9.4-7z"/><path class="st19" d="M353.6 189.5c11.5-6.2 21.3-9.3 29.5-10.6l-14.8 11.6c11.5-6.2 28.2-10.5 36.4-11.7"/><path class="st3" d="M426.5 205.3s15.7 93.6-27.2 138.9c0 0-.8 3.5 5 .7s26.6-24 32.9-68.8-5.7-76.3-10.7-70.8z"/><ellipse class="st20" cx="407.4" cy="258.1" rx="7.1" ry="5.5"/><ellipse class="st20" cx="348.1" cy="258.1" rx="7.1" ry="5.5"/><g class="st21"><path class="st8" d="M339.4 315v-12.2V315z"/><path class="st20" d="M339.4 325.3c-.2 0-.4-.2-.4-.4v-22.3c0-.2.2-.4.4-.4s.4.2.4.4V325c-.1.2-.2.3-.4.3z"/><path class="st8" d="M341.7 318.9v-12.2 12.2z"/><path class="st20" d="M341.7 329.3c-.2 0-.4-.2-.4-.4v-22.3c0-.2.2-.4.4-.4s.4.2.4.4v22.3c-.1.3-.2.4-.4.4z"/><path class="st8" d="M344 321.7v-21.4 21.4z"/><path class="st20" d="M344 331.4c-.2 0-.4-.2-.4-.4v-30.7c0-.2.2-.4.4-.4s.4.2.4.4V331c0 .2-.2.4-.4.4z"/><path class="st8" d="M332.4 304.2V292v12.2z"/><path class="st20" d="M332.4 313.1c-.2 0-.4-.2-.4-.4V292c0-.2.2-.4.4-.4s.4.2.4.4v20.8c0 .1-.1.3-.4.3z"/><path class="st8" d="M334.8 309.7v-12.2 12.2z"/><path class="st20" d="M334.8 318.6c-.2 0-.4-.2-.4-.4v-20.8c0-.2.2-.4.4-.4s.4.2.4.4v20.8c-.1.2-.2.4-.4.4z"/><path class="st8" d="M337.1 311.5v-12.2 12.2z"/><path class="st20" d="M337.1 321.8c-.2 0-.4-.2-.4-.4v-22.3c0-.2.2-.4.4-.4s.4.2.4.4v22.3c-.1.3-.2.4-.4.4z"/><path class="st8" d="M325.5 291.5v-12.2 12.2z"/><path class="st20" d="M325.5 295.2c-.2 0-.4-.2-.4-.4v-15.6c0-.2.2-.4.4-.4s.4.2.4.4v15.6c0 .3-.2.4-.4.4z"/><path class="st8" d="M327.8 297v-12.2V297z"/><path class="st20" d="M327.8 300.7c-.2 0-.4-.2-.4-.4v-15.6c0-.2.2-.4.4-.4s.4.2.4.4v15.6c0 .2-.2.4-.4.4z"/><path class="st8" d="M330.1 300.6v-12.2 12.2z"/><path class="st20" d="M330.1 309.5c-.2 0-.4-.2-.4-.4v-20.8c0-.2.2-.4.4-.4s.4.2.4.4v20.8c0 .2-.2.4-.4.4z"/><path class="st8" d="M318.6 275.9v-11.2"/><path class="st20" d="M318.6 276.2c-.2 0-.4-.2-.4-.4v-11.2c0-.2.2-.4.4-.4s.4.2.4.4v11.2c0 .3-.2.4-.4.4z"/><path class="st8" d="M320.9 279.3v-12.2 12.2z"/><path class="st20" d="M320.9 283c-.2 0-.4-.2-.4-.4V267c0-.2.2-.4.4-.4s.4.2.4.4v15.6c0 .2-.2.4-.4.4z"/><path class="st8" d="M323.2 284.7v-12.2 12.2z"/><path class="st20" d="M323.2 293.7c-.2 0-.4-.2-.4-.4v-20.8c0-.2.2-.4.4-.4s.4.2.4.4v20.8c0 .2-.2.4-.4.4z"/><path class="st8" d="M346.3 323.7v-26.2 26.2z"/><path class="st20" d="M346.3 334.8c-.2 0-.4-.2-.4-.4v-37c0-.2.2-.4.4-.4s.4.2.4.4v37c0 .3-.2.4-.4.4z"/><path class="st8" d="M348.6 325.6v-30.8 30.8z"/><path class="st20" d="M348.6 336c-.2 0-.4-.2-.4-.4v-40.8c0-.2.2-.4.4-.4s.4.2.4.4v40.8c0 .3-.2.4-.4.4z"/><path class="st8" d="M350.9 327.4v-12.2 12.2z"/><path class="st20" d="M350.9 338.5c-.2 0-.4-.2-.4-.4v-23c0-.2.2-.4.4-.4s.4.2.4.4v23c0 .3-.2.4-.4.4z"/><path class="st8" d="M353.2 329.1v-12.2 12.2z"/><path class="st20" d="M353.2 340.3c-.2 0-.4-.2-.4-.4v-23c0-.2.2-.4.4-.4s.4.2.4.4v23c0 .2-.2.4-.4.4z"/><path class="st8" d="M355.5 329.1v-7.4 7.4z"/><path class="st20" d="M355.5 341.8c-.2 0-.4-.2-.4-.4v-19.7c0-.2.2-.4.4-.4s.4.2.4.4v19.7c0 .2-.2.4-.4.4z"/><path class="st8" d="M357.8 329.1v-3.5 3.5z"/><path class="st20" d="M357.8 341.8c-.2 0-.4-.2-.4-.4v-16.5c0-.2.2-.4.4-.4s.4.2.4.4v16.5c0 .2-.2.4-.4.4z"/><path class="st8" d="M360.1 331.8v-2.7 2.7z"/><path class="st20" d="M360.1 344.4c-.2 0-.4-.2-.4-.4v-16.2c0-.2.2-.4.4-.4s.4.2.4.4V344c0 .3-.2.4-.4.4z"/><path class="st8" d="M362.4 331.8v-2.7 2.7z"/><path class="st20" d="M362.4 344.4c-.2 0-.4-.2-.4-.4v-16.2c0-.2.2-.4.4-.4s.4.2.4.4V344c0 .3-.2.4-.4.4z"/><path class="st8" d="M364.7 331.8v-2.7 2.7z"/><path class="st20" d="M364.7 344.4c-.2 0-.4-.2-.4-.4v-16.2c0-.2.2-.4.4-.4s.4.2.4.4V344c0 .3-.2.4-.4.4z"/><path class="st8" d="M394.7 331.8v-2.7 2.7z"/><path class="st20" d="M394.7 344.4c-.2 0-.4-.2-.4-.4v-16.2c0-.2.2-.4.4-.4s.4.2.4.4V344c0 .3-.2.4-.4.4z"/><path class="st8" d="M367.1 331.8v-2.7 2.7z"/><path class="st20" d="M367.1 344.4c-.2 0-.4-.2-.4-.4v-16.2c0-.2.2-.4.4-.4s.4.2.4.4V344c-.1.3-.2.4-.4.4z"/><path class="st8" d="M369.4 331.8v-2.7 2.7z"/><path class="st20" d="M369.4 344.4c-.2 0-.4-.2-.4-.4v-16.2c0-.2.2-.4.4-.4s.4.2.4.4V344c-.1.3-.2.4-.4.4z"/><path class="st8" d="M385.5 331.8v-2.7 2.7z"/><path class="st20" d="M385.5 344.4c-.2 0-.4-.2-.4-.4v-16.2c0-.2.2-.4.4-.4s.4.2.4.4V344c0 .3-.2.4-.4.4z"/><path class="st8" d="M371.7 331.8v-5.5 5.5z"/><path class="st20" d="M371.7 344.4c-.2 0-.4-.2-.4-.4v-17.8c0-.2.2-.4.4-.4s.4.2.4.4V344c-.1.3-.2.4-.4.4z"/><g><path class="st8" d="M383.2 331.8v-5.5 5.5z"/><path class="st20" d="M383.2 344.4c-.2 0-.4-.2-.4-.4v-17.8c0-.2.2-.4.4-.4s.4.2.4.4V344c0 .3-.2.4-.4.4z"/></g><g><path class="st8" d="M376.3 331.8v-5.5 5.5z"/><path class="st20" d="M376.3 344.4c-.2 0-.4-.2-.4-.4v-17.8c0-.2.2-.4.4-.4s.4.2.4.4V344c-.1.3-.2.4-.4.4z"/></g><g><path class="st8" d="M378.6 331.8v-5.5 5.5z"/><path class="st20" d="M378.6 344.4c-.2 0-.4-.2-.4-.4v-17.8c0-.2.2-.4.4-.4s.4.2.4.4V344c0 .3-.2.4-.4.4z"/></g><g><path class="st8" d="M387.8 331.8v-2.7 2.7z"/><path class="st20" d="M387.8 344.4c-.2 0-.4-.2-.4-.4v-16.2c0-.2.2-.4.4-.4s.4.2.4.4V344c0 .3-.2.4-.4.4z"/></g><g><path class="st8" d="M390.1 331.8v-2.7 2.7z"/><path class="st20" d="M390.1 344.4c-.2 0-.4-.2-.4-.4v-16.2c0-.2.2-.4.4-.4s.4.2.4.4V344c0 .3-.2.4-.4.4z"/></g><g><path class="st8" d="M392.4 331.8v-2.7 2.7z"/><path class="st20" d="M392.4 344.4c-.2 0-.4-.2-.4-.4v-16.2c0-.2.2-.4.4-.4s.4.2.4.4V344c0 .3-.2.4-.4.4z"/></g><g><path class="st8" d="M374 329.6v-3.2 3.2z"/><path class="st20" d="M374 344.4c-.2 0-.4-.2-.4-.4v-19c0-.2.2-.4.4-.4s.4.2.4.4v19.1c-.1.2-.2.3-.4.3z"/></g><g><path class="st8" d="M380.9 329.6v-3.2 3.2z"/><path class="st20" d="M380.9 344.4c-.2 0-.4-.2-.4-.4v-19c0-.2.2-.4.4-.4s.4.2.4.4v19.1c0 .2-.2.3-.4.3z"/></g><g><path class="st8" d="M415.5 316.9v-16.4 16.4z"/><path class="st20" d="M415.5 333.2c-.2 0-.4-.2-.4-.4v-32.3c0-.2.2-.4.4-.4s.4.2.4.4v32.3c0 .3-.2.4-.4.4z"/></g><g><path class="st8" d="M413.2 320.9v-23.5 23.5z"/><path class="st20" d="M413.2 336.5c-.2 0-.4-.2-.4-.4v-38.7c0-.2.2-.4.4-.4s.4.2.4.4v38.7c0 .2-.2.4-.4.4z"/></g><g><path class="st8" d="M410.9 323.7v-28.8 28.8z"/><path class="st20" d="M410.9 339.3c-.2 0-.4-.2-.4-.4v-44c0-.2.2-.4.4-.4s.4.2.4.4v44c-.1.2-.2.4-.4.4z"/></g><g><path class="st8" d="M422.4 306.2V294v12.2z"/><path class="st20" d="M422.4 320.3c-.2 0-.4-.2-.4-.4v-26c0-.2.2-.4.4-.4s.4.2.4.4v26c0 .2-.2.4-.4.4z"/></g><g><path class="st8" d="M420.1 311.7v-12.2 12.2z"/><path class="st20" d="M420.1 325.8c-.2 0-.4-.2-.4-.4v-26c0-.2.2-.4.4-.4s.4.2.4.4v26c0 .2-.2.4-.4.4z"/></g><g><path class="st8" d="M417.8 313.4v-12.2 12.2z"/><path class="st20" d="M417.8 329.7c-.2 0-.4-.2-.4-.4v-28.2c0-.2.2-.4.4-.4s.4.2.4.4v28.2c0 .3-.2.4-.4.4z"/></g><g><path class="st20" d="M429.3 306.1c-.2 0-.4-.2-.4-.4v-24.5c0-.2.2-.4.4-.4s.4.2.4.4v24.5c0 .3-.2.4-.4.4z"/></g><g><path class="st20" d="M427 311.6c-.2 0-.4-.2-.4-.4v-24.5c0-.2.2-.4.4-.4s.4.2.4.4v24.5c0 .2-.2.4-.4.4z"/></g><g><path class="st20" d="M424.7 315.2c-.2 0-.4-.2-.4-.4v-24.5c0-.2.2-.4.4-.4s.4.2.4.4v24.5c0 .2-.2.4-.4.4z"/></g><g><path class="st8" d="M436.3 278.9v-12.2 12.2z"/><path class="st20" d="M436.3 285.6c-.2 0-.4-.2-.4-.4s.2-.4.4-.4.3.1.4.3l-.7-6.2v-12.2c0-.2.2-.4.4-.4s.4.2.4.4v18.6c-.2.1-.3.3-.5.3zm.3-.4z"/></g><g><path class="st20" d="M433.9 293.9c-.2 0-.4-.2-.4-.4V269c0-.2.2-.4.4-.4s.4.2.4.4v24.5c0 .2-.2.4-.4.4z"/></g><g><path class="st20" d="M431.6 299.3c-.2 0-.4-.2-.4-.4v-24.5c0-.2.2-.4.4-.4s.4.2.4.4V299c0 .2-.2.3-.4.3z"/></g><g><path class="st8" d="M408.6 325.7v-12.2 12.2z"/><path class="st20" d="M408.6 340.5c-.2 0-.4-.2-.4-.4v-26.7c0-.2.2-.4.4-.4s.4.2.4.4v26.7c-.1.2-.2.4-.4.4z"/></g><g><path class="st8" d="M406.3 327.6v-12.2 12.2z"/><path class="st20" d="M406.3 342.5c-.2 0-.4-.2-.4-.4v-26.7c0-.2.2-.4.4-.4s.4.2.4.4v26.7c-.1.2-.2.4-.4.4z"/></g><g><path class="st20" d="M404 342c-.2 0-.4-.2-.4-.4v-24.5c0-.2.2-.4.4-.4s.4.2.4.4v24.5c-.1.2-.2.4-.4.4z"/></g><g><path class="st20" d="M401.7 343.7c-.2 0-.4-.2-.4-.4v-24.5c0-.2.2-.4.4-.4s.4.2.4.4v24.5c-.1.3-.2.4-.4.4z"/></g><g><path class="st8" d="M399.3 331.1v-7.4 7.4z"/><path class="st20" d="M399.3 343.7c-.2 0-.4-.2-.4-.4v-19.7c0-.2.2-.4.4-.4s.4.2.4.4v19.7c0 .3-.2.4-.4.4z"/></g><g><path class="st8" d="M397 331.1v-3.5 3.5z"/><path class="st20" d="M397 343.7c-.2 0-.4-.2-.4-.4v-16.5c0-.2.2-.4.4-.4s.4.2.4.4v16.5c0 .3-.2.4-.4.4z"/></g><g><path class="st8" d="M408.6 290.3v8.9"/><path class="st20" d="M408.6 299.6c-.2 0-.4-.2-.4-.4v-8.9c0-.2.2-.4.4-.4s.4.2.4.4v8.9c-.1.2-.2.4-.4.4z"/></g><g><path class="st8" d="M390.1 291.1v9.6"/><path class="st20" d="M390.1 301.1c-.2 0-.4-.2-.4-.4V291c0-.2.2-.4.4-.4s.4.2.4.4v9.7c0 .2-.2.4-.4.4z"/></g><g><path class="st8" d="M392.4 291.1v9.6"/><path class="st20" d="M392.4 301.1c-.2 0-.4-.2-.4-.4V291c0-.2.2-.4.4-.4s.4.2.4.4v9.7c0 .2-.2.4-.4.4z"/></g><g><path class="st8" d="M394.7 288.8V300"/><path class="st20" d="M394.7 300.4c-.2 0-.4-.2-.4-.4v-11.1c0-.2.2-.4.4-.4s.4.2.4.4V300c0 .2-.2.4-.4.4z"/></g><g><path class="st8" d="M397 288v12"/><path class="st20" d="M397 300.4c-.2 0-.4-.2-.4-.4v-12c0-.2.2-.4.4-.4s.4.2.4.4v12c0 .2-.2.4-.4.4z"/></g><g><path class="st8" d="M399.3 288v12"/><path class="st20" d="M399.3 300.4c-.2 0-.4-.2-.4-.4v-12c0-.2.2-.4.4-.4s.4.2.4.4v12c0 .2-.2.4-.4.4z"/></g><g><path class="st8" d="M401.7 286.7V297"/><path class="st20" d="M401.7 297.3c-.2 0-.4-.2-.4-.4v-10.3c0-.2.2-.4.4-.4s.4.2.4.4V297c-.1.2-.2.3-.4.3z"/></g><g><path class="st8" d="M404 286.7V297"/><path class="st20" d="M404 297.3c-.2 0-.4-.2-.4-.4v-10.3c0-.2.2-.4.4-.4s.4.2.4.4V297c-.1.2-.2.3-.4.3z"/></g><g><path class="st8" d="M406.3 286.7V297"/><path class="st20" d="M406.3 297.3c-.2 0-.4-.2-.4-.4v-10.3c0-.2.2-.4.4-.4s.4.2.4.4V297c-.1.2-.2.3-.4.3z"/></g><g><path class="st8" d="M380.9 294v7.7"/><path class="st20" d="M380.9 302.1c-.2 0-.4-.2-.4-.4V294c0-.2.2-.4.4-.4s.4.2.4.4v7.7c0 .2-.2.4-.4.4z"/></g><g><path class="st8" d="M383.2 294v7.7"/><path class="st20" d="M383.2 302.1c-.2 0-.4-.2-.4-.4V294c0-.2.2-.4.4-.4s.4.2.4.4v7.7c0 .2-.2.4-.4.4z"/></g><g><path class="st8" d="M385.5 292.6v8.4"/><path class="st20" d="M385.5 301.3c-.2 0-.4-.2-.4-.4v-8.4c0-.2.2-.4.4-.4s.4.2.4.4v8.4c0 .3-.2.4-.4.4z"/></g><g><path class="st8" d="M387.8 291.8v8.4"/><path class="st20" d="M387.8 300.6c-.2 0-.4-.2-.4-.4v-8.4c0-.2.2-.4.4-.4s.4.2.4.4v8.4c0 .2-.2.4-.4.4z"/></g><g><path class="st8" d="M350.9 290.3v8.9"/><path class="st20" d="M350.9 299.6c-.2 0-.4-.2-.4-.4v-8.9c0-.2.2-.4.4-.4s.4.2.4.4v8.9c0 .2-.2.4-.4.4z"/></g><g><path class="st8" d="M369.4 291.1v9.6"/><path class="st20" d="M369.4 301.1c-.2 0-.4-.2-.4-.4V291c0-.2.2-.4.4-.4s.4.2.4.4v9.7c-.1.2-.2.4-.4.4z"/></g><g><path class="st8" d="M367.1 291.1v9.6"/><path class="st20" d="M367.1 301.1c-.2 0-.4-.2-.4-.4V291c0-.2.2-.4.4-.4s.4.2.4.4v9.7c-.1.2-.2.4-.4.4z"/></g><g><path class="st8" d="M364.7 288.8V300"/><path class="st20" d="M364.7 300.4c-.2 0-.4-.2-.4-.4v-11.1c0-.2.2-.4.4-.4s.4.2.4.4V300c0 .2-.2.4-.4.4z"/></g><g><path class="st8" d="M362.4 288v12"/><path class="st20" d="M362.4 300.4c-.2 0-.4-.2-.4-.4v-12c0-.2.2-.4.4-.4s.4.2.4.4v12c0 .2-.2.4-.4.4z"/></g><g><path class="st8" d="M360.1 288v12"/><path class="st20" d="M360.1 300.4c-.2 0-.4-.2-.4-.4v-12c0-.2.2-.4.4-.4s.4.2.4.4v12c0 .2-.2.4-.4.4z"/></g><g><path class="st8" d="M357.8 286.7V297"/><path class="st20" d="M357.8 297.3c-.2 0-.4-.2-.4-.4v-10.3c0-.2.2-.4.4-.4s.4.2.4.4V297c0 .2-.2.3-.4.3z"/></g><g><path class="st8" d="M355.5 286.7V297"/><path class="st20" d="M355.5 297.3c-.2 0-.4-.2-.4-.4v-10.3c0-.2.2-.4.4-.4s.4.2.4.4V297c0 .2-.2.3-.4.3z"/></g><g><path class="st8" d="M353.2 286.7V297"/><path class="st20" d="M353.2 297.3c-.2 0-.4-.2-.4-.4v-10.3c0-.2.2-.4.4-.4s.4.2.4.4V297c0 .2-.2.3-.4.3z"/></g><g><path class="st8" d="M378.6 294v7.7"/><path class="st20" d="M378.6 302.1c-.2 0-.4-.2-.4-.4V294c0-.2.2-.4.4-.4s.4.2.4.4v7.7c0 .2-.2.4-.4.4z"/></g><g><path class="st8" d="M376.3 294v7.7"/><path class="st20" d="M376.3 302.1c-.2 0-.4-.2-.4-.4V294c0-.2.2-.4.4-.4s.4.2.4.4v7.7c-.1.2-.2.4-.4.4z"/></g><g><path class="st8" d="M374 292.6v8.4"/><path class="st20" d="M374 301.3c-.2 0-.4-.2-.4-.4v-8.4c0-.2.2-.4.4-.4s.4.2.4.4v8.4c-.1.3-.2.4-.4.4z"/></g><g><path class="st8" d="M371.7 291.8v8.4"/><path class="st20" d="M371.7 300.6c-.2 0-.4-.2-.4-.4v-8.4c0-.2.2-.4.4-.4s.4.2.4.4v8.4c-.1.2-.2.4-.4.4z"/></g></g><path class="st23" d="M370.2 262.9c.4-.9.8-1.7 1.1-2.4 1.9-4.4 2.7-6.1 7.2-6.1s5.2 1.7 7.2 6.1l.2.4c.3.6.6 1.3.9 2 2.7 5.9 4.7 10.2 13.1 13.1 3.3 1.1 7.4 1.7 11.7 1.7 4.5 0 9.1-.6 12.1-1.7 4.8-1.7 6.8-3.3 8.7-7.4 1.8-3.7 3.3-9.4 4.1-12.5l.2-.7c.2-.9.3-1.2.4-1.4l.1-.2c.5-.8 1.8-1.4 2.4-1.6l-.5-5.7c-1.5-.5-11.2-3.6-27.6-3.6-9.8 0-15.1 1.2-19.7 2.3-4.1.9-7.6 1.7-13.3 1.7-5.7 0-9.2-.8-13.3-1.7-4.6-1.1-9.9-2.3-19.7-2.3-16.5 0-26.1 3.1-27.6 3.6l-.5 5.7c.5.2 2 .7 2.4 1.5l.1.1c.1.3.2.7.5 1.6l.1.5c.8 3.1 2.3 8.9 4.1 12.7 1.9 4.1 3.9 5.8 8.7 7.4 3 1 7.6 1.7 12.1 1.7 4.4 0 8.4-.6 11.7-1.7 8.4-2.9 10.4-7.2 13.1-13.1zm18.9-12.7c3.3-4.9 18.9-5.2 22-5.2 4.1 0 17.9.4 20.8 5.7 2.5 4.4-.9 17-4 20.3-3.1 3.3-8 4.8-15.9 4.8-9.8 0-16.4-2.7-19.6-8-4.5-7.6-5.7-14-3.3-17.6zm-24.7 17.6c-3.2 5.3-9.8 8-19.6 8-7.9 0-12.8-1.5-15.9-4.8-3.1-3.3-6.4-15.9-4-20.3 3-5.3 16.7-5.8 20.9-5.8 3.1 0 18.6.3 22 5.2 2.4 3.7 1.2 10.1-3.4 17.7z"/></g><g id="tablet"><path class="st8 tabletBack" d="M606.9 159.7h-69.7c-4.4 0-8-3.6-8-8V75c0-4.4 3.6-8 8-8h69.7c4.4 0 8 3.6 8 8v76.7c.1 4.4-3.5 8-8 8z"/><path class="st1 tabletBack" d="M529.2 79.9v-5.6c0-3.8 3.1-6.9 6.9-6.9h72c3.8 0 6.9 3.1 6.9 6.9v5.6"/><circle class="st8 tabletBack" cx="537.7" cy="73.8" r="2.2"/><circle class="st8 tabletBack" cx="545.3" cy="73.8" r="2.2"/><path class="st7 tabletBack" d="M607 107h-68.5c-1.8 0-3.3-1.5-3.3-3.3V87.8c0-1.8 1.5-3.3 3.3-3.3H607c1.8 0 3.3 1.5 3.3 3.3v15.9c0 1.8-1.5 3.3-3.3 3.3z"/><path class="st1" d="M608.2 149.6h-22.9c-.9 0-1.6-.7-1.6-1.6v-10.8c0-.9.7-1.6 1.6-1.6h22.9c.9 0 1.6.7 1.6 1.6V148c0 .9-.8 1.6-1.6 1.6z"/><path class="st1 tabletText" d="M559.6 127.3h-22.9c-.9 0-1.6-.7-1.6-1.6v-10.8c0-.9.7-1.6 1.6-1.6h22.9c.9 0 1.6.7 1.6 1.6v10.8c0 .9-.7 1.6-1.6 1.6z"/><path class="st24 tabletText" d="M586.7 114.2h-21.2M606.9 120.3h-41.4M596.7 126.4h-31.2M556.7 136.5h-21.2M577 142.6h-41.5M563.5 149.7H535"/><path class="st25" d="M529.8 83.1v-9.6c0-3.8 3.1-6.9 6.9-6.9h72c3.8 0 6.9 3.1 6.9 6.9v79.1c0 3.8-3.1 6.9-6.9 6.9h-72c-3.8 0-6.9-3.1-6.9-6.9V100"/><path class="st26 tabletText" d="M565.7 90.6h-19.6M584.4 96.7h-38.3"/><path class="st27" d="M529.8 88.8v4.7"/></g><g id="Diamond"><path class="st1 diamondShadow" d="M167.6 417.1l.5-.6-.5-.7c-.1-.3-.3-.5-.5-.7L153 393.8l-.5-.8H93.2l-14.5 21.7c-.6.3-1 .8-1 1.5l-.1.2.1.2c.1.6.5 1.1 1.1 1.3l43 49.9 1.3 1.5 1.3-1.5 42.7-50.1c.2-.2.3-.4.5-.6z"/><g class="diamondLines"><path class="st28" d="M76.2 410h86.7M120 460.4L106.3 410l-15.4-21.5M120 460.4l13.7-50.4 14.8-21.5M106.3 410l13.3-20.1 14.1 20.1"/><path class="st29" d="M120 460.4L76.5 410l14.4-21.5h57.6l14.4 21.5z"/></g><path class="st3" d="M118.3 370h-1.9v-1.9c0-.5-.4-1-1-1-.5 0-1 .4-1 1v1.9h-1.9c-.5 0-1 .4-1 1s.4 1 1 1h1.9v1.9c0 .5.4 1 1 1 .5 0 1-.4 1-1V372h1.9c.5 0 1-.4 1-1s-.5-1-1-1z"/><path class="st30 diamondRing" d="M183.2 407.6c1 4.5 1.6 9.3 1.6 14.1 0 9.9-2.3 19.3-6.3 27.7-5.3 10.9-13.6 20-23.8 26.3-9.7 6-21.1 9.5-33.3 9.5-35 0-63.4-28.4-63.4-63.4s28.4-63.4 63.4-63.4c8.8 0 17.2 1.8 24.9 5.1 3.7 1.6 7.3 3.5 10.6 5.8"/><circle class="st1 smallCircleShadow" cx="179.9" cy="382.4" r="13.3"/><circle class="st9 smallCircleLines" cx="177.3" cy="379.5" r="13.3"/><path class="st31 tick" d="M170.9 380.8l3.4 3.3 9.3-9.3"/><path class="st8" d="M151.4 400.8h-1.9v-1.9c0-.5-.4-1-1-1s-1 .4-1 1v1.9h-1.9c-.5 0-1 .4-1 1s.4 1 1 1h1.9v1.9c0 .5.4 1 1 1s1-.4 1-1v-1.9h1.9c.5 0 1-.4 1-1s-.5-1-1-1z"/><circle class="st32" cx="89.2" cy="452.5" r="3.7"/><circle class="st33 smallDiamondRing" cx="159.8" cy="471.6" r="5.9"/></g><g id="Stack"><g class="st34"><path class="st10 stackerRings" d="M160.6 28.3l11.2 6.5-6.6 11.5M171.1 35.2c-32.8 6.3-77.9 37.2-70.2 98"/></g><path class="st8" d="M190.6 120.2l8.3 37.1c.2.9-.3 1.7-1.2 1.9l-62 13.8c-.9.2-1.7-.3-1.9-1.2l-8.3-37.1c-.2-.9.3-1.7 1.2-1.9l61.9-13.8c1-.1 1.8.4 2 1.2z"/><path class="st20" d="M135.5 174.4c-1.4.1-2.6-.9-2.9-2.3l-8.3-37.1c-.2-.8 0-1.5.4-2.2.4-.6 1.1-1.1 1.8-1.3l62.1-13.8c1.5-.2 2.9.8 3.3 2.2l8.3 37.1c.2.8 0 1.5-.4 2.2-.4.6-1.1 1.1-1.8 1.3l-62 13.8c-.2 0-.3.1-.5.1zm53.4-54.1L127.1 134c-.1 0-.2 0-.2.1v.2l8.3 37.1c0 .2.2.3.4.2l61.9-13.8c.1 0 .2 0 .2-.1v-.2l-8.3-37.1c-.1 0-.3-.1-.5-.1z"/><path class="st8" d="M201.5 106.9l7.9 41c.2 1-.4 1.9-1.4 2.1l-68.4 13.1c-1 .2-1.9-.4-2.1-1.4l-7.9-41c-.2-1 .4-1.9 1.4-2.1l68.5-13.2c.9 0 1.8.6 2 1.5z"/><path class="st20" d="M139.3 164.6c-1.5 0-2.8-1-3.1-2.6l-7.9-41c-.2-.8 0-1.7.5-2.4s1.2-1.2 2-1.3l68.6-13.2c1.7-.2 3.2 1 3.5 2.5l7.9 41c.2.8 0 1.7-.5 2.4s-1.2 1.2-2 1.3l-68.4 13.1c-.2.1-.4.2-.6.2zm60.4-57.7L131.3 120c-.1 0-.2 0-.2.1-.1.1-.1.2 0 .3l7.9 41c0 .2.2.3.4.3l68.4-13.1c.1 0 .2 0 .2-.1.1-.1.1-.2 0-.3l-7.9-41.1c0-.1-.2-.2-.4-.2z"/><path class="st8" d="M212.1 94.2l7.7 44c.2 1.1-.5 2-1.5 2.2L145 153.2c-1.1.2-2-.5-2.2-1.5l-7.7-44c-.2-1.1.5-2 1.5-2.2L210 92.7c1-.1 2 .6 2.1 1.5z"/><path class="st20" d="M144.7 154.7c-.7 0-1.3-.2-1.9-.6-.7-.5-1.2-1.3-1.4-2.2l-7.7-44c-.3-1.8.9-3.5 2.7-3.8l73.5-12.8c1.8-.1 3.3 1.1 3.6 2.7l7.7 44c.3 1.8-.9 3.5-2.7 3.8l-73.2 12.8c-.2 0-.4.1-.6.1zm65.5-60.6L137 106.9c-.3 0-.4.2-.3.5l7.7 44c0 .1.1.2.2.3.1.1.2.1.3.1l73.2-12.8c.3 0 .4-.2.3-.5l-7.7-44c0-.2-.3-.4-.5-.4z"/><path class="st3" d="M269.8 102.6L262.4 49c-.3-2.1-2.2-3.5-4.3-3.2L162.8 59c-2.1.3-3.5 2.2-3.2 4.3l3.1 22.3 4.3 31.3c.3 2.1 2.2 3.5 4.3 3.2l67.1-9.3 28.2-3.9c2-.4 3.5-2.3 3.2-4.3z"/><path class="st8" d="M230.4 77l7.3 50.5c.2 1.2-.6 2.2-1.8 2.4l-84.1 12.2c-1.2.2-2.2-.6-2.4-1.8l-7.3-50.5c-.2-1.2.6-2.2 1.8-2.4l84.2-12.2c1.1-.1 2.2.7 2.3 1.8z"/><path class="st20" d="M151.4 143.7c-1.8-.1-3.3-1.4-3.5-3.2L140.5 90c-.3-2.1 1.1-3.9 3.2-4.2L228 73.6c2-.1 3.7 1.3 4 3.2l7.3 50.5c.3 2.1-1.1 3.9-3.2 4.2L152 143.7h-.6zm76.8-66.9L144.1 89c-.3 0-.5.3-.5.6L151 140c0 .3.3.5.6.5l84.1-12.2c.3 0 .5-.3.5-.6l-7.3-50.5c-.1-.2-.3-.4-.7-.4z"/><g><path class="st8" d="M255.8 55.2l8 58.9c.2 1.4-.7 2.6-2.1 2.8l-98.1 13.4c-1.4.2-2.6-.7-2.8-2.1l-8-58.9c-.2-1.4.7-2.6 2.1-2.8l98.2-13.4c1.3-.1 2.5.8 2.7 2.1z"/><path class="st20" d="M163 132c-.9 0-1.7-.3-2.4-.8-.9-.7-1.5-1.7-1.6-2.8l-8-58.9c-.2-1.1.1-2.3.8-3.1.7-.9 1.7-1.5 2.8-1.6L253 51.3c2.2-.1 4.2 1.5 4.5 3.7l8 58.9c.3 2.4-1.3 4.4-3.6 4.8L163.8 132h-.8z"/><path class="st8" d="M253.2 54.8l-98.1 13.4c-.2 0-.4.1-.5.3-.1.1-.2.3-.1.6l8 58.9c0 .2.1.4.3.5.2.1.3.2.6.1l98.1-13.4c.5-.1.7-.4.6-.8l-8-58.9c-.1-.4-.5-.7-.9-.7z"/></g><ellipse transform="rotate(-7.022 208.125 91.274)" class="st35 playButtonCircle" cx="208.2" cy="91.3" rx="13.8" ry="13.8"/><path class="st3" d="M163 126.4l-4.3-33.3-8.7 1.8c-2 .4-3.3 2.4-2.9 4.5l2 9.3-6.1 1.3c-2 .4-3.3 2.4-2.9 4.5l1.2 5.7-4.3.9c-2 .4-3.3 2.4-2.9 4.5l1.5 7.2-1.6.3c-2 .4-3.3 2.4-2.9 4.5l6.7 31.5c.4 2 2.4 3.3 4.5 2.9l68-14.4c2-.4 3.3-2.4 2.9-4.5l-1.5-7.2 1.6-.3c2-.4 3.3-2.4 2.9-4.5l-1.2-5.5 18.5-3.9c2-.4 3.3-2.4 2.9-4.5l-1.9-8.9-67.1 9.3c-2.2.3-4.1.9-4.4-1.2z"/><path class="st36 playButton" d="M204 91.8l-.8-6.1 6.1 2.3 6.1 2.4-5.3 3.8-5.4 3.8z"/><path class="st37" d="M266.2 141.2c-.9 6.9-2.9 13.8-6.2 20.3-8.4 16.7-23.4 27.9-40.1 32.2"/></g></svg>