<svg width="233" height="74" viewBox="0 0 233 74" fill="none" xmlns="http://www.w3.org/2000/svg"><path d="M60.171 21.417c-.956-1.86-2.55-3.403-4.717-4.62C53.286 15.583 50.674 15 47.68 15c-5.037 0-9.242 2.103-12.55 6.417C32.636 17.117 28.49 15 22.69 15c-4.589 0-8.14 1.605-10.833 4.812V16.09H0v41.847h11.87v-22.47c-.002-.901.061-1.802.19-2.694.176-1.053.454-2.085.828-3.081a5.603 5.603 0 012.232-2.888 6.793 6.793 0 013.873-1.086c4.41 0 6.628 2.632 6.628 7.892V58h11.87V34.893c.445-6.158 2.805-9.175 7.075-9.175 1.784 0 3.186.512 4.206 1.538 1.017 1.027 1.72 2.054 1.977 3.08.26 1.071.387 2.171.38 3.274V58H63V31.045a15.786 15.786 0 00-.638-4.43 25.845 25.845 0 00-2.19-5.198zM78.002.001a7.022 7.022 0 00-2.693.482 6.702 6.702 0 00-2.26 1.462 6.334 6.334 0 00-1.516 2.08A6.027 6.027 0 0071 6.5c0 .85.181 1.692.533 2.474.352.783.868 1.49 1.516 2.081a6.932 6.932 0 002.268 1.445c.85.334 1.764.504 2.685.499a7.023 7.023 0 002.69-.482 6.703 6.703 0 002.26-1.462 6.333 6.333 0 001.515-2.08A6.027 6.027 0 0085 6.5c0-.85-.181-1.692-.533-2.474a6.334 6.334 0 00-1.516-2.081A6.702 6.702 0 0080.692.483a7.022 7.022 0 00-2.69-.482zM84 17H72v41h12V17zM189.999 61.002a7.027 7.027 0 00-2.693.48 6.696 6.696 0 00-2.261 1.463 6.354 6.354 0 00-1.513 2.082A6.039 6.039 0 00183 67.5c0 .85.181 1.691.532 2.474.352.782.866 1.49 1.513 2.081a6.93 6.93 0 002.269 1.445 7.254 7.254 0 002.685.499 7.027 7.027 0 002.692-.482 6.706 6.706 0 002.26-1.462 6.333 6.333 0 001.515-2.08 6.011 6.011 0 000-4.95 6.333 6.333 0 00-1.515-2.08 6.656 6.656 0 00-2.258-1.466 6.973 6.973 0 00-2.694-.477zM196 17h-12v41h12V17zM118.735 17l-7.774 11.366L103.252 17H90l14.144 20.37L90 57.986h13.252l7.709-11.427L118.735 58H132l-14.079-20.617L132 17h-13.265zM176.389 17h-14.256l-12.281 16.791V17H138v41h11.852V40.518L163.854 58H179l-16.802-20.878L176.389 17zM222.397 16.76c0-6.512-5.393-11.76-12.1-11.76v11.76H202v10.496h8.297v14.671c0 2.97.456 5.563 1.431 7.776.975 2.213 2.012 3.798 3.112 4.806a14.223 14.223 0 004.221 2.417c1.69.566 2.859.884 3.64.946.782.062 1.559.128 2.469.128a76.466 76.466 0 007.73-.38v-9.94c-1.234.127-2.337.252-3.457.317a9.926 9.926 0 01-3.509-.57 5.56 5.56 0 01-2.144-1.329 6.641 6.641 0 01-1.383-2.97 2.23 2.23 0 01-.062-.569V27.257H233V16.76h-10.603z" fill="#2A2A2A"/></svg>
