<svg width="156" height="38" viewBox="0 0 156 38" fill="none" xmlns="http://www.w3.org/2000/svg"><path d="M.484 10.676h7.625v3.92c1.927-2.812 4.592-4.197 7.954-4.237 1.189 0 2.05.08 2.542.158v6.652l-2.091-.198c-1.845 0-3.444.554-4.797 1.583-1.353 1.03-2.296 2.217-2.788 3.405-.533 1.267-.82 2.415-.82 3.445v11.044H.484V10.676zM47.902 26.645H27.813c.82 2.652 2.952 3.959 6.519 3.959 2.296 0 4.428-.555 6.518-1.703l4.551 5.226c-3.608 2.02-7.256 3.049-10.905 3.049-4.059 0-7.503-1.346-10.373-4.038-2.87-2.653-4.304-5.86-4.304-9.621 0-3.722 1.435-6.928 4.305-9.581 2.87-2.653 6.272-3.999 10.33-3.999 3.732 0 6.889 1.267 9.512 3.761 2.624 2.495 3.895 5.939 3.895 10.373v2.574h.041zm-19.925-5.82h12.75c-1.188-2.811-3.28-4.236-6.395-4.236-3.116 0-5.248 1.385-6.355 4.236zM55.528 28.228c.45.792 1.189 1.386 2.132 1.821.943.436 1.803.713 2.541.753l1.066.079c2.747 0 4.1-.554 4.1-1.742.082-1.9-5.166-2.138-9.183-3.88-2.83-1.109-5.043-3.563-5.043-7.364 0-2.098.943-3.959 2.788-5.543 1.845-1.583 4.468-2.375 7.871-2.375 2.542 0 4.674.554 6.396 1.702 1.763 1.149 3.034 2.297 3.813 3.405l-5.002 3.524c-1.517-1.544-3.157-2.336-4.92-2.336-2.255 0-3.362.554-3.32 1.623-.083 2.336 5.124 2.534 9.183 4.038 2.788 1.03 5.043 3.524 5.043 7.245 0 1.94-1.066 3.762-3.157 5.424-2.132 1.703-5.043 2.534-8.774 2.534-3.115 0-5.944-.91-7.707-2.336-1.763-1.425-2.665-2.375-3.239-3.365l5.412-3.207zM94.173 36.542v-14.41c0-3.683-1.64-5.544-4.92-5.583-1.968 0-3.403.673-4.264 2.098-.86 1.426-1.312 2.692-1.312 3.96v13.896h-7.625V0h7.625v12.907c1.763-1.94 4.305-2.93 7.585-2.93 3.772 0 6.723 1.583 8.076 3.325.656.872 1.189 1.861 1.64 2.93.82 2.138.82 3.049.82 3.643v16.628h-7.625v.04zM119.026 10.017c4.059 0 7.544 1.346 10.495 3.998 2.911 2.653 4.346 5.86 4.346 9.581 0 3.761-1.435 6.968-4.346 9.62-2.91 2.693-6.395 4.039-10.495 4.039s-7.585-1.346-10.495-4.038c-2.911-2.653-4.387-5.86-4.387-9.62 0-3.722 1.435-6.93 4.387-9.582 2.91-2.692 6.395-3.998 10.495-3.998zm0 20.587c2.009 0 3.731-.673 5.166-2.02 1.435-1.346 2.132-3.008 2.132-4.988 0-1.98-.697-3.642-2.132-4.988-1.435-1.346-3.157-1.98-5.166-1.98-2.05 0-3.772.673-5.166 1.98-1.435 1.346-2.173 3.009-2.173 4.988 0 1.98.697 3.642 2.173 4.989 1.394 1.346 3.116 2.019 5.166 2.019zM135.532 17.262V10.69h5.248V3.208c5.052 0 7.625 4.069 7.625 7.482h6.683v6.572h-6.683v9.541c-.041.08.041 1.188.943 2.217.574.594 1.845 1.188 3.526 1.188.697-.04 1.394-.08 2.173-.198v6.216a47.864 47.864 0 01-4.879.237c-.574 0-1.066-.04-1.558-.079-.492-.04-1.23-.238-2.296-.633-1.066-.357-1.968-.871-2.665-1.505-1.475-1.267-2.91-4.157-2.91-7.879v-9.105h-5.207z" fill="#2A2A2A"/></svg>
