<svg width="499" height="575" viewBox="0 0 499 575" fill="none" xmlns="http://www.w3.org/2000/svg"><g filter="url(#filter0_d)"><rect x="75.872" y="122" width="120" height="120" rx="16" transform="rotate(10.017 75.872 122)" fill="#F2C007"/><rect x="99.387" y="155.602" width="62" height="62" rx="8" transform="rotate(10.017 99.387 155.602)" fill="#FEF4CB"/><path d="M138.609 192.251c1.179.99.844 2.885-.603 3.412l-22.788 8.287c-1.447.526-2.921-.712-2.653-2.228l4.217-23.879c.268-1.516 2.077-2.174 3.256-1.184l18.571 15.592z" fill="#F2C007"/></g><g opacity=".5" fill="#D4CFF9"><rect x="396.067" y="125" width="103.872" height="103.872" rx="16" transform="rotate(10.017 396.067 125)"/><path d="M450.016 185.51c1.179.99.844 2.885-.603 3.411l-18.851 6.855c-1.447.527-2.921-.711-2.653-2.227l3.489-19.753c.268-1.516 2.077-2.174 3.256-1.184l15.362 12.898z"/></g><g filter="url(#filter1_d)"><rect x="207.073" y="3" width="120" height="120" rx="16" transform="rotate(8.662 207.073 3)" fill="#523EE8"/><path fill-rule="evenodd" clip-rule="evenodd" d="M232.297 43.258a4 4 0 0 1 4.557-3.352l48.441 7.38a4 4 0 0 1 3.352 4.557l-7.148 46.918a4 4 0 0 1-4.557 3.352l-48.441-7.38a4 4 0 0 1-3.352-4.556l7.148-46.919zm3.137 12.616a2 2 0 0 1 2.278-1.676l42.509 6.476a2 2 0 0 1 1.676 2.278l-4.819 31.635a2 2 0 0 1-2.278 1.676l-42.51-6.476a2 2 0 0 1-1.676-2.278l4.82-31.635zm3.599-5.335a2.755 2.755 0 1 0 .83-5.447 2.755 2.755 0 0 0-.83 5.447zm12.218-.926a2.756 2.756 0 1 1-5.449-.832 2.756 2.756 0 0 1 5.449.832zm5.94 3.692a2.756 2.756 0 1 0 .83-5.449 2.756 2.756 0 0 0-.83 5.449z" fill="#D4CFF9"/><rect x="239.925" y="59.593" width="19" height="27" rx="2" transform="rotate(8.662 239.925 59.593)" fill="#A095F2"/></g><g filter="url(#filter2_d)"><rect x="4" y="62.151" width="100" height="100" rx="16" transform="rotate(-6.98 4 62.151)" fill="#035DD9"/><path fill-rule="evenodd" clip-rule="evenodd" d="M32.396 89.74a4 4 0 0 0-3.484 4.456l4.192 34.244a4 4 0 0 0 4.456 3.484l34.245-4.192a4 4 0 0 0 3.484-4.456l-4.192-34.245a4 4 0 0 0-4.457-3.484L32.396 89.74zm15.44 9.357l-9.801 1.2-.683-5.58 26.293-3.22.683 5.581-9.802 1.2 3.236 26.433-6.69.819-3.236-26.433z" fill="#E6F0FF"/><path fill-rule="evenodd" clip-rule="evenodd" d="M74.663 77.008l13.234-1.62.608 4.963-3.307.405 5.873 47.975 3.307-.405.608 4.963-13.235 1.62-.607-4.963 3.31-.405-5.874-47.975-3.31.405-.607-4.963z" fill="#74AFFF"/></g><g filter="url(#filter3_d)"><rect x="236" y="255" width="120" height="120" rx="16" fill="#008C8E"/><path d="M296.746 330.134c5.11 0 9.252-4.139 9.252-9.245 0-5.105-4.142-9.244-9.252-9.244s-9.252 4.139-9.252 9.244c0 5.106 4.142 9.245 9.252 9.245z" fill="#E5F6F6"/><path d="M288.073 292l-5.291 5.777h-9.165c-3.18 0-5.783 2.6-5.783 5.778v34.667c0 3.178 2.603 5.778 5.783 5.778h46.26c3.18 0 5.782-2.6 5.782-5.778v-34.667c0-3.178-2.602-5.778-5.782-5.778h-9.166L305.42 292h-17.347zm8.674 43.333c-7.98 0-14.456-6.471-14.456-14.445 0-7.973 6.476-14.444 14.456-14.444 7.98 0 14.456 6.471 14.456 14.444 0 7.974-6.476 14.445-14.456 14.445z" fill="#73CDCF"/></g><g filter="url(#filter4_dd)"><path fill-rule="evenodd" clip-rule="evenodd" d="M219.072 288.348a5 5 0 0 0-4.957-4.348H64a5 5 0 0 0-5 5V501.271a5 5 0 0 0 5 5h309a5 5 0 0 0 5-5V328.103a5 5 0 0 0-5-5H228.03a5 5 0 0 1-4.957-4.347l-4.001-30.408z" fill="#9AC5FF"/></g><path d="M256.074 446.1h-73.562v-14.948h-10.593v25.725h94.748v-25.725h-10.593V446.1z" fill="#74AFFF"/><path d="M219.292 437.326l21.628-37.722h-16.385v-33.281h-10.486v33.281h-16.384l21.627 37.722z" fill="#74AFFF"/><g filter="url(#filter5_d)"><rect x="338" y="101" width="100" height="100" rx="16" transform="rotate(-16.119 338 101)" fill="#D74000"/></g><path d="M396.246 114.547l-10.025 16.146-15.687 4.534 5.651 19.555 15.687-4.534 17.087 8.287-12.713-43.988z" fill="#FFDFD7"/><path d="M412.662 113.505c13.019 7.181 17.745 23.534 10.558 36.531M407 122.82c8.337 4.599 11.362 15.064 6.763 23.401" stroke="#FE9183" stroke-width="5" stroke-miterlimit="10"/><defs><filter id="filter0_d" x="51" y="119" width="147.043" height="147.043" filterUnits="userSpaceOnUse" color-interpolation-filters="sRGB"><feFlood flood-opacity="0" result="BackgroundImageFix"/><feColorMatrix in="SourceAlpha" values="0 0 0 0 0 0 0 0 0 0 0 0 0 0 0 0 0 0 127 0"/><feOffset dy="1"/><feGaussianBlur stdDeviation="2"/><feColorMatrix values="0 0 0 0 0 0 0 0 0 0 0 0 0 0 0 0 0 0 0.08 0"/><feBlend in2="BackgroundImageFix" result="effect1_dropShadow"/><feBlend in="SourceGraphic" in2="effect1_dropShadow" result="shape"/></filter><filter id="filter1_d" x="185" y="0" width="144.704" height="144.704" filterUnits="userSpaceOnUse" color-interpolation-filters="sRGB"><feFlood flood-opacity="0" result="BackgroundImageFix"/><feColorMatrix in="SourceAlpha" values="0 0 0 0 0 0 0 0 0 0 0 0 0 0 0 0 0 0 127 0"/><feOffset dy="1"/><feGaussianBlur stdDeviation="2"/><feColorMatrix values="0 0 0 0 0 0 0 0 0 0 0 0 0 0 0 0 0 0 0.08 0"/><feBlend in2="BackgroundImageFix" result="effect1_dropShadow"/><feBlend in="SourceGraphic" in2="effect1_dropShadow" result="shape"/></filter><filter id="filter2_d" x="0" y="47" width="119.41" height="119.41" filterUnits="userSpaceOnUse" color-interpolation-filters="sRGB"><feFlood flood-opacity="0" result="BackgroundImageFix"/><feColorMatrix in="SourceAlpha" values="0 0 0 0 0 0 0 0 0 0 0 0 0 0 0 0 0 0 127 0"/><feOffset dy="1"/><feGaussianBlur stdDeviation="2"/><feColorMatrix values="0 0 0 0 0 0 0 0 0 0 0 0 0 0 0 0 0 0 0.08 0"/><feBlend in2="BackgroundImageFix" result="effect1_dropShadow"/><feBlend in="SourceGraphic" in2="effect1_dropShadow" result="shape"/></filter><filter id="filter3_d" x="232" y="252" width="128" height="128" filterUnits="userSpaceOnUse" color-interpolation-filters="sRGB"><feFlood flood-opacity="0" result="BackgroundImageFix"/><feColorMatrix in="SourceAlpha" values="0 0 0 0 0 0 0 0 0 0 0 0 0 0 0 0 0 0 127 0"/><feOffset dy="1"/><feGaussianBlur stdDeviation="2"/><feColorMatrix values="0 0 0 0 0 0 0 0 0 0 0 0 0 0 0 0 0 0 0.08 0"/><feBlend in2="BackgroundImageFix" result="effect1_dropShadow"/><feBlend in="SourceGraphic" in2="effect1_dropShadow" result="shape"/></filter><filter id="filter4_dd" x="25" y="264" width="407" height="310.271" filterUnits="userSpaceOnUse" color-interpolation-filters="sRGB"><feFlood flood-opacity="0" result="BackgroundImageFix"/><feColorMatrix in="SourceAlpha" values="0 0 0 0 0 0 0 0 0 0 0 0 0 0 0 0 0 0 127 0"/><feOffset dy="1"/><feColorMatrix values="0 0 0 0 0.427451 0 0 0 0 0.564706 0 0 0 0 0.764706 0 0 0 1 0"/><feBlend in2="BackgroundImageFix" result="effect1_dropShadow"/><feColorMatrix in="SourceAlpha" values="0 0 0 0 0 0 0 0 0 0 0 0 0 0 0 0 0 0 127 0"/><feOffset dx="10" dy="24"/><feGaussianBlur stdDeviation="22"/><feColorMatrix values="0 0 0 0 0.249375 0 0 0 0 0.269294 0 0 0 0 0.554167 0 0 0 0.1 0"/><feBlend in2="effect1_dropShadow" result="effect2_dropShadow"/><feBlend in="SourceGraphic" in2="effect2_dropShadow" result="shape"/></filter><filter id="filter5_d" x="334" y="70.237" width="131.832" height="131.832" filterUnits="userSpaceOnUse" color-interpolation-filters="sRGB"><feFlood flood-opacity="0" result="BackgroundImageFix"/><feColorMatrix in="SourceAlpha" values="0 0 0 0 0 0 0 0 0 0 0 0 0 0 0 0 0 0 127 0"/><feOffset dy="1"/><feGaussianBlur stdDeviation="2"/><feColorMatrix values="0 0 0 0 0 0 0 0 0 0 0 0 0 0 0 0 0 0 0.08 0"/><feBlend in2="BackgroundImageFix" result="effect1_dropShadow"/><feBlend in="SourceGraphic" in2="effect1_dropShadow" result="shape"/></filter></defs></svg>
