<svg width="767" height="638" viewBox="0 0 767 638" fill="none" xmlns="http://www.w3.org/2000/svg"><g opacity=".7"><g filter="url(#filter0_d)"><rect x="508.058" y="278.085" width="218" height="168" rx="6" transform="rotate(-15 508.058 278.085)" fill="#fff"/><path fill="#E6F0FF" d="M546.409 351.666l60.853-16.306 2.07 7.728-60.852 16.305zM550.032 365.189l60.853-16.306 2.07 7.728-60.852 16.305zM553.656 378.712l53.126-14.235 2.07 7.727-53.125 14.235z"/><path fill="#9AC5FF" d="M541.232 332.347l40.569-10.87 2.07 7.727-40.568 10.87z"/><path fill-rule="evenodd" clip-rule="evenodd" d="M625.665 312.775c-2.051-7.653 1.851-15.555 9.355-18.096 6.871-2.327 16.551-5.355 29.201-8.745 12.65-3.39 22.547-5.607 29.661-7.027 7.77-1.551 15.099 3.341 17.15 10.994l27.001 100.768-85.367 22.874-11.122-41.508-1.567.419-3.427-12.792 1.566-.419-1.329-4.961-1.566.42-6.016-22.451 1.566-.42-5.106-19.056z" fill="#9AC5FF"/><g clip-path="url(#clip0)"><path d="M631.77 318.436a4 4 0 012.829-4.899l69.546-18.635a4 4 0 014.899 2.828l58.752 219.266a4 4 0 01-2.828 4.899l-69.547 18.635a4 4 0 01-4.899-2.829L631.77 318.436z" fill="#fff"/><path fill="#2983FF" fill-opacity=".1" d="M634.668 317.659l71.479-19.153 29.246 109.15-71.478 19.153z"/></g><rect x="656.643" y="296.811" width="15.676" height="2.703" rx="1.351" transform="rotate(-15 656.643 296.811)" fill="#E6F0FF"/><rect x="673.872" y="292.194" width="2.703" height="2.703" rx="1.351" transform="rotate(-15 673.872 292.194)" fill="#E6F0FF"/></g><g filter="url(#filter1_d)"><rect x="4" y="220.585" width="218" height="168" rx="6" transform="rotate(-15 4 220.585)" fill="#fff"/><rect x="18.697" y="229.071" width="93" height="144" rx="4" transform="rotate(-15 18.697 229.071)" fill="#E6F0FF"/><rect x="116.255" y="202.93" width="93" height="68" rx="4" transform="rotate(-15 116.255 202.93)" fill="#C0DBFF"/><rect x="135.926" y="276.34" width="93" height="68" rx="4" transform="rotate(-15 135.926 276.34)" fill="#E6F0FF"/></g><g filter="url(#filter2_d)"><rect x="459.917" y="98.423" width="218" height="168" rx="6" transform="rotate(-15 459.917 98.423)" fill="#fff"/><rect x="502.334" y="125.362" width="111" height="8" rx="4" transform="rotate(-15 502.334 125.362)" fill="#C0DBFF"/><rect x="511.652" y="160.135" width="155" height="8" rx="4" transform="rotate(-15 511.652 160.135)" fill="#C0DBFF"/><rect x="520.97" y="194.909" width="69" height="8" rx="4" transform="rotate(-15 520.97 194.909)" fill="#C0DBFF"/><rect x="506.476" y="140.817" width="80" height="8" rx="4" transform="rotate(-15 506.476 140.817)" fill="#9AC5FF"/><rect x="515.793" y="175.59" width="93" height="8" rx="4" transform="rotate(-15 515.793 175.59)" fill="#9AC5FF"/><rect x="525.111" y="210.364" width="127" height="8" rx="4" transform="rotate(-15 525.111 210.364)" fill="#9AC5FF"/><path stroke="#E6F0FF" stroke-width="2" d="M489.121 118.55l29.506 110.115"/></g><g filter="url(#filter3_d)"><rect x="267.158" y="290.87" width="218" height="168" rx="6" transform="rotate(-15 267.158 290.87)" fill="#fff"/><path fill="#C0DBFF" d="M441.806 305.154l31.876-8.541 2.07 7.727-31.875 8.541zM305.75 349.893l28.978-7.765 2.07 7.728-28.977 7.764z"/><path fill="#E6F0FF" d="M309.373 363.416l20.284-5.435 2.071 7.727-20.284 5.435zM383.565 404.617l32.841-8.8 2.071 7.728-32.841 8.8zM445.43 318.677l23.182-6.212 2.07 7.728-23.181 6.211z"/><path fill="#C0DBFF" d="M379.941 391.094l43.467-11.647 2.07 7.728-43.466 11.646z"/><path fill-rule="evenodd" clip-rule="evenodd" d="M378.863 298.209c-20.805 5.574-33.151 26.959-27.577 47.765 5.575 20.805 26.96 33.151 47.765 27.577 20.483-5.488 32.767-26.3 27.824-46.796l-37.659 10.091-10.353-38.637z" fill="#E6F0FF"/><mask id="a" maskUnits="userSpaceOnUse" x="345" y="282" width="97" height="97"><path fill-rule="evenodd" clip-rule="evenodd" d="M431.389 320.369c-5.575-20.805-26.96-33.152-47.765-27.577-20.805 5.575-33.152 26.96-27.577 47.765 5.488 20.482 26.299 32.767 46.796 27.824l-10.091-37.659 38.637-10.353z" fill="#E6F0FF"/></mask><g mask="url(#a)"><path fill="#9AC5FF" d="M438.335 257.427l16.823 62.785-59.887 16.047-16.823-62.785z"/></g></g><g filter="url(#filter4_d)"><rect x="315.298" y="470.532" width="218" height="168" rx="6" transform="rotate(-15 315.298 470.532)" fill="#fff"/><path fill="#E6F0FF" d="M455.968 512.556l70.513-18.894 2.07 7.728-70.512 18.893zM459.591 526.079l70.513-18.894 2.07 7.728-70.512 18.893zM463.214 539.602l53.126-14.235 2.07 7.727-53.125 14.235z"/><path fill="#9AC5FF" d="M450.792 493.237l40.569-10.87 2.07 7.727-40.568 10.87z"/><rect x="329.995" y="479.017" width="93" height="144" rx="4" transform="rotate(-15 329.995 479.017)" fill="#E6F0FF"/><path fill="#C0DBFF" d="M389.217 553.218l17.387-4.659 2.07 7.728-17.386 4.658z"/><path d="M424.956 543.641c-4.002-14.937-19.355-23.801-34.292-19.799-14.937 4.003-23.802 19.356-19.799 34.293" stroke="#C0DBFF" stroke-width="9"/><path d="M370.865 558.135c-4.003-14.937 4.862-30.29 19.799-34.293a27.906 27.906 0 0120.881 2.59" stroke="#9AC5FF" stroke-width="9"/></g><g filter="url(#filter5_d)"><rect x="52.141" y="400.247" width="218" height="168" rx="6" transform="rotate(-15 52.14 400.247)" fill="#fff"/><path fill="#9AC5FF" d="M77.153 416.321l102.388-27.435 2.07 7.728-102.387 27.434z"/><path fill="#E6F0FF" d="M103.649 434.068l78.24-20.964 2.07 7.727-78.24 20.964zM108.826 453.387l91.763-24.588 2.07 7.728-91.762 24.587zM122.802 505.547l91.763-24.588 2.07 7.728-91.762 24.587zM114.002 472.705l104.32-27.952 2.07 7.727-104.32 27.952zM117.625 486.228l65.683-17.6 2.07 7.728-65.682 17.6z"/><path d="M90.674 435.872l6.878 3.971-3.971 6.878-1.498-.864 2.488-4.318-7.564 2.027-.449-1.674 7.565-2.027-4.314-2.496.865-1.497zM95.85 455.19l6.879 3.972-3.972 6.878-1.497-.865 2.487-4.317-7.564 2.027-.448-1.675 7.564-2.027-4.313-2.495.864-1.498zM109.827 507.35l6.878 3.972-3.971 6.878-1.498-.865 2.488-4.317-7.564 2.026-.449-1.674 7.564-2.027-4.313-2.495.865-1.498zM101.026 474.509l6.879 3.971-3.971 6.878-1.498-.864 2.488-4.318-7.565 2.027-.448-1.674 7.564-2.027-4.313-2.496.864-1.497z" fill="#000"/></g></g><g filter="url(#filter6_d)"><rect x="180.15" y="129.549" width="284.345" height="219.128" rx="6" transform="rotate(-15 180.15 129.549)" fill="#fff"/></g><path fill="#E7E7E8" d="M219.527 175.712l225.52-60.428 2.701 10.08-225.52 60.427zM224.253 193.351l152.446-40.848 2.701 10.08-152.446 40.847z"/><path fill="#A1A1A3" d="M212.775 150.514l52.915-14.179 2.701 10.08-52.915 14.178z"/><rect x="237.693" y="241.58" width="30.304" height="30.304" rx="3.5" transform="rotate(-15 237.693 241.58)" fill="#8678EF" stroke="#6B389C"/><rect x="247.209" y="279.023" width="31.304" height="31.304" rx="4" transform="rotate(-15 247.209 279.023)" fill="#FFDBC8"/><rect x="274.878" y="231.099" width="31.304" height="31.304" rx="4" transform="rotate(-15 274.878 231.099)" fill="#00A5A7"/><rect x="285.006" y="268.896" width="31.304" height="31.304" rx="4" transform="rotate(-15 285.006 268.896)" fill="#C0DBFF"/><rect x="312.675" y="220.972" width="31.304" height="31.304" rx="4" transform="rotate(-15 312.675 220.972)" fill="#2983FF"/><path d="M403.77 271.641l.813-12.889 18.82-4.839 6.929 10.898 11.817-3.038-31.39-47.533-14.211 3.654-4.594 56.785 11.816-3.038zm1.401-22.217l1.343-21.386.408-.105 11.492 18.086-13.243 3.405zM457.774 258.543c5.781-1.487 8.876-4.971 9.85-9.103l.305-.079 1.395 5.424 10.289-2.645-6.784-26.384c-2.397-9.32-11.3-11.212-20.009-8.973-9.372 2.41-14.383 8.476-14.052 15.994l10.244-1.765c.07-2.788 1.897-5.294 5.793-6.296 3.693-.949 6.285.366 7.11 3.575l.039.153c.648 2.521-1.941 3.54-8.57 5.95-7.559 2.704-13.843 7.089-11.597 15.824 1.99 7.742 8.525 10.243 15.987 8.325zm1.182-8.287c-3.336.858-6.13-.08-6.896-3.059-.786-3.056 1.349-5.207 5.032-6.724 2.283-.94 6.01-2.496 7.086-3.696l1.067 4.152c1.055 4.1-1.527 8.103-6.289 9.327z" fill="#A1A1A3"/><defs><filter id="filter0_d" x="504.058" y="218.662" width="262.053" height="226.698" filterUnits="userSpaceOnUse" color-interpolation-filters="sRGB"><feFlood flood-opacity="0" result="BackgroundImageFix"/><feColorMatrix in="SourceAlpha" values="0 0 0 0 0 0 0 0 0 0 0 0 0 0 0 0 0 0 127 0"/><feOffset dy="1"/><feGaussianBlur stdDeviation="2"/><feColorMatrix values="0 0 0 0 0 0 0 0 0 0 0 0 0 0 0 0 0 0 0.08 0"/><feBlend in2="BackgroundImageFix" result="effect1_dropShadow"/><feBlend in="SourceGraphic" in2="effect1_dropShadow" result="shape"/></filter><filter id="filter1_d" x="0" y="161.163" width="262.053" height="226.698" filterUnits="userSpaceOnUse" color-interpolation-filters="sRGB"><feFlood flood-opacity="0" result="BackgroundImageFix"/><feColorMatrix in="SourceAlpha" values="0 0 0 0 0 0 0 0 0 0 0 0 0 0 0 0 0 0 127 0"/><feOffset dy="1"/><feGaussianBlur stdDeviation="2"/><feColorMatrix values="0 0 0 0 0 0 0 0 0 0 0 0 0 0 0 0 0 0 0.08 0"/><feBlend in2="BackgroundImageFix" result="effect1_dropShadow"/><feBlend in="SourceGraphic" in2="effect1_dropShadow" result="shape"/></filter><filter id="filter2_d" x="455.917" y="39" width="262.053" height="226.698" filterUnits="userSpaceOnUse" color-interpolation-filters="sRGB"><feFlood flood-opacity="0" result="BackgroundImageFix"/><feColorMatrix in="SourceAlpha" values="0 0 0 0 0 0 0 0 0 0 0 0 0 0 0 0 0 0 127 0"/><feOffset dy="1"/><feGaussianBlur stdDeviation="2"/><feColorMatrix values="0 0 0 0 0 0 0 0 0 0 0 0 0 0 0 0 0 0 0.08 0"/><feBlend in2="BackgroundImageFix" result="effect1_dropShadow"/><feBlend in="SourceGraphic" in2="effect1_dropShadow" result="shape"/></filter><filter id="filter3_d" x="263.158" y="231.447" width="262.053" height="226.698" filterUnits="userSpaceOnUse" color-interpolation-filters="sRGB"><feFlood flood-opacity="0" result="BackgroundImageFix"/><feColorMatrix in="SourceAlpha" values="0 0 0 0 0 0 0 0 0 0 0 0 0 0 0 0 0 0 127 0"/><feOffset dy="1"/><feGaussianBlur stdDeviation="2"/><feColorMatrix values="0 0 0 0 0 0 0 0 0 0 0 0 0 0 0 0 0 0 0.08 0"/><feBlend in2="BackgroundImageFix" result="effect1_dropShadow"/><feBlend in="SourceGraphic" in2="effect1_dropShadow" result="shape"/></filter><filter id="filter4_d" x="311.298" y="411.109" width="262.053" height="226.698" filterUnits="userSpaceOnUse" color-interpolation-filters="sRGB"><feFlood flood-opacity="0" result="BackgroundImageFix"/><feColorMatrix in="SourceAlpha" values="0 0 0 0 0 0 0 0 0 0 0 0 0 0 0 0 0 0 127 0"/><feOffset dy="1"/><feGaussianBlur stdDeviation="2"/><feColorMatrix values="0 0 0 0 0 0 0 0 0 0 0 0 0 0 0 0 0 0 0.08 0"/><feBlend in2="BackgroundImageFix" result="effect1_dropShadow"/><feBlend in="SourceGraphic" in2="effect1_dropShadow" result="shape"/></filter><filter id="filter5_d" x="48.141" y="340.825" width="262.053" height="226.698" filterUnits="userSpaceOnUse" color-interpolation-filters="sRGB"><feFlood flood-opacity="0" result="BackgroundImageFix"/><feColorMatrix in="SourceAlpha" values="0 0 0 0 0 0 0 0 0 0 0 0 0 0 0 0 0 0 127 0"/><feOffset dy="1"/><feGaussianBlur stdDeviation="2"/><feColorMatrix values="0 0 0 0 0 0 0 0 0 0 0 0 0 0 0 0 0 0 0.08 0"/><feBlend in2="BackgroundImageFix" result="effect1_dropShadow"/><feBlend in="SourceGraphic" in2="effect1_dropShadow" result="shape"/></filter><filter id="filter6_d" x="120.15" y=".955" width="491.37" height="445.255" filterUnits="userSpaceOnUse" color-interpolation-filters="sRGB"><feFlood flood-opacity="0" result="BackgroundImageFix"/><feColorMatrix in="SourceAlpha" values="0 0 0 0 0 0 0 0 0 0 0 0 0 0 0 0 0 0 127 0"/><feOffset dx="20" dy="25"/><feGaussianBlur stdDeviation="40"/><feColorMatrix values="0 0 0 0 0.145098 0 0 0 0 0.603922 0 0 0 0 0.603922 0 0 0 0.2 0"/><feBlend in2="BackgroundImageFix" result="effect1_dropShadow"/><feBlend in="SourceGraphic" in2="effect1_dropShadow" result="shape"/></filter><clipPath id="clip0"><path transform="rotate(-15 630.425 313.625)" fill="#fff" d="M630.425 313.625h80v102h-80z"/></clipPath></defs></svg>
