<svg width="549" height="490" viewBox="0 0 549 490" fill="none" xmlns="http://www.w3.org/2000/svg"><rect y="204" width="381" height="242" rx="4" fill="#474271"/><g filter="url(#filter0_d)"><path d="M0 219.696c0-8.837 7.163-16 16-16h349c8.837 0 16 7.163 16 16v40l-176.704 64.93a39.995 39.995 0 0 1-27.592 0L0 259.696v-40z" fill="#474271"/></g><g filter="url(#filter1_d)"><rect x="89" y="133.696" width="79" height="149" rx="8" fill="#fff"/></g><circle cx="119" cy="171.696" r="18" fill="#8678EF"/><path d="M149.5 176.696l-6.5-7h13l-6.5 7z" fill="#C4C4C4"/><path stroke="#F3F3F3" d="M93 208.196h71"/><path d="M113.173 235.872h10.687v28.824h7.296v-28.824h10.687v-6.085h-28.67v6.085z" fill="#5A5A5E"/><path fill="#fff" d="M210 233h339v257H210z"/><path fill="#2983FF" fill-opacity=".1" stroke="#2983FF" stroke-dasharray="4 4" d="M221.5 244.5h316v236.304h-316z"/><path stroke="#4F99FF" d="M239.532 65.782h268.043v59.91H239.532z"/><path fill="#fff" stroke="#4F99FF" d="M501.892 59.934h10.316v10.964h-10.316zM374.298 60.343h10.316v10.964h-10.316zM374.297 120.165h10.316v10.964h-10.316zM501.891 119.755h10.316v10.964h-10.316zM233.361 60.344h10.316v10.964h-10.316zM233.36 120.165h10.316v10.964H233.36z"/><g clip-path="url(#clip0)" fill="#000"><path d="M259.581 98.035c2.183 0 3.952-1.87 3.952-4.179 0-2.308-1.769-4.179-3.952-4.179s-3.953 1.871-3.953 4.18c0 2.307 1.77 4.178 3.953 4.178zM273.285 98.035c2.183 0 3.952-1.87 3.952-4.179 0-2.308-1.769-4.179-3.952-4.179s-3.952 1.871-3.952 4.18c0 2.307 1.769 4.178 3.952 4.178zM286.978 98.035c2.182 0 3.952-1.87 3.952-4.179 0-2.308-1.77-4.179-3.952-4.179-2.183 0-3.953 1.871-3.953 4.18 0 2.307 1.77 4.178 3.953 4.178z"/><path d="M285.221 68.961c-6.565-.37-12.826 2.37-17.228 7.5-.147.18-.44.215-.699.096a18.053 18.053 0 0 0-9.425-1.596c-8.963.882-16.282 8.704-17.014 18.204-.417 5.37 1.16 10.572 4.448 14.644 2.364 2.929 5.393 5.012 8.772 6.108 1.069.345 2.24.035 3.04-.81l1.666-1.94c.304-.346.406-.87.406-1.108 0-.607-.473-.881-1.014-1.095-.214-.083-1.227-.393-1.227-.393-2.86-.631-5.428-2.226-7.364-4.619-2.624-3.251-3.705-7.537-2.917-11.87 1.126-6.263 6.362-10.953 12.387-11.251a12.437 12.437 0 0 1 5.968 1.167c2.488 1.154 5.36.535 7.139-1.536 3.254-3.798 7.916-5.822 12.769-5.548 8.299.452 14.977 7.703 15.202 16.49.124 4.761-1.576 9.262-4.797 12.607-3.108 3.239-7.398 4.882-11.767 4.882h-9.605c-4.324 0-8.401 1.69-11.554 4.786l-1.081 1.119-4.875 5.155 3.986 4.215 5.461-5.775c2.14-2.262 5.034-3.536 8.063-3.536h9.515c6.047 0 11.97-2.393 16.181-6.988 4.099-4.477 6.261-10.37 6.103-16.609-.315-11.905-9.335-21.68-20.539-22.299zM340.848 79.153h6.802l-9.414 15.787v15.882h-5.945v-15.87l-9.414-15.8h6.756l5.349 9.68h.518l5.348-9.68zM362.908 107.857c-2.151 2.131-4.741 3.191-7.77 3.191s-5.596-1.06-7.702-3.167c-2.117-2.107-3.164-4.881-3.164-8.322 0-3.465 1.092-6.262 3.277-8.393 2.184-2.132 4.763-3.191 7.758-3.191s5.551 1.06 7.657 3.167c2.106 2.107 3.164 4.881 3.164 8.322 0 3.476-1.069 6.274-3.22 8.393zM351.388 104c1.014 1.202 2.32 1.81 3.919 1.81 1.599 0 2.871-.596 3.806-1.786.935-1.191 1.408-2.691 1.408-4.5 0-1.81-.473-3.31-1.408-4.501-.946-1.19-2.207-1.786-3.806-1.786-1.599 0-2.905.607-3.919 1.81-1.013 1.202-1.52 2.702-1.52 4.476s.507 3.262 1.52 4.477zM384.922 88.201h5.777v22.621h-4.279l-.766-2.536h-.552c-1.396 1.845-3.479 2.762-6.249 2.762-2.77 0-4.887-.952-6.374-2.845-1.486-1.905-2.229-4.477-2.229-7.739V88.201h5.821v10.906c0 .905.034 1.667.102 2.286.067.619.225 1.309.45 2.059.225.75.631 1.334 1.194 1.739.574.404 1.284.607 2.139.607a4.86 4.86 0 0 0 1.588-.274c.518-.179 1.036-.5 1.588-.976.54-.465.979-1.191 1.306-2.167.327-.976.495-2.167.495-3.548V88.2h-.011zM408.535 87.975h1.329v5.786a9.207 9.207 0 0 0-1.88-.179c-1.689 0-3.119.489-4.324 1.453-1.205.964-1.802 2.417-1.802 4.346v11.441h-5.687v-22.62h4.369l.766 2.487h.687c1.712-1.81 3.896-2.714 6.542-2.714zM420.055 104.905h14.594v5.929h-20.585V79.153h5.991v25.752zM455.334 107.857c-2.151 2.131-4.741 3.191-7.77 3.191s-5.596-1.06-7.702-3.167c-2.117-2.107-3.164-4.881-3.164-8.322 0-3.465 1.092-6.262 3.277-8.393 2.184-2.132 4.774-3.191 7.77-3.191 2.995 0 5.551 1.06 7.657 3.167 2.105 2.107 3.164 4.881 3.164 8.322 0 3.476-1.081 6.274-3.232 8.393zM443.815 104c1.013 1.202 2.319 1.81 3.918 1.81 1.599 0 2.872-.596 3.806-1.786.935-1.191 1.408-2.691 1.408-4.5 0-1.81-.473-3.31-1.408-4.501-.946-1.19-2.207-1.786-3.806-1.786-1.599 0-2.905.607-3.918 1.81-1.014 1.202-1.521 2.702-1.521 4.476.012 1.774.518 3.262 1.521 4.477zM473.756 105.44c2.252 0 3.987.691 5.203 2.084 1.216 1.393 1.79 3.095 1.734 5.107-.09 2.441-1.036 4.298-2.872 5.56-1.824 1.262-4.098 1.905-6.801 1.905-3.254 0-5.765-.869-7.556-2.595-1.779-1.738-2.421-3.834-1.903-6.31l2.444-2.084c-1.509-1-2.264-2.321-2.264-3.976 0-1.691.89-3.036 2.658-4.024-1.453-1.417-2.185-3.227-2.185-5.43 0-2.226.766-4.083 2.309-5.535 1.542-1.465 3.626-2.19 6.249-2.19 1.881 0 3.514.38 4.876 1.13.687-.333 1.329-.75 1.948-1.238.608-.5 1.047-.917 1.306-1.238l.383-.453 2.658 3.75c-.969.691-2.117 1.25-3.423 1.68.822 1.202 1.238 2.559 1.238 4.071 0 2.167-.856 4-2.567 5.5-1.712 1.489-3.896 2.239-6.543 2.239-1.137 0-2.15-.131-3.04-.405-.428.274-.642.643-.642 1.131 0 .214.045.405.124.583a.813.813 0 0 0 .383.405c.169.095.338.167.518.226.169.06.394.096.687.107.281.012.518.024.687.024h4.391v-.024zm-2.657 9.418c1.374 0 2.432-.214 3.187-.655.754-.44 1.137-1.024 1.137-1.738 0-1.453-1.115-2.167-3.333-2.167-1.914 0-3.277-.012-4.11-.048l-1.453 1.631c-.169.691.124 1.37.878 2.012.744.631 1.982.965 3.694.965zm-.124-22.133c-1.194 0-2.106.262-2.714.774-.608.512-.923 1.203-.923 2.084 0 .904.304 1.63.923 2.166.608.548 1.52.81 2.714.81 1.171 0 2.072-.274 2.691-.81.631-.547.946-1.262.946-2.166 0-.87-.315-1.572-.946-2.084-.63-.512-1.531-.774-2.691-.774zM502.009 107.857c-2.151 2.131-4.74 3.191-7.77 3.191-3.029 0-5.596-1.06-7.702-3.167-2.117-2.107-3.164-4.881-3.164-8.322 0-3.465 1.092-6.262 3.277-8.393 2.184-2.132 4.774-3.191 7.77-3.191 2.995 0 5.551 1.06 7.657 3.167 2.117 2.107 3.164 4.881 3.164 8.322 0 3.476-1.07 6.274-3.232 8.393zM490.501 104c1.013 1.202 2.32 1.81 3.919 1.81 1.599 0 2.86-.596 3.806-1.786.946-1.191 1.407-2.691 1.407-4.5 0-1.81-.473-3.31-1.407-4.501-.946-1.19-2.207-1.786-3.806-1.786-1.599 0-2.906.607-3.919 1.81-1.013 1.202-1.52 2.702-1.52 4.476s.507 3.262 1.52 4.477z"/></g><path d="M410.995 388.426h-62.059v-10.999H340v18.929h79.931v-18.929h-8.936v10.999z" fill="#C0DBFF"/><path d="M379.378 328l-18.22 28.493h13.803v25.14h8.833v-25.14h13.803L379.378 328z" fill="#C0DBFF"/><defs><filter id="filter0_d" x="0" y="203.696" width="381" height="131.385" filterUnits="userSpaceOnUse" color-interpolation-filters="sRGB"><feFlood flood-opacity="0" result="BackgroundImageFix"/><feColorMatrix in="SourceAlpha" values="0 0 0 0 0 0 0 0 0 0 0 0 0 0 0 0 0 0 127 0"/><feOffset dy="8"/><feColorMatrix values="0 0 0 0 0 0 0 0 0 0 0 0 0 0 0 0 0 0 0.1 0"/><feBlend in2="BackgroundImageFix" result="effect1_dropShadow"/><feBlend in="SourceGraphic" in2="effect1_dropShadow" result="shape"/></filter><filter id="filter1_d" x="85" y="130.696" width="87" height="157" filterUnits="userSpaceOnUse" color-interpolation-filters="sRGB"><feFlood flood-opacity="0" result="BackgroundImageFix"/><feColorMatrix in="SourceAlpha" values="0 0 0 0 0 0 0 0 0 0 0 0 0 0 0 0 0 0 127 0"/><feOffset dy="1"/><feGaussianBlur stdDeviation="2"/><feColorMatrix values="0 0 0 0 0 0 0 0 0 0 0 0 0 0 0 0 0 0 0.08 0"/><feBlend in2="BackgroundImageFix" result="effect1_dropShadow"/><feBlend in="SourceGraphic" in2="effect1_dropShadow" result="shape"/></filter><clipPath id="clip0"><path fill="#fff" d="M240.787 68.926H505.24v55.206H240.787z"/></clipPath></defs></svg>
