<?xml version="1.0" encoding="UTF-8" standalone="no"?>
<!-- Created with Inkscape (http://www.inkscape.org/) -->

<svg
   width="250.65274mm"
   height="138.64951mm"
   viewBox="0 0 250.65274 138.64951"
   version="1.1"
   id="svg5"
   xml:space="preserve"
   inkscape:version="1.2.1 (9c6d41e410, 2022-07-14)"
   sodipodi:docname="tatech.svg"
   xmlns:inkscape="http://www.inkscape.org/namespaces/inkscape"
   xmlns:sodipodi="http://sodipodi.sourceforge.net/DTD/sodipodi-0.dtd"
   xmlns="http://www.w3.org/2000/svg"
   xmlns:svg="http://www.w3.org/2000/svg"><sodipodi:namedview
     id="namedview7"
     pagecolor="#505050"
     bordercolor="#ffffff"
     borderopacity="1"
     inkscape:showpageshadow="0"
     inkscape:pageopacity="0"
     inkscape:pagecheckerboard="1"
     inkscape:deskcolor="#505050"
     inkscape:document-units="mm"
     showgrid="false"
     inkscape:zoom="0.2973261"
     inkscape:cx="-553.26458"
     inkscape:cy="-396.87064"
     inkscape:window-width="1366"
     inkscape:window-height="705"
     inkscape:window-x="-8"
     inkscape:window-y="-8"
     inkscape:window-maximized="1"
     inkscape:current-layer="layer1" /><defs
     id="defs2"><filter
       inkscape:collect="always"
       style="color-interpolation-filters:sRGB"
       id="filter3253"
       x="-0.012731335"
       y="-0.010632127"
       width="1.0254627"
       height="1.0212643"><feGaussianBlur
         inkscape:collect="always"
         stdDeviation="0.26657849"
         id="feGaussianBlur3251" /></filter></defs><g
     inkscape:label="Layer 1"
     inkscape:groupmode="layer"
     id="layer1"
     transform="translate(326.75111,259.69381)"><path
       d="m -278.73966,-219.55102 c 24.52148,-4.34729 43.41773,4.24813 46.53391,21.82533 l 6.31767,35.63561 3.13862,17.70382 1.80995,10.20921 c -13.94722,2.47265 -22.32292,1.3534 -25.74429,-5.96599 l -17.47587,3.09822 -3.77819,-21.3113 c 33.25771,-6.69558 23.3064,-44.60654 -7.02431,-40.01834 z"
       id="path454"
       sodipodi:nodetypes="cscccccccc"
       style="font-weight:bold;font-size:157.768px;font-family:'Segoe UI';-inkscape-font-specification:'Segoe UI, Bold';text-align:end;text-anchor:end;opacity:0.462428;fill:#ffffff;fill-opacity:1;stroke-width:8.96767"
       inkscape:export-filename="..\abeer\tatech\tatech_logo.svg"
       inkscape:export-xdpi="96"
       inkscape:export-ydpi="96" /><g
       id="g470"
       transform="matrix(2.1055759,0,0,2.1055759,-1537.2233,-369.156)"
       style="opacity:0.138728;fill:#ffffff;filter:url(#filter3253)"
       inkscape:export-filename="logo1.svg"
       inkscape:export-xdpi="96"
       inkscape:export-ydpi="96"><g
         aria-label="t"
         id="g460"
         style="font-weight:bold;font-size:157.768px;font-family:'Segoe UI';-inkscape-font-specification:'Segoe UI, Bold';text-align:end;text-anchor:end;fill:#ffffff;fill-opacity:1;stroke-width:8.95235"
         transform="matrix(0.47574171,0,0,0.47574171,567.54989,-20.793351)"><path
           d="m 72.861648,277.5781 c -24.861319,0 -41.937796,-11.74197 -41.937796,-29.56277 v -36.12949 -17.94919 -30.37291 c 25.032225,4.38339 24.266075,6.58891 24.266075,30.37291 h 17.718086 v 21.60664 l -17.718086,-0.0298 v 28.26489 c 0,8.21709 11.126621,12.32563 17.648931,12.32563 z"
           id="path458"
           sodipodi:nodetypes="cscccccccscc"
           style="fill:#ffffff;fill-opacity:1" /></g><g
         aria-label="t"
         id="g464"
         style="font-weight:bold;font-size:157.768px;font-family:'Segoe UI';-inkscape-font-specification:'Segoe UI, Bold';text-align:end;text-anchor:end;fill:#ffffff;fill-opacity:1;stroke-width:8.95235"
         transform="matrix(-0.47574171,0,0,-0.47574171,637.51482,203.56017)"><path
           d="m 72.861648,277.5781 c -24.861319,0 -41.937796,-11.74197 -41.937796,-29.56277 v -36.12949 -17.94919 -10.3507 c 14.140522,0 22.1785,2.55976 24.266075,10.3507 h 17.718086 v 21.60664 c -33.857979,0.78587 -30.68275,39.78517 -0.06915,40.56072 z"
           id="path462"
           sodipodi:nodetypes="cscccccccc"
           style="fill:#ffffff;fill-opacity:1" /></g><path
         d="m 605.26114,115.34416 c -11.64597,2.06466 -20.62036,-2.01757 -22.10033,-10.3655 l -3.00044,-16.924393 -1.49063,-8.408069 -2.52238,-14.2278 c 12.09005,-0.02551 11.91432,1.071268 13.88951,12.212576 l 8.29981,-1.471433 1.79436,10.121353 -8.30228,1.457452 2.34731,13.240324 c 0.6824,3.84919 6.23573,4.84976 9.29102,4.3081 z"
         id="path466"
         sodipodi:nodetypes="cscccccccscc"
         style="font-weight:bold;font-size:157.768px;font-family:'Segoe UI';-inkscape-font-specification:'Segoe UI, Bold';text-align:end;text-anchor:end;opacity:0.462428;fill:#ffffff;fill-opacity:1;stroke-width:4.25901" /><path
         d="m 598.94942,76.085726 c 11.64597,-2.064658 20.62036,2.017562 22.10032,10.365489 l 3.00045,16.924405 1.49062,8.40807 0.8596,4.84865 c -6.62394,1.17433 -10.60181,0.64277 -12.22672,-2.83342 l -8.29981,1.47143 -1.79437,-10.12136 c 15.79507,-3.17993 11.0689,-21.184968 -3.33605,-19.005897 z"
         id="path468"
         sodipodi:nodetypes="cscccccccc"
         style="font-weight:bold;font-size:157.768px;font-family:'Segoe UI';-inkscape-font-specification:'Segoe UI, Bold';text-align:end;text-anchor:end;opacity:0.462428;fill:#ffffff;fill-opacity:1;stroke-width:4.25901" /></g><g
       aria-label="t"
       id="g446"
       style="font-weight:bold;font-size:157.768px;font-family:'Segoe UI';-inkscape-font-specification:'Segoe UI, Bold';text-align:end;text-anchor:end;fill:#aaff00;fill-opacity:1;stroke-width:8.95235"
       transform="matrix(1.0017102,0,0,1.0017102,-344.85374,-423.53727)"><path
         d="m 72.861648,277.5781 c -24.861319,0 -41.937796,-11.74197 -41.937796,-29.56277 v -36.12949 -17.94919 -30.37291 c 25.032225,4.38339 24.266075,6.58891 24.266075,30.37291 h 17.718086 v 21.60664 l -17.718086,-0.0298 v 28.26489 c 0,8.21709 11.126621,12.32563 17.648931,12.32563 z"
         id="path444"
         sodipodi:nodetypes="cscccccccscc"
         style="fill:#aaff00;fill-opacity:1" /></g><g
       aria-label="t"
       id="g450"
       style="font-weight:bold;font-size:157.768px;font-family:'Segoe UI';-inkscape-font-specification:'Segoe UI, Bold';text-align:end;text-anchor:end;opacity:1;fill:#ffffff;fill-opacity:1;stroke-width:8.95235"
       transform="matrix(-1.0017102,0,0,-1.0017102,-197.53728,48.856095)"><path
         d="m 72.861648,277.5781 c -24.861319,0 -41.937796,-11.74197 -41.937796,-29.56277 v -36.12949 -17.94919 -10.3507 c 14.140522,0 22.1785,2.55976 24.266075,10.3507 h 17.718086 v 21.60664 c -33.857979,0.78587 -30.68275,39.78517 -0.06915,40.56072 z"
         id="path448"
         sodipodi:nodetypes="cscccccccc"
         style="fill:#ffffff;fill-opacity:1" /></g><path
       d="m -265.44985,-136.88941 c -24.52147,4.3473 -43.41773,-4.24815 -46.53392,-21.82535 l -6.31766,-35.63558 -3.13863,-17.70384 -5.31106,-29.9577 c 25.45651,-0.0537 25.0865,2.25564 29.24541,25.71451 l 17.47589,-3.0982 3.77815,21.31125 -17.48108,3.06877 4.94245,27.87851 c 1.43684,8.10476 13.12979,10.21153 19.56294,9.07104 z"
       id="path452"
       sodipodi:nodetypes="cscccccccscc"
       style="font-weight:bold;font-size:157.768px;font-family:'Segoe UI';-inkscape-font-specification:'Segoe UI, Bold';text-align:end;text-anchor:end;opacity:0.462428;fill:#93bc43;fill-opacity:1;stroke-width:8.96767" /><text
       xml:space="preserve"
       style="font-style:normal;font-variant:normal;font-weight:bold;font-stretch:normal;font-size:51.4782px;font-family:'Segoe UI';-inkscape-font-specification:'Segoe UI, Bold';font-variant-ligatures:normal;font-variant-caps:normal;font-variant-numeric:normal;font-variant-east-asian:normal;text-align:end;text-anchor:end;opacity:1;fill:#ffffff;fill-opacity:1;stroke:none;stroke-width:3.99971;stroke-dasharray:none;stroke-opacity:1"
       x="-90.216667"
       y="-134.31129"
       id="text368"
       inkscape:export-filename="..\abeer\tatech\tatech\main\static\main\dist\img\logo1.svg"
       inkscape:export-xdpi="96"
       inkscape:export-ydpi="96"><tspan
         sodipodi:role="line"
         id="tspan366"
         style="font-style:normal;font-variant:normal;font-weight:bold;font-stretch:normal;font-size:51.4782px;font-family:'Segoe UI';-inkscape-font-specification:'Segoe UI, Bold';font-variant-ligatures:normal;font-variant-caps:normal;font-variant-numeric:normal;font-variant-east-asian:normal;fill:#ffffff;fill-opacity:1;stroke-width:3.99971"
         x="-90.216675"
         y="-134.31129">TECH</tspan></text><path
       d="m -199.58231,-205.81861 v 21.7792 h 3.74755 q 2.00955,0 2.85139,0.78752 0.86899,0.76037 0.86899,2.00956 0,1.22202 -0.86899,2.00955 -0.84184,0.76037 -2.85139,0.76037 h -13.03493 q -2.00955,0 -2.87855,-0.76037 -0.84184,-0.78753 -0.84184,-2.03671 0,-1.22203 0.84184,-1.9824 0.869,-0.78752 2.87855,-0.78752 h 3.72038 v -21.7792 h -6.02865 v 5.26829 q 0,2.00955 -0.78753,2.87854 -0.76037,0.84184 -2.00955,0.84184 -1.22202,0 -2.00955,-0.84184 -0.76037,-0.86899 -0.76037,-2.87854 v -10.86245 l 28.83978,0.0272 v 10.83529 q 0,2.00955 -0.78753,2.87854 -0.76037,0.84184 -2.00955,0.84184 -1.22202,0 -2.00955,-0.84184 -0.76037,-0.86899 -0.76037,-2.87854 v -5.26829 z"
       id="path480"
       style="font-weight:bold;font-size:55.6157px;font-family:'Courier New';-inkscape-font-specification:'Courier New, Bold';text-align:end;text-anchor:end;fill:#aaff00;fill-opacity:1;stroke-width:4.32119" /><path
       d="m -162.10688,-187.43393 h -13.52374 l -1.35781,3.39452 h 1.35781 q 2.00955,0 2.85139,0.78752 0.86899,0.76037 0.86899,2.00956 0,1.22202 -0.86899,2.00955 -0.84184,0.76037 -2.85139,0.76037 h -7.49509 q -2.00955,0 -2.85139,-0.76037 -0.86899,-0.78753 -0.86899,-2.03671 0,-1.24918 0.89615,-2.03671 0.89615,-0.78753 2.96001,-0.73321 l 8.74427,-21.7792 h -3.63892 q -2.00955,0 -2.87855,-0.76037 -0.84183,-0.78753 -0.84183,-2.03671 0,-1.24918 0.84183,-2.00955 0.869,-0.78753 2.87855,-0.78753 l 12.03016,0.0272 11.07969,27.3462 q 1.95523,0 2.57983,0.43449 1.24918,0.89616 1.24918,2.36259 0,1.22202 -0.84184,2.00955 -0.84184,0.76037 -2.85139,0.76037 h -7.49509 q -2.00955,0 -2.87855,-0.76037 -0.84183,-0.78753 -0.84183,-2.03671 0,-1.22203 0.84183,-1.9824 0.869,-0.78752 2.87855,-0.78752 h 1.35781 z m -2.30827,-5.567 -4.48076,-11.02538 -4.50791,11.02538 z"
       id="path482"
       style="font-weight:bold;font-size:55.6157px;font-family:'Courier New';-inkscape-font-specification:'Courier New, Bold';text-align:end;text-anchor:end;fill:#00ffee;fill-opacity:1;stroke-width:4.32119" /><circle
       style="fill:#ffffff;stroke-width:0.830519"
       id="path426"
       cx="-81.155708"
       cy="-138.97089"
       r="5.0573449" /></g></svg>
