<?xml version="1.0" encoding="UTF-8" standalone="no"?>
<!-- Created with Inkscape (http://www.inkscape.org/) -->

<svg
   width="182.47881mm"
   height="182.47884mm"
   viewBox="0 0 182.47881 182.47884"
   version="1.1"
   id="svg5"
   xml:space="preserve"
   inkscape:version="1.2.1 (9c6d41e410, 2022-07-14)"
   sodipodi:docname="tatech.svg"
   xmlns:inkscape="http://www.inkscape.org/namespaces/inkscape"
   xmlns:sodipodi="http://sodipodi.sourceforge.net/DTD/sodipodi-0.dtd"
   xmlns="http://www.w3.org/2000/svg"
   xmlns:svg="http://www.w3.org/2000/svg"><sodipodi:namedview
     id="namedview7"
     pagecolor="#505050"
     bordercolor="#ffffff"
     borderopacity="1"
     inkscape:showpageshadow="0"
     inkscape:pageopacity="0"
     inkscape:pagecheckerboard="1"
     inkscape:deskcolor="#505050"
     inkscape:document-units="mm"
     showgrid="false"
     inkscape:zoom="0.2102413"
     inkscape:cx="109.39811"
     inkscape:cy="-670.65795"
     inkscape:window-width="1366"
     inkscape:window-height="705"
     inkscape:window-x="-8"
     inkscape:window-y="-8"
     inkscape:window-maximized="1"
     inkscape:current-layer="layer1" /><defs
     id="defs2" /><g
     inkscape:label="Layer 1"
     inkscape:groupmode="layer"
     id="layer1"
     transform="translate(323.42792,61.665255)"><rect
       style="fill:#1a1a1a;fill-opacity:1;stroke-width:0.620001"
       id="rect896"
       width="182.47882"
       height="182.47882"
       x="-323.42795"
       y="-61.665257"
       ry="15.604449" /><path
       d="m -235.06164,4.3942151 c 24.52148,-4.34728999 43.41773,4.24813 46.53391,21.8253299 l 6.31767,35.63561 3.13862,17.70382 1.80995,10.20921 c -13.94722,2.47265 -22.32292,1.3534 -25.74429,-5.96599 l -17.47587,3.09822 -3.77819,-21.3113 c 33.25771,-6.69558 23.3064,-44.60654 -7.02431,-40.01834 z"
       id="path1105"
       sodipodi:nodetypes="cscccccccc"
       style="font-weight:bold;font-size:157.768px;font-family:'Segoe UI';-inkscape-font-specification:'Segoe UI, Bold';text-align:end;text-anchor:end;opacity:0.462428;fill:#ffffff;fill-opacity:1;stroke-width:8.96767"
       inkscape:export-filename="..\abeer\tatech\tatech_logo.svg"
       inkscape:export-xdpi="96"
       inkscape:export-ydpi="96" /><g
       aria-label="t"
       id="g1109"
       style="font-weight:bold;font-size:157.768px;font-family:'Segoe UI';-inkscape-font-specification:'Segoe UI, Bold';text-align:end;text-anchor:end;fill:#aaff00;fill-opacity:1;stroke-width:8.95235"
       transform="matrix(1.0017102,0,0,1.0017102,-301.17572,-199.59204)"><path
         d="m 72.861648,277.5781 c -24.861319,0 -41.937796,-11.74197 -41.937796,-29.56277 v -36.12949 -17.94919 -30.37291 c 25.032225,4.38339 24.266075,6.58891 24.266075,30.37291 h 17.718086 v 21.60664 l -17.718086,-0.0298 v 28.26489 c 0,8.21709 11.126621,12.32563 17.648931,12.32563 z"
         id="path1107"
         sodipodi:nodetypes="cscccccccscc"
         style="fill:#aaff00;fill-opacity:1" /></g><g
       aria-label="t"
       id="g1113"
       style="font-weight:bold;font-size:157.768px;font-family:'Segoe UI';-inkscape-font-specification:'Segoe UI, Bold';text-align:end;text-anchor:end;opacity:1;fill:#ffffff;fill-opacity:1;stroke-width:8.95235"
       transform="matrix(-1.0017102,0,0,-1.0017102,-153.85926,272.80133)"><path
         d="m 72.861648,277.5781 c -24.861319,0 -41.937796,-11.74197 -41.937796,-29.56277 v -36.12949 -17.94919 -10.3507 c 14.140522,0 22.1785,2.55976 24.266075,10.3507 h 17.718086 v 21.60664 c -33.857979,0.78587 -30.68275,39.78517 -0.06915,40.56072 z"
         id="path1111"
         sodipodi:nodetypes="cscccccccc"
         style="fill:#ffffff;fill-opacity:1" /></g><path
       d="m -221.77183,87.055825 c -24.52147,4.3473 -43.41773,-4.24815 -46.53392,-21.82535 l -6.31766,-35.63558 -3.13863,-17.70384 -5.31106,-29.9577 c 25.45651,-0.0537 25.0865,2.25564 29.24541,25.7145101 l 17.47589,-3.0982 3.77815,21.3112499 -17.48108,3.06877 4.94245,27.87851 c 1.43684,8.10476 13.12979,10.21153 19.56294,9.07104 z"
       id="path1115"
       sodipodi:nodetypes="cscccccccscc"
       style="font-weight:bold;font-size:157.768px;font-family:'Segoe UI';-inkscape-font-specification:'Segoe UI, Bold';text-align:end;text-anchor:end;opacity:0.462428;fill:#93bc43;fill-opacity:1;stroke-width:8.96767" /></g></svg>
