<?xml version="1.0" encoding="UTF-8" standalone="no"?>
<!-- Created with Inkscape (http://www.inkscape.org/) -->

<svg
   width="105.81158mm"
   height="126.70308mm"
   viewBox="0 0 105.81158 126.70308"
   version="1.1"
   id="svg5"
   xml:space="preserve"
   inkscape:version="1.2.1 (9c6d41e410, 2022-07-14)"
   sodipodi:docname="tatech.svg"
   xmlns:inkscape="http://www.inkscape.org/namespaces/inkscape"
   xmlns:sodipodi="http://sodipodi.sourceforge.net/DTD/sodipodi-0.dtd"
   xmlns="http://www.w3.org/2000/svg"
   xmlns:svg="http://www.w3.org/2000/svg"><sodipodi:namedview
     id="namedview7"
     pagecolor="#505050"
     bordercolor="#ffffff"
     borderopacity="1"
     inkscape:showpageshadow="0"
     inkscape:pageopacity="0"
     inkscape:pagecheckerboard="1"
     inkscape:deskcolor="#505050"
     inkscape:document-units="mm"
     showgrid="false"
     inkscape:zoom="0.2102413"
     inkscape:cx="109.39811"
     inkscape:cy="-670.65795"
     inkscape:window-width="1366"
     inkscape:window-height="705"
     inkscape:window-x="-8"
     inkscape:window-y="-8"
     inkscape:window-maximized="1"
     inkscape:current-layer="layer1" /><defs
     id="defs2"><filter
       inkscape:collect="always"
       style="color-interpolation-filters:sRGB"
       id="filter1026"
       x="-0.091200843"
       y="-0.076163188"
       width="1.1824017"
       height="1.1523263"><feGaussianBlur
         inkscape:collect="always"
         stdDeviation="1.9096336"
         id="feGaussianBlur1028" /></filter></defs><g
     inkscape:label="Layer 1"
     inkscape:groupmode="layer"
     id="layer1"
     transform="translate(326.75111,259.69381)"><path
       d="m -278.73966,-219.55102 c 24.52148,-4.34729 43.41773,4.24813 46.53391,21.82533 l 6.31767,35.63561 3.13862,17.70382 1.80995,10.20921 c -13.94722,2.47265 -22.32292,1.3534 -25.74429,-5.96599 l -17.47587,3.09822 -3.77819,-21.3113 c 33.25771,-6.69558 23.3064,-44.60654 -7.02431,-40.01834 z"
       id="path454"
       sodipodi:nodetypes="cscccccccc"
       style="font-weight:bold;font-size:157.768px;font-family:'Segoe UI';-inkscape-font-specification:'Segoe UI, Bold';text-align:end;text-anchor:end;opacity:0.462428;fill:#ffffff;fill-opacity:1;stroke-width:8.96767"
       inkscape:export-filename="..\abeer\tatech\tatech_logo.svg"
       inkscape:export-xdpi="96"
       inkscape:export-ydpi="96" /><g
       id="g470"
       transform="matrix(2.1055759,0,0,2.1055759,-1537.2233,-369.156)"
       style="opacity:0.65896;fill:#000000;filter:url(#filter1026)"
       inkscape:export-filename="logo1.svg"
       inkscape:export-xdpi="96"
       inkscape:export-ydpi="96"><g
         aria-label="t"
         id="g460"
         style="font-weight:bold;font-size:157.768px;font-family:'Segoe UI';-inkscape-font-specification:'Segoe UI, Bold';text-align:end;text-anchor:end;fill:#000000;fill-opacity:1;stroke-width:8.95235"
         transform="matrix(0.47574171,0,0,0.47574171,567.54989,-20.793351)"><path
           d="m 72.861648,277.5781 c -24.861319,0 -41.937796,-11.74197 -41.937796,-29.56277 v -36.12949 -17.94919 -30.37291 c 25.032225,4.38339 24.266075,6.58891 24.266075,30.37291 h 17.718086 v 21.60664 l -17.718086,-0.0298 v 28.26489 c 0,8.21709 11.126621,12.32563 17.648931,12.32563 z"
           id="path458"
           sodipodi:nodetypes="cscccccccscc"
           style="fill:#000000;fill-opacity:1" /></g><g
         aria-label="t"
         id="g464"
         style="font-weight:bold;font-size:157.768px;font-family:'Segoe UI';-inkscape-font-specification:'Segoe UI, Bold';text-align:end;text-anchor:end;fill:#000000;fill-opacity:1;stroke-width:8.95235"
         transform="matrix(-0.47574171,0,0,-0.47574171,637.51482,203.56017)"><path
           d="m 72.861648,277.5781 c -24.861319,0 -41.937796,-11.74197 -41.937796,-29.56277 v -36.12949 -17.94919 -10.3507 c 14.140522,0 22.1785,2.55976 24.266075,10.3507 h 17.718086 v 21.60664 c -33.857979,0.78587 -30.68275,39.78517 -0.06915,40.56072 z"
           id="path462"
           sodipodi:nodetypes="cscccccccc"
           style="fill:#000000;fill-opacity:1" /></g><path
         d="m 605.26114,115.34416 c -11.64597,2.06466 -20.62036,-2.01757 -22.10033,-10.3655 l -3.00044,-16.924393 -1.49063,-8.408069 -2.52238,-14.2278 c 12.09005,-0.02551 11.91432,1.071268 13.88951,12.212576 l 8.29981,-1.471433 1.79436,10.121353 -8.30228,1.457452 2.34731,13.240324 c 0.6824,3.84919 6.23573,4.84976 9.29102,4.3081 z"
         id="path466"
         sodipodi:nodetypes="cscccccccscc"
         style="font-weight:bold;font-size:157.768px;font-family:'Segoe UI';-inkscape-font-specification:'Segoe UI, Bold';text-align:end;text-anchor:end;opacity:0.462428;fill:#000000;fill-opacity:1;stroke-width:4.25901" /><path
         d="m 598.94942,76.085726 c 11.64597,-2.064658 20.62036,2.017562 22.10032,10.365489 l 3.00045,16.924405 1.49062,8.40807 0.8596,4.84865 c -6.62394,1.17433 -10.60181,0.64277 -12.22672,-2.83342 l -8.29981,1.47143 -1.79437,-10.12136 c 15.79507,-3.17993 11.0689,-21.184968 -3.33605,-19.005897 z"
         id="path468"
         sodipodi:nodetypes="cscccccccc"
         style="font-weight:bold;font-size:157.768px;font-family:'Segoe UI';-inkscape-font-specification:'Segoe UI, Bold';text-align:end;text-anchor:end;opacity:0.462428;fill:#000000;fill-opacity:1;stroke-width:4.25901" /></g><g
       aria-label="t"
       id="g446"
       style="font-weight:bold;font-size:157.768px;font-family:'Segoe UI';-inkscape-font-specification:'Segoe UI, Bold';text-align:end;text-anchor:end;fill:#aaff00;fill-opacity:1;stroke-width:8.95235"
       transform="matrix(1.0017102,0,0,1.0017102,-344.85374,-423.53727)"><path
         d="m 72.861648,277.5781 c -24.861319,0 -41.937796,-11.74197 -41.937796,-29.56277 v -36.12949 -17.94919 -30.37291 c 25.032225,4.38339 24.266075,6.58891 24.266075,30.37291 h 17.718086 v 21.60664 l -17.718086,-0.0298 v 28.26489 c 0,8.21709 11.126621,12.32563 17.648931,12.32563 z"
         id="path444"
         sodipodi:nodetypes="cscccccccscc"
         style="fill:#aaff00;fill-opacity:1" /></g><g
       aria-label="t"
       id="g450"
       style="font-weight:bold;font-size:157.768px;font-family:'Segoe UI';-inkscape-font-specification:'Segoe UI, Bold';text-align:end;text-anchor:end;opacity:1;fill:#ffffff;fill-opacity:1;stroke-width:8.95235"
       transform="matrix(-1.0017102,0,0,-1.0017102,-197.53728,48.856095)"><path
         d="m 72.861648,277.5781 c -24.861319,0 -41.937796,-11.74197 -41.937796,-29.56277 v -36.12949 -17.94919 -10.3507 c 14.140522,0 22.1785,2.55976 24.266075,10.3507 h 17.718086 v 21.60664 c -33.857979,0.78587 -30.68275,39.78517 -0.06915,40.56072 z"
         id="path448"
         sodipodi:nodetypes="cscccccccc"
         style="fill:#ffffff;fill-opacity:1" /></g><path
       d="m -265.44985,-136.88941 c -24.52147,4.3473 -43.41773,-4.24815 -46.53392,-21.82535 l -6.31766,-35.63558 -3.13863,-17.70384 -5.31106,-29.9577 c 25.45651,-0.0537 25.0865,2.25564 29.24541,25.71451 l 17.47589,-3.0982 3.77815,21.31125 -17.48108,3.06877 4.94245,27.87851 c 1.43684,8.10476 13.12979,10.21153 19.56294,9.07104 z"
       id="path452"
       sodipodi:nodetypes="cscccccccscc"
       style="font-weight:bold;font-size:157.768px;font-family:'Segoe UI';-inkscape-font-specification:'Segoe UI, Bold';text-align:end;text-anchor:end;opacity:0.462428;fill:#93bc43;fill-opacity:1;stroke-width:8.96767" /></g></svg>
