<svg width="20" height="21" viewBox="0 0 20 21" fill="none" xmlns="http://www.w3.org/2000/svg">
<g clip-path="url(#clip0_1206_5603)">
<path d="M19.5721 8.28266H15.9308L10.6782 1.2731C10.5474 1.10337 10.3462 1.00277 10.132 1H9.89531C9.68108 1.00277 9.47987 1.10337 9.34911 1.2731L4.0965 8.28266H0.455166C0.203785 8.28266 0 8.48644 0 8.73783V9.64816C0 9.89954 0.203785 10.1033 0.455166 10.1033H0.910332L2.467 17.0674C2.74145 18.3045 3.8308 19.1903 5.09786 19.2066H14.9294C16.2068 19.2029 17.3109 18.3143 17.5876 17.0674L19.117 10.1033H19.5448C19.7962 10.1033 20 9.89954 20 9.64816V8.73783C20.0004 8.49673 19.8128 8.29712 19.5721 8.28266ZM6.37233 8.28266L10.0137 3.43059L13.655 8.28266H6.37233Z" fill="#82B445"/>
</g>
<defs>
<clipPath id="clip0_1206_5603">
<rect width="20" height="20" fill="white" transform="translate(0 0.5)"/>
</clipPath>
</defs>
</svg>
