<svg width="18" height="21" viewBox="0 0 18 21" fill="none" xmlns="http://www.w3.org/2000/svg">
<path d="M15.5754 1.36976C12.8065 -1.87142 3.84563 4.41291 3.91832 12.4994C3.91479 12.7057 3.74819 12.8721 3.54164 12.8756C3.40895 12.8742 3.28646 12.8042 3.21783 12.6908C2.69403 11.559 2.42342 10.3268 2.42483 9.07995C2.42417 8.14195 2.57593 7.21007 2.8742 6.32065C2.92776 6.16269 2.86225 5.98892 2.71769 5.90548C2.57312 5.82205 2.3897 5.85214 2.27945 5.97739C-0.0439312 8.51043 -0.650279 12.1752 0.733634 15.3203C2.11755 18.4654 5.23047 20.4971 8.66971 20.5C20.8687 20.2558 18.0469 4.26108 15.5754 1.36976Z" fill="#82B445"/>
</svg>
