<svg width="20" height="21" viewBox="0 0 20 21" fill="none" xmlns="http://www.w3.org/2000/svg">
<g clip-path="url(#clip0_1206_5621)">
<path d="M10 0.5C4.5 0.5 0 5 0 10.5C0 16 4.5 20.5 10 20.5C15.5 20.5 20 16 20 10.5C20 5 15.5 0.5 10 0.5ZM18 10.5H15C15 8.7 14 7.1 12.5 6.2L14 3.6C16.5 5 18 7.6 18 10.5ZM7 10.5C7 8.8 8.3 7.5 10 7.5C11.7 7.5 13 8.8 13 10.5C13 12.2 11.7 13.5 10 13.5C8.3 13.5 7 12.2 7 10.5ZM6 3.6L7.5 6.2C6 7.1 5 8.7 5 10.5H2C2 7.6 3.5 5 6 3.6ZM6 17.4L7.5 14.8C9 15.7 11 15.7 12.5 14.8L14 17.4C11.5 18.9 8.5 18.9 6 17.4Z" fill="#82B445"/>
</g>
<defs>
<clipPath id="clip0_1206_5621">
<rect width="20" height="20" fill="white" transform="translate(0 0.5)"/>
</clipPath>
</defs>
</svg>
