<svg width="150" height="19" viewBox="0 0 150 19" fill="none" xmlns="http://www.w3.org/2000/svg">
<g clip-path="url(#clip0_1110_1140)">
<path d="M22.0456 4.91602C18.3842 4.91602 15.7275 7.68882 15.7275 11.5039C15.7275 15.319 18.3552 18.0229 22.1712 18.0229C23.0302 18.0595 23.8873 17.9121 24.6869 17.5903C25.4865 17.2684 26.2108 16.7794 26.8131 16.1547C27.0551 15.9122 27.1983 15.5856 27.214 15.2403C27.2181 15.0954 27.1928 14.9513 27.1397 14.8168C27.0865 14.6824 27.0066 14.5606 26.905 14.459C26.8035 14.3575 26.6824 14.2784 26.5493 14.2267C26.4163 14.175 26.2742 14.1519 26.132 14.1587C25.9657 14.1625 25.8018 14.2001 25.65 14.2693C25.4982 14.3385 25.3615 14.438 25.2481 14.5619C24.8495 14.9817 24.3712 15.3146 23.8422 15.5403C23.3133 15.7659 22.7447 15.8797 22.1712 15.8745C21.1928 15.8893 20.2463 15.521 19.5272 14.8458C18.8081 14.1705 18.3712 13.2399 18.3069 12.2463H26.5667C27.4652 12.2463 27.9047 11.8185 27.9047 10.9385C27.9101 10.6654 27.8923 10.3924 27.8516 10.1224C27.4072 6.85305 25.2336 4.91602 22.0456 4.91602ZM22.0456 6.96121C24.0308 6.96121 25.306 8.24929 25.3833 10.3289H18.3021C18.3931 9.38853 18.8289 8.51762 19.5227 7.8898C20.2165 7.26198 21.1174 6.92339 22.0456 6.94154V6.96121Z" fill="white"/>
<path d="M35.8022 4.91623C34.9987 4.90831 34.2078 5.11988 33.512 5.52889C32.8162 5.93789 32.241 6.52936 31.8462 7.24165V6.39113C31.8462 5.09813 30.8801 5.03422 30.6627 5.03422C30.4924 5.02987 30.3232 5.06315 30.1668 5.13177C30.0103 5.20038 29.8704 5.30269 29.7565 5.43166C29.6427 5.56063 29.5576 5.71319 29.5073 5.87883C29.4569 6.04447 29.4424 6.21925 29.4648 6.39113V16.4794C29.4495 16.6574 29.4707 16.8366 29.5271 17.0058C29.5835 17.1749 29.6739 17.3303 29.7924 17.462C29.911 17.5937 30.0552 17.6989 30.2158 17.7708C30.3764 17.8428 30.55 17.8799 30.7255 17.8799C30.901 17.8799 31.0746 17.8428 31.2353 17.7708C31.3959 17.6989 31.5401 17.5937 31.6586 17.462C31.7772 17.3303 31.8675 17.1749 31.9239 17.0058C31.9803 16.8366 32.0016 16.6574 31.9862 16.4794V11.0715C31.9862 8.71655 33.2952 7.0745 35.1694 7.0745C37.0435 7.0745 37.8744 8.28391 37.8744 10.7814V16.4794C37.8554 16.6592 37.8738 16.8409 37.9284 17.013C37.983 17.185 38.0725 17.3434 38.1912 17.4778C38.3099 17.6123 38.455 17.7199 38.6172 17.7935C38.7794 17.8671 38.9551 17.9051 39.1327 17.9051C39.3103 17.9051 39.4859 17.8671 39.6481 17.7935C39.8103 17.7199 39.9554 17.6123 40.0741 17.4778C40.1928 17.3434 40.2823 17.185 40.3369 17.013C40.3915 16.8409 40.4099 16.6592 40.3909 16.4794V9.97513C40.3813 7.52188 39.1785 4.91623 35.8022 4.91623Z" fill="white"/>
<path d="M51.7808 5.02932C51.4897 5.03409 51.2084 5.1371 50.9811 5.32218C50.7538 5.50727 50.5933 5.76395 50.5249 6.05192L47.0761 14.9013L43.6562 6.05192C43.5837 5.76155 43.4188 5.50378 43.1873 5.3188C42.9557 5.13382 42.6705 5.03203 42.3762 5.02932C42.049 5.02273 41.7326 5.14838 41.4963 5.37876C41.26 5.60914 41.1231 5.92545 41.1155 6.25841C41.1177 6.50966 41.172 6.75761 41.2749 6.98602L45.2357 16.504C45.7187 17.6495 46.4819 17.8904 47.0519 17.8904C47.6219 17.8904 48.3947 17.6495 48.8681 16.504L52.8579 6.93194C52.9529 6.71147 53.0054 6.47446 53.0125 6.23382C53.0126 6.07142 52.9805 5.91067 52.918 5.76124C52.8556 5.6118 52.764 5.47677 52.649 5.36425C52.5339 5.25173 52.3977 5.16406 52.2485 5.10651C52.0993 5.04895 51.9402 5.0227 51.7808 5.02932Z" fill="white"/>
<path d="M59.1036 4.91672C57.5983 4.88385 56.1212 5.33454 54.8819 6.2048C54.7097 6.30826 54.567 6.45564 54.4679 6.63239C54.3688 6.80913 54.3167 7.00914 54.3167 7.21264C54.3115 7.34504 54.3327 7.47714 54.3789 7.60101C54.4251 7.72488 54.4954 7.83797 54.5857 7.93348C54.6759 8.029 54.7842 8.10496 54.904 8.15681C55.0238 8.20867 55.1526 8.23534 55.2828 8.23524C55.5536 8.22464 55.8147 8.13032 56.0315 7.96484C56.8567 7.3599 57.8451 7.02857 58.8621 7.01599C60.7217 7.01599 61.7892 7.99925 61.7892 9.66097V9.93629C57.611 9.93629 53.3604 10.4574 53.3604 14.1594C53.3604 16.8241 55.5968 18.0138 57.8139 18.0138C58.6094 18.0514 59.4012 17.882 60.1145 17.5215C60.8278 17.1611 61.4391 16.6216 61.8907 15.9539V16.6028C61.8718 16.7704 61.8887 16.9402 61.9401 17.1005C61.9915 17.2609 62.0762 17.4081 62.1885 17.5322C62.3008 17.6563 62.438 17.7543 62.5908 17.8196C62.7436 17.8849 62.9084 17.9159 63.0741 17.9106C63.2413 17.9176 63.408 17.8868 63.5622 17.8206C63.7164 17.7543 63.8543 17.6542 63.966 17.5273C64.0777 17.4005 64.1604 17.25 64.2083 17.0868C64.2562 16.9236 64.2681 16.7516 64.243 16.5832V9.79371C64.243 6.73084 62.3109 4.91672 59.1036 4.91672ZM61.2772 11.7996H61.8279V12.3895C61.8279 14.5527 60.4802 15.949 58.3887 15.949C57.8187 15.949 55.9735 15.8113 55.9735 14.0808C55.9446 12.0405 58.9876 11.7996 61.2772 11.7996Z" fill="white"/>
<path d="M70.7831 7.37453C70.9286 7.38879 71.0753 7.37194 71.214 7.32506C71.3527 7.27818 71.4802 7.20231 71.5884 7.10231C71.6965 7.00232 71.783 6.88041 71.8421 6.74441C71.9012 6.60841 71.9318 6.46133 71.9318 6.3126C71.9318 6.16388 71.9012 6.01679 71.8421 5.88079C71.783 5.74479 71.6965 5.62288 71.5884 5.52289C71.4802 5.42289 71.3527 5.34702 71.214 5.30014C71.0753 5.25326 70.9286 5.23641 70.7831 5.25067H68.5177V2.90559C68.5366 2.72719 68.5184 2.54675 68.4643 2.37599C68.4101 2.20523 68.3213 2.04798 68.2035 1.91447C68.0857 1.78097 67.9417 1.67419 67.7807 1.6011C67.6197 1.52801 67.4454 1.49023 67.2691 1.49023C67.0928 1.49023 66.9185 1.52801 66.7575 1.6011C66.5965 1.67419 66.4524 1.78097 66.3346 1.91447C66.2168 2.04798 66.128 2.20523 66.0739 2.37599C66.0197 2.54675 66.0015 2.72719 66.0204 2.90559V13.9821C66.0204 16.5386 67.2618 17.9151 69.6045 17.9151C70.148 17.928 70.6885 17.8294 71.1937 17.6251C71.3926 17.5402 71.5637 17.3995 71.6869 17.2192C71.8101 17.039 71.8803 16.8268 71.8892 16.6074C71.8947 16.4716 71.8724 16.3362 71.8239 16.2096C71.7753 16.083 71.7015 15.9681 71.6071 15.872C71.5127 15.7759 71.3997 15.7008 71.2754 15.6513C71.151 15.6019 71.0179 15.5792 70.8845 15.5848C70.7318 15.5921 70.5807 15.6203 70.4353 15.6684C70.2652 15.7155 70.0899 15.7403 69.9137 15.7421C68.9476 15.7421 68.5177 15.1079 68.5177 13.7461V7.37453H70.7831Z" fill="white"/>
<path d="M79.1105 4.91602C75.3042 4.91602 72.5365 7.66424 72.5365 11.4547C72.5227 12.3318 72.6829 13.2027 73.0074 14.0153C73.3319 14.828 73.8141 15.5656 74.4251 16.1842C75.6864 17.4061 77.3695 18.0737 79.1105 18.0426C82.8733 18.0426 85.7135 15.2108 85.7135 11.4547C85.7135 7.69866 82.9361 4.91602 79.1105 4.91602ZM79.1105 15.8696C76.4973 15.8696 75.1352 13.6474 75.1352 11.4449C75.1352 8.42627 77.1977 7.05462 79.1105 7.05462C81.0233 7.05462 83.081 8.41644 83.081 11.4351C83.081 14.4537 81.0281 15.8499 79.1105 15.8499V15.8696Z" fill="white"/>
<path d="M11.4187 3.73175C9.39485 1.31783 2.84496 5.99818 2.8981 12.0207C2.8981 12.095 2.86909 12.1663 2.81746 12.2188C2.76582 12.2714 2.69579 12.3009 2.62277 12.3009C2.57488 12.3013 2.52773 12.2888 2.48615 12.2646C2.44456 12.2405 2.41003 12.2055 2.38609 12.1632C2.00302 11.3222 1.80519 10.406 1.80645 9.47894C1.80595 8.77874 1.91688 8.08309 2.13491 7.419C2.1539 7.36194 2.15287 7.29995 2.13202 7.24358C2.11116 7.18721 2.07175 7.13993 2.02051 7.1098C1.96926 7.07966 1.90934 7.06853 1.85094 7.07829C1.79254 7.08805 1.73927 7.11811 1.70018 7.16335C0.871222 8.0874 0.323771 9.23661 0.124347 10.4713C-0.0750771 11.7061 0.0821098 12.9732 0.57681 14.1187C1.07151 15.2642 1.88243 16.2389 2.91104 16.9242C3.93965 17.6095 5.14168 17.9761 6.37108 17.9793C15.2878 17.7974 13.2253 5.89985 11.4187 3.73175Z" fill="#82B445"/>
<path d="M104.648 5.96821C104.282 5.5632 103.822 5.25739 103.31 5.07835C102.234 4.72902 101.079 4.71874 99.9969 5.04886C99.5246 5.19988 99.0757 5.41837 98.6637 5.69781C98.2697 5.97255 97.9167 6.30372 97.6156 6.68108C97.5244 6.79628 97.4389 6.91606 97.3596 7.03997C97.1348 6.44656 96.7434 5.93361 96.2341 5.56507C95.6174 5.18106 94.926 4.93819 94.2078 4.8533C93.4897 4.76841 92.762 4.84352 92.0752 5.07344C91.163 5.40652 90.3703 6.01121 89.8002 6.8089V5.40775C89.8002 5.30819 89.7616 5.21264 89.6929 5.14179C89.6242 5.07094 89.5308 5.03048 89.433 5.02919H88.8341C88.7355 5.02919 88.6408 5.06907 88.5711 5.14007C88.5013 5.21106 88.4622 5.30735 88.4622 5.40775V17.3987C88.4622 17.4484 88.4718 17.4976 88.4905 17.5435C88.5092 17.5895 88.5366 17.6312 88.5711 17.6663C88.6056 17.7015 88.6466 17.7294 88.6918 17.7484C88.7369 17.7674 88.7853 17.7772 88.8341 17.7772H89.433C89.5308 17.7759 89.6242 17.7355 89.6929 17.6646C89.7616 17.5938 89.8002 17.4982 89.8002 17.3987V9.85702C89.8878 9.45221 90.014 9.05704 90.1769 8.6771C90.363 8.23442 90.612 7.82196 90.9159 7.45294C91.2279 7.07069 91.6081 6.75207 92.0366 6.51392C92.5089 6.26433 93.0358 6.14085 93.5678 6.15503C93.9704 6.15046 94.3718 6.20173 94.7609 6.30744C95.0845 6.39609 95.3816 6.565 95.6255 6.79907C95.8916 7.07532 96.0887 7.41251 96.2003 7.78233C96.3598 8.31742 96.4332 8.87526 96.4177 9.43422V17.3987C96.4189 17.4987 96.4585 17.5942 96.528 17.6649C96.5975 17.7357 96.6913 17.776 96.7896 17.7772H97.3789C97.4771 17.776 97.571 17.7357 97.6405 17.6649C97.71 17.5942 97.7496 17.4987 97.7508 17.3987V9.44405C97.7666 9.23412 97.8105 9.02737 97.8812 8.82951C97.9683 8.57787 98.08 8.33575 98.2145 8.10681C98.3688 7.84935 98.5467 7.60737 98.7459 7.38411C98.9563 7.14785 99.1967 6.94118 99.4607 6.76957C99.7616 6.57829 100.087 6.42945 100.427 6.3271C100.805 6.2131 101.197 6.15515 101.591 6.15503H101.663C102.037 6.15334 102.41 6.20464 102.769 6.30744C103.097 6.40321 103.394 6.58261 103.634 6.82857C103.896 7.12599 104.086 7.48107 104.19 7.86591C104.351 8.44272 104.426 9.04109 104.412 9.64071V17.3987C104.412 17.4484 104.421 17.4976 104.44 17.5435C104.459 17.5895 104.486 17.6312 104.521 17.6663C104.555 17.7015 104.596 17.7294 104.641 17.7484C104.687 17.7674 104.735 17.7772 104.784 17.7772H105.368C105.417 17.7772 105.465 17.7674 105.511 17.7484C105.556 17.7294 105.597 17.7015 105.631 17.6663C105.666 17.6312 105.693 17.5895 105.712 17.5435C105.731 17.4976 105.74 17.4484 105.74 17.3987V9.64071C105.754 8.91496 105.662 8.19113 105.47 7.49227C105.309 6.92903 105.029 6.40868 104.648 5.96821Z" fill="#82B445"/>
<path d="M116.565 16.779C116.531 16.6119 116.502 16.43 116.478 16.2383C116.454 16.0465 116.434 15.8351 116.42 15.6188C116.405 15.4025 116.42 15.1911 116.42 14.9846V8.97684C116.431 8.35595 116.315 7.73952 116.077 7.16763C115.86 6.6565 115.529 6.20373 115.111 5.84514C114.684 5.48893 114.191 5.22316 113.662 5.06344C112.465 4.71024 111.192 4.72736 110.005 5.1126C109.462 5.29547 108.955 5.57514 108.508 5.93855C108.093 6.27798 107.753 6.70159 107.508 7.18238C107.27 7.64686 107.146 8.16294 107.146 8.68677C107.144 8.78504 107.181 8.87987 107.248 8.95072C107.315 9.02158 107.407 9.06275 107.503 9.06533H108.092C108.193 9.06666 108.29 9.02766 108.362 8.9568C108.434 8.88594 108.476 8.78892 108.479 8.68677C108.473 8.34317 108.557 8.00416 108.72 7.70351C108.893 7.38626 109.13 7.10983 109.416 6.89231C109.738 6.66885 110.094 6.49954 110.469 6.39085C110.915 6.25375 111.379 6.1858 111.845 6.18928C112.712 6.12833 113.57 6.39047 114.261 6.92673C114.536 7.18603 114.751 7.50468 114.89 7.8594C115.028 8.21411 115.087 8.5959 115.062 8.97684V10.3239H112.618C111.816 10.3141 111.016 10.4083 110.237 10.6041C109.587 10.7671 108.968 11.0396 108.406 11.4104C107.921 11.7422 107.519 12.1851 107.233 12.7034C106.957 13.2103 106.814 13.7808 106.817 14.3602C106.811 14.8666 106.908 15.3687 107.102 15.8351C107.292 16.2784 107.571 16.6756 107.923 17.0003C108.286 17.3264 108.707 17.577 109.165 17.7377C109.686 17.9163 110.233 18.0044 110.783 17.9983C111.354 18.0044 111.924 17.935 112.478 17.7918C112.961 17.6642 113.427 17.476 113.865 17.2313C114.263 17.003 114.632 16.7238 114.961 16.4005L115.096 16.2579V16.4152C115.123 16.7823 115.182 17.146 115.275 17.5017C115.298 17.5805 115.345 17.6498 115.409 17.6994C115.473 17.749 115.552 17.7762 115.632 17.7771H116.309C116.357 17.7771 116.406 17.7673 116.451 17.7482C116.496 17.7292 116.537 17.7013 116.572 17.6662C116.606 17.631 116.634 17.5893 116.652 17.5434C116.671 17.4974 116.681 17.4482 116.681 17.3985V17.3002C116.681 17.2479 116.671 17.1961 116.652 17.1478C116.61 17.0282 116.581 16.9047 116.565 16.779ZM110.802 16.6561C110.427 16.661 110.054 16.5978 109.701 16.4693C109.392 16.3615 109.107 16.1946 108.86 15.9777C108.634 15.7816 108.451 15.5385 108.324 15.2648C108.198 14.9962 108.134 14.7021 108.136 14.4045C108.132 14.0351 108.231 13.6722 108.421 13.3573C108.635 13.0078 108.926 12.7133 109.271 12.4969C109.711 12.2237 110.193 12.026 110.696 11.9119C111.337 11.7585 111.994 11.6858 112.652 11.6956H115.067V14.08C114.899 14.4501 114.683 14.7957 114.425 15.1075C114.153 15.4301 113.835 15.7101 113.483 15.9384C113.111 16.1769 112.705 16.356 112.28 16.4693C111.798 16.597 111.301 16.6598 110.802 16.6561Z" fill="#82B445"/>
<path d="M123.825 4.95578C123.689 4.90524 123.548 4.869 123.405 4.84762C123.225 4.82067 123.045 4.80753 122.864 4.80829C121.924 4.77505 121.001 5.05849 120.236 5.61456C119.92 5.85682 119.637 6.14124 119.395 6.46017V5.40808C119.394 5.30808 119.355 5.21253 119.285 5.14181C119.216 5.07109 119.122 5.0308 119.023 5.02952H118.434C118.336 5.0308 118.242 5.07109 118.173 5.14181C118.103 5.21253 118.064 5.30808 118.062 5.40808V17.399C118.064 17.499 118.103 17.5946 118.173 17.6653C118.242 17.736 118.336 17.7763 118.434 17.7776H119.023C119.122 17.7763 119.216 17.736 119.285 17.6653C119.355 17.5946 119.394 17.499 119.395 17.399V9.57712C119.477 9.10397 119.616 8.64313 119.811 8.20547C119.988 7.80433 120.232 7.43691 120.531 7.11896C120.819 6.81662 121.164 6.57593 121.545 6.41101C121.962 6.23403 122.411 6.14699 122.864 6.15536C122.983 6.14775 123.102 6.14775 123.221 6.15536L123.583 6.19469C123.631 6.20128 123.679 6.19816 123.726 6.1855C123.772 6.17284 123.816 6.15089 123.854 6.12095C123.931 6.05864 123.983 5.96923 123.999 5.87021L124.061 5.33433C124.067 5.25379 124.047 5.17362 124.004 5.10552C123.962 5.03741 123.899 4.98495 123.825 4.95578Z" fill="#82B445"/>
<path d="M128.761 10.5506L133.91 5.68832C133.964 5.63555 134.001 5.56783 134.016 5.49372C134.032 5.4196 134.026 5.34241 133.998 5.27191C133.971 5.20141 133.924 5.14075 133.862 5.09761C133.801 5.05447 133.729 5.03078 133.654 5.02953H132.833C132.74 5.03106 132.65 5.06785 132.582 5.13277L127.206 10.1769L126.452 10.9045V0.378685C126.452 0.328134 126.442 0.278091 126.423 0.23151C126.404 0.184928 126.376 0.142751 126.34 0.107467C126.304 0.0721834 126.262 0.0445073 126.216 0.0260717C126.17 0.0076362 126.12 -0.00118529 126.071 0.000127727H125.491C125.392 0.000127727 125.298 0.0400113 125.228 0.111005C125.158 0.181998 125.119 0.278285 125.119 0.378685V17.399C125.12 17.499 125.16 17.5946 125.229 17.6653C125.299 17.736 125.393 17.7763 125.491 17.7776H126.071C126.169 17.7763 126.263 17.736 126.332 17.6653C126.402 17.5946 126.441 17.499 126.443 17.399V12.6105L127.761 11.4552L132.939 17.6448C132.975 17.6865 133.019 17.7199 133.068 17.7428C133.117 17.7657 133.17 17.7776 133.224 17.7776H133.997C134.095 17.7763 134.188 17.7358 134.257 17.665C134.326 17.5941 134.364 17.4986 134.364 17.399C134.365 17.3409 134.353 17.2833 134.328 17.2311C134.302 17.1789 134.265 17.1337 134.219 17.0991L128.761 10.5506Z" fill="#82B445"/>
<path d="M142.44 6.35216C142.012 5.86466 141.487 5.47579 140.9 5.21158C140.26 4.9349 139.57 4.79889 138.875 4.81245C138.18 4.826 137.495 4.98882 136.866 5.29024C136.217 5.60906 135.641 6.06295 135.176 6.62256C134.683 7.21753 134.302 7.89896 134.05 8.63334C133.768 9.44791 133.627 10.3064 133.635 11.1702V11.6618C133.627 12.5248 133.771 13.3824 134.06 14.1937C134.329 14.9309 134.732 15.6098 135.248 16.1946C135.741 16.753 136.339 17.2045 137.006 17.5221C137.686 17.8446 138.426 18.0124 139.175 18.0137C139.642 18.0117 140.107 17.9556 140.561 17.8465C140.963 17.7495 141.352 17.6042 141.721 17.4139C142.062 17.2341 142.379 17.0093 142.663 16.7453C142.94 16.4925 143.186 16.207 143.397 15.8948C143.45 15.8125 143.471 15.7125 143.454 15.6155C143.436 15.5184 143.383 15.4318 143.305 15.3736L142.89 15.0737C142.812 15.0168 142.715 14.9932 142.62 15.0079C142.526 15.0226 142.44 15.0745 142.383 15.1524C142.179 15.4259 141.942 15.672 141.677 15.8849C141.445 16.0704 141.19 16.2241 140.919 16.3421C140.655 16.455 140.38 16.5358 140.098 16.583C139.233 16.7456 138.341 16.6376 137.538 16.2733C137.022 16.0268 136.562 15.6754 136.185 15.2409C135.794 14.7717 135.491 14.2334 135.292 13.6529C135.071 13.0218 134.96 12.3563 134.963 11.6864V11.4111H143.421C143.47 11.4117 143.519 11.4024 143.564 11.3836C143.61 11.3648 143.651 11.3369 143.685 11.3017C143.72 11.2664 143.748 11.2244 143.766 11.1782C143.784 11.1319 143.794 11.0824 143.793 11.0325V10.3246C143.802 9.57351 143.683 8.82657 143.44 8.11713C143.225 7.46747 142.885 6.86765 142.44 6.35216ZM140.383 6.4849C140.809 6.69911 141.186 7.00232 141.489 7.37476C141.806 7.7619 142.05 8.20523 142.209 8.6825C142.354 9.12076 142.438 9.57744 142.46 10.0394H135.05C135.123 9.59534 135.246 9.1614 135.417 8.74642C135.625 8.24364 135.914 7.77995 136.272 7.37476C136.607 6.99796 137.013 6.69365 137.465 6.47999C137.924 6.27042 138.422 6.16248 138.925 6.16333C139.428 6.16418 139.925 6.27379 140.383 6.4849Z" fill="#82B445"/>
<path d="M149.899 16.8576C149.881 16.761 149.827 16.675 149.749 16.6174C149.671 16.5597 149.574 16.5348 149.478 16.5478C149.28 16.5773 149.097 16.6019 148.928 16.6167C148.548 16.669 148.161 16.6507 147.788 16.5626C147.636 16.5144 147.499 16.4262 147.392 16.3069C147.25 16.1279 147.148 15.92 147.092 15.6973C146.994 15.3156 146.95 14.9216 146.962 14.5272V6.39071H149.256C149.355 6.39071 149.449 6.35083 149.519 6.27983C149.589 6.20884 149.628 6.11255 149.628 6.01215V5.40745C149.627 5.30744 149.587 5.21189 149.518 5.14117C149.448 5.07046 149.354 5.03016 149.256 5.02889H146.947V2.1725C146.947 2.0721 146.908 1.97582 146.838 1.90482C146.769 1.83383 146.674 1.79395 146.575 1.79395H145.981C145.883 1.79395 145.788 1.83383 145.718 1.90482C145.648 1.97582 145.609 2.0721 145.609 2.1725V5.02889H143.803C143.709 5.03633 143.622 5.07947 143.558 5.14968C143.495 5.21988 143.459 5.31195 143.46 5.40745V6.01707C143.459 6.06697 143.468 6.11649 143.487 6.16272C143.505 6.20894 143.533 6.25094 143.567 6.28622C143.602 6.32151 143.643 6.34937 143.689 6.36816C143.734 6.38695 143.783 6.39629 143.832 6.39563H145.638V14.5272C145.627 15.0653 145.686 15.6025 145.812 16.125C145.91 16.531 146.096 16.9092 146.358 17.2312C146.606 17.5139 146.925 17.7228 147.281 17.8359C147.645 17.9486 148.025 18.0033 148.406 17.9982H148.691L149.048 17.9736L149.401 17.9342C149.524 17.9175 149.646 17.8878 149.763 17.8458C149.845 17.8166 149.915 17.7584 149.958 17.6817C150.002 17.6049 150.016 17.5148 150 17.4279L149.899 16.8576Z" fill="#82B445"/>
</g>
<defs>
<clipPath id="clip0_1110_1140">
<rect width="150" height="18.0233" fill="white"/>
</clipPath>
</defs>
</svg>
