<svg width="20" height="21" viewBox="0 0 20 21" fill="none" xmlns="http://www.w3.org/2000/svg">
<g clip-path="url(#clip0_1207_5645)">
<path d="M9 2V6C9 6.55228 8.55228 7 8 7H2C1.44772 7 1 6.55228 1 6V2C1 1.44772 1.44772 1 2 1H8C8.55228 1 9 1.44772 9 2ZM8 9H2C1.44772 9 1 9.44772 1 10V18C1 18.5523 1.44772 19 2 19H8C8.55228 19 9 18.5523 9 18V10C9 9.44772 8.55228 9 8 9ZM18 13H12C11.4477 13 11 13.4477 11 14V18C11 18.5523 11.4477 19 12 19H18C18.5523 19 19 18.5523 19 18V14C19 13.4477 18.5523 13 18 13ZM18 1H12C11.4477 1 11 1.44772 11 2V10C11 10.5523 11.4477 11 12 11H18C18.5523 11 19 10.5523 19 10V2C19 1.44772 18.5523 1 18 1Z" fill="#82B445"/>
</g>
<defs>
<clipPath id="clip0_1207_5645">
<rect width="20" height="20" fill="white" transform="translate(0 0.5)"/>
</clipPath>
</defs>
</svg>
