<svg width="20" height="21" viewBox="0 0 20 21" fill="none" xmlns="http://www.w3.org/2000/svg">
<path d="M4.99849 5.5C4.99849 2.73858 7.23774 0.5 10 0.5C12.7623 0.5 15.0015 2.73858 15.0015 5.5C15.0015 8.26142 12.7623 10.5 10 10.5C7.23774 10.5 4.99849 8.26142 4.99849 5.5ZM19.893 19.05L18.0024 15.26C17.1545 13.5683 15.4239 12.5001 13.5311 12.5H6.46893C4.57614 12.5001 2.84555 13.5683 1.99758 15.26L0.107007 19.05C-0.0490094 19.3595 -0.0335807 19.7277 0.147783 20.0231C0.329146 20.3185 0.650578 20.499 0.997276 20.5H19.0027C19.3494 20.499 19.6709 20.3185 19.8522 20.0231C20.0336 19.7277 20.049 19.3595 19.893 19.05Z" fill="#82B445"/>
</svg>
