<svg width="18" height="22" viewBox="0 0 18 22" fill="none" xmlns="http://www.w3.org/2000/svg">
<path d="M17.12 4.12L13.59 0.590001C13.2142 0.211961 12.703 -0.000421747 12.17 6.28795e-07H5.83C5.29696 -0.000421747 4.7858 0.211961 4.41 0.590001L0.88 4.12C0.31723 4.68207 0.00070021 5.44462 0 6.24V12.09C0.00185209 14.5573 1.14207 16.8857 3.09 18.4L7.17 21.58C7.52181 21.853 7.95467 22.0008 8.4 22H9.6C10.0453 22.0008 10.4782 21.853 10.83 21.58L14.91 18.4C16.8579 16.8857 17.9981 14.5573 18 12.09V6.24C17.9993 5.44462 17.6828 4.68207 17.12 4.12ZM10 14.5C10 14.7761 9.77614 15 9.5 15H8.5C8.22386 15 8 14.7761 8 14.5V13.5C8 13.2239 8.22386 13 8.5 13H9.5C9.77614 13 10 13.2239 10 13.5V14.5ZM9.78 10.78C9.76474 10.9062 9.65716 11.0009 9.53 11H8.47C8.34284 11.0009 8.23526 10.9062 8.22 10.78L7.82 7.56C7.80275 7.41735 7.84771 7.27417 7.94342 7.16698C8.03912 7.05979 8.17631 6.99896 8.32 7H9.68C9.82369 6.99896 9.96088 7.05979 10.0566 7.16698C10.1523 7.27417 10.1972 7.41735 10.18 7.56L9.78 10.78Z" fill="#82B445"/>
</svg>
