<svg width="20" height="20" viewBox="0 0 20 20" fill="none" xmlns="http://www.w3.org/2000/svg">
<path d="M10 0C4.47715 0 0 4.47715 0 10C0 15.5228 4.47715 20 10 20C15.5228 20 20 15.5228 20 10C20 7.34784 18.9464 4.8043 17.0711 2.92893C15.1957 1.05357 12.6522 0 10 0ZM11 13.5C11 13.7761 10.7761 14 10.5 14H9.5C9.22386 14 9 13.7761 9 13.5V10.5C9 10.2239 9.22386 10 9.5 10H10.5C10.7761 10 11 10.2239 11 10.5V13.5ZM11 7.5C11 7.77614 10.7761 8 10.5 8H9.5C9.22386 8 9 7.77614 9 7.5V6.5C9 6.22386 9.22386 6 9.5 6H10.5C10.7761 6 11 6.22386 11 6.5V7.5Z" fill="#0983AF"/>
</svg>