<svg width="20" height="21" viewBox="0 0 20 21" fill="none" xmlns="http://www.w3.org/2000/svg">
<path d="M19.71 6.68812L19.08 6.0594C18.8057 5.76296 18.3795 5.66056 18 5.79992C17.6827 5.92903 17.3427 5.9935 17 5.98954C15.6193 5.98954 14.5 4.87252 14.5 3.49462C14.496 3.15265 14.5606 2.81334 14.69 2.49665C14.8481 2.10663 14.7441 1.65956 14.43 1.37892L13.8 0.750204C13.6075 0.580372 13.3568 0.49103 13.1 0.500712H11.92C11.6577 0.501815 11.4063 0.605754 11.22 0.790123L0.29 11.6979C0.105256 11.8838 0.00110462 12.1347 0 12.3965V13.5741C0.00110462 13.8359 0.105256 14.0868 0.29 14.2727L0.92 14.9014C1.19433 15.1978 1.62054 15.3002 2 15.1609C2.31733 15.0318 2.65733 14.9673 3 14.9713C4.38071 14.9713 5.5 16.0883 5.5 17.4662C5.50397 17.8081 5.43937 18.1475 5.31 18.4641C5.15192 18.8542 5.25592 19.3012 5.57 19.5819L6.2 20.2106C6.38626 20.395 6.63766 20.4989 6.9 20.5H8.08C8.34234 20.4989 8.59374 20.395 8.78 20.2106L19.71 9.26287C19.8947 9.07699 19.9989 8.8261 20 8.5643V7.38669C19.9989 7.12489 19.8947 6.874 19.71 6.68812ZM10 12.4763C8.89543 12.4763 8 11.5827 8 10.4804C8 9.37807 8.89543 8.48446 10 8.48446C11.1046 8.48446 12 9.37807 12 10.4804C12 11.5827 11.1046 12.4763 10 12.4763Z" fill="#82B445"/>
</svg>
